<?xml version="1.0" encoding="utf-8"?>
<!-- Generator: Adobe Illustrator 22.1.0, SVG Export Plug-In . SVG Version: 6.00 Build 0)  -->
<svg version="1.1" xmlns="http://www.w3.org/2000/svg" xmlns:xlink="http://www.w3.org/1999/xlink" x="0px" y="0px"
	 viewBox="0 0 1000 1000" style="enable-background:new 0 0 1000 1000;" xml:space="preserve">
<style type="text/css">
	.st0{display:none;}
	.st1{display:inline;fill:#111110;}
	.st2{display:inline;}
	.st3{fill:#F4DE3B;}
	.st4{fill:#F6D335;}
	.st5{fill:url(#SVGID_1_);}
</style>
<g id="Layer_3" class="st0">
	<path class="st1" d="M739,756H240c-6.6,0-12-5.4-12-12V258c0-6.6,5.4-12,12-12h499c6.6,0,12,5.4,12,12v486
		C751,750.6,745.6,756,739,756z"/>
</g>
<g id="Layer_2" class="st0">
	<g class="st2">
		<path class="st3" d="M489.2,649c0,0-158.1-3.8-155.2-153.5S489.2,343,489.2,343"/>
		<g>
			<g>
				<g>
					<path class="st4" d="M489.5,356c0.2-1.7,0-5.5-0.5-4.7l-0.2,6.5C489,357.1,489.3,356.6,489.5,356z"/>
					<path class="st4" d="M484.5,344.3c-0.6,3.2-1,8.7,0,14.6c0.2-6.2,0.6-3.7,0.9-11.1c0.6-0.8,1.3,2,1.4,4.4
						c0.1-1.7,1.1,1.4,1.2-2.7c-1.1-5-2.4-5.1-3.2-0.9C484.5,347.2,484.6,345.5,484.5,344.3z"/>
					<path class="st4" d="M414.2,352.4l0.7,0.5C414.6,352.6,414.4,352.4,414.2,352.4z"/>
					<path class="st4" d="M373.8,374c0.2-0.3-0.1-0.9-0.5-1.4C373.3,373.2,373.4,373.6,373.8,374z"/>
					<path class="st4" d="M363,374.2c0.3,0,0.4,0,0.7,0C363.1,373.9,362.7,373.8,363,374.2z"/>
					<path class="st4" d="M414.2,352.4l-2-1.3C413.1,353,413.5,352.2,414.2,352.4z"/>
					<path class="st4" d="M477.2,360.7c0.2-0.3,0.3-1,0.3-1.8c-0.1,0.3-0.3,0.6-0.4,0.7C477.1,360,477.1,360.3,477.2,360.7z"/>
					<path class="st4" d="M430.8,340.1l0.3-0.1c-0.1-0.7-0.3-1.6-0.6-2.6L430.8,340.1z"/>
					<path class="st4" d="M445.4,334.6c-0.4-0.1,0.9,5.2,1.4,7.5c-0.4-2.2-0.4-3.3-0.2-3.8C446.3,337.3,445.9,336.1,445.4,334.6z"/>
					<path class="st4" d="M471,339.2l0.3-0.8C471.2,338.6,471,338.8,471,339.2z"/>
					<path class="st4" d="M420,342.9c-0.3-0.7-0.7-1.4-0.9-1.8C419.3,341.8,419.6,342.3,420,342.9z"/>
					<path class="st4" d="M476.2,621.9c-0.1,0.4-0.1,0.6-0.1,1C476.2,622.3,476.3,621.9,476.2,621.9z"/>
					<path class="st4" d="M489.2,650.4l-0.3,0.3c-0.1,1-0.1,2.1-0.2,3.1L489.2,650.4z"/>
					<path class="st4" d="M347.1,380.9c0.1,0,0.1,0,0.1,0C347,380.2,347,380.4,347.1,380.9z"/>
					<path class="st4" d="M311.9,514.8c4.8-1.9,6.4,2,11.7-0.6C321.5,514.5,314.9,512.7,311.9,514.8z"/>
					<path class="st4" d="M476.7,360.1c-0.2,0.1-0.3,0.2-0.5,0.1C476.5,360.3,476.6,360.3,476.7,360.1z"/>
					<path class="st4" d="M323.6,514.1L323.6,514.1l0.5-0.3C323.9,514,323.8,514.1,323.6,514.1z"/>
					<path class="st4" d="M329.6,413.2c0.9,0.4,1.6,0.6,2.3,0.8C331.4,413.7,330.8,413.5,329.6,413.2z"/>
					<path class="st4" d="M350.1,394.9l-1,0.1C349.6,395.1,349.9,395,350.1,394.9z"/>
					<path class="st4" d="M331,428.8c-0.5,0.2-1.3,0-0.8,0.7c0.3,0.1,0.5,0.1,0.7,0.1C330.3,429.2,330.1,428.8,331,428.8z"/>
					<path class="st4" d="M326.5,441.7c0.4,0.1,0.7,0.1,1.1,0.1c-0.1-0.2-0.1-0.3-0.2-0.5L326.5,441.7z"/>
					<path class="st4" d="M443.1,616.8c-0.3,1.5-0.6,3.2-1,4.8C443.1,617.9,445.1,617.1,443.1,616.8z"/>
					<path class="st4" d="M476.8,357.7c0.1,1.4,0.1,2.1,0,2.4c0.1-0.1,0.2-0.2,0.3-0.3C477,358.9,476.9,358.1,476.8,357.7z"/>
					<path class="st4" d="M371,445.3c-0.5,0.4-0.9,0.8-1.3,1.2C370.4,446.3,370.8,445.8,371,445.3z"/>
					<path class="st4" d="M380.2,576.5l0.8-0.1C381,576.2,380.8,576.2,380.2,576.5z"/>
					<path class="st4" d="M368.9,451.2c-1.9-0.3-3.1-0.4-3.9-0.3c0.4,0.2,0.7,0.4,1.3,0.6L368.9,451.2z"/>
					<path class="st4" d="M442,621.7C442.1,621.7,442.1,621.7,442,621.7C442.1,621.7,442.1,621.7,442,621.7z"/>
					<path class="st4" d="M456.7,612.4c-1.5-0.6-2.5,6.6-3.9,10.5c-2.5,1.5,0.5-5.4,0.8-9.1c-1.7,1.5-4.4,7.6-5.2,7.1
						c0.3-1.2,0.2-1.6,0.8-3c-1.4,2.6-2.4,2.3-3.5,2.3c-1-0.1-2.2,0-4,3.2c0.1-0.6,0.2-1.2,0.4-1.8c-0.9,3.5-2,7-2.8,9.5
						c-0.8-0.1-2.9,3.9-1.7-0.7c0.4,0.3,1.1-1.5,1.7-2.8l-1.4,1.7c1.4-6.7,1.8-1.9,3.4-6.6c-2.2,1.6-5.8,6.3-6.3,4
						c2-6.3,3.4-1.2,3.9-7.2l0.9,3c2-10.4,0.8,1,3.2-10c-1.6-2.5-3.6,2.3-5.1-0.3c-1.8,3.3-1.7,5.2-3.5,8.4c-2.8,2.5-2-1.7-1.1-5.5
						c0.9-3.8,1.9-7.3-0.9-3.7c-2.2,3.8-5.7,11.5-5.7,6.7l3.5-6.7c-1.8-1.6-5.5,9.4-5.7,3.8c1.6-2.5,2.7-1.5,2.7-2.5
						c1-6-2.7,3.4-3.9,2.9l2.5-6.1c-1.3,0-3.1,0.8-4.9,1.5c-1.8,0.8-3.7,1.5-5.2,1.4c1.1-1.7,2.4-3.3,2.8-5.4
						c-2.3,0.7-3.8-0.4-4.7-2.2c-1-1.9-1.4-4.4-1.7-6.9c-1.3,1.4-2.7,2.8-4.1,4.2c-0.2-0.2,0.9-2.5,1.8-3.2c0.2-2.5-2,3-3.7,4.6
						c-0.8-0.1,1-3.3,2.3-4.5c-2.2,1.4-5,2.8-7,2.8c-1,0-1.9-0.2-2.3-0.9c-0.5-0.7-0.5-1.7-0.1-3.3l1.4-1.1c0-1.5-2.2,0.6-4.2,2.3
						c-2,1.7-3.7,3.1-2.7,0.5l0.9-0.6c-0.8-2.2-2.8-3-4.3-4.4c-1.4-1.4-2.3-3.3-0.3-7.4c-3.1,2.8-3.1,1.4-3.4,0.4
						c-0.3-1-0.8-1.7-5,2.2c1.3-2.8,2.4-4.4,3.3-5.9c0.9-1.5,1.6-3,2-5.3c-0.1-0.9-6.2,3.9-7.8,3.8l4.6-3.9c-1.9,1-3.8,2-5.7,3
						l5.1-5.1l-1.8,0.3c0,0.5-1.6,2.3-3,3.4c-1.6,0.3-1.3-1.1-0.3-2.8c1-1.7,2.6-3.6,3.9-4.5c-2,0.2-4.1,0.2-6.1,0.2
						c2-1.3,3-1.3,4.5-1.9c-6,2.1,5-3.9-0.5-2c-1,1-3,1.9-4,2.6c2.5-2.7,1.6-4.3-0.5-4.6l3.7-2c-0.4-2.6-4.4-3.4-5.6-5.9
						c-1.2,1.8-7.7,5-8.7,4.5l5.5-3.2c-3.8,1.3-1.7,1.9-6.5,3.1c0.1-1.4,6.1-3.9,8.2-4.4c-0.9,0-1.7-0.1-2.5-0.2
						c1.7-0.9,2.7-1.1,4.9-2.1c-1.9,0.7-0.7-0.6,0.2-1.6c0.9-1,1.4-1.9-1.9-0.8l1.7-0.9c-1-2.5-3.6-2.7-4.7-4.8
						c-5.1,2-4.3,0.7-8.7,1.6c0.5-1.1,1.6-2.6,2.5-3.9c0.9-1.3,1.4-2.6,0.9-3.5c-3-0.6-4.6,1-7.9,1.3c4.7-1.6,3.7-3.5,7.4-3.5
						c-1.5-2.2-1.8-2.8-6.6-5c-1.9,0.8-2.7,1.5-4.4,1.6c-1-0.4,1.7-1.9,4.1-2.3l0.5,0c-2-0.5-2.3-1.5-1.7-2.7
						c0.6-1.2,2.1-2.6,3.5-3.9c2.9-2.6,5.4-4.8,0.1-5.5l0.5,0.1c-1.9-0.7-3.9-1.5-5.8-2.3c0.7-1.5,3.8,0.4,6.8-1.1
						c-4.4-1.1-4.2-2.5-3.6-3.8c0.3-0.7,0.6-1.3,0.5-1.9c-0.1-0.6-0.5-1.2-2-1.8c7.3-1.6,6.9-3.3,5.9-5.3c-1-1.9-2.7-4,2-5.4
						l-3.5,0.2c-3.4-0.7,2-0.9,2.8-1.5c-2.7,0.1-3.1,0.8-5,0.4c-1-1.6-1.3-3.2-0.9-4.9c0.4-1.6,1.3-3.3,2.5-4.9
						c2.4-3.2,5.7-6.2,7.6-9.1c1.2-2.1-17.8-3.4-9.1-5.3l6.3,1.6c-3.5-2.8-3.1-5.2-2.5-7.5c0.6-2.3,1.4-4.5-1.3-7.5
						c1.4,0.6,3.3,1,3.2,1.4c4.7,0.1,1-3.3-2.7-4.3c0.6-0.6,3.4,0.7,5.4,0.7c2.9-0.2-5.2-3.8-0.6-3.1c0.8,0.1,1.4,0.7,1.7,0.9
						c-2-1.2,1.3-2.6-4-3.5c1.5-0.5,1.1-1.4,0.8-2.3c-0.3-0.9-0.5-1.7,1.3-1.9c-2.7-1.4-1.8-1.8-1.2-2.3c0.6-0.5,0.9-1-3.1-2.6
						c8.3,3,7.7-0.3,4.2-2.8c2.3,1.3,2.9,0.2,6.2,1.9c0.3-1.1-0.8-2.7-5-4.3c2.7,0.5,3.6,0.3,3.7-0.2c0.1-0.5-0.5-1.4-1.1-2.2
						c-1.2-1.6-2-3.1,4.3-0.7c-1.4-2.6-2.4-5-3-7.3c-0.6-2.3-1-4.4-1-6.4c3.8,2.3,3.4,3.2,3.3,4.1c-0.2,0.9-0.3,1.8,3.8,4
						c-0.4-1.1-1.1-2.2-1.8-3.4c-0.7-1.1-1.4-2.3-2-3.3c-1.1-2.1-1.6-4,0.1-4.7c1.5,0,2.9,2.5,4.1,3.5c-0.7-2.2,0.3-3.4,1.2-4.5
						c0.9-1.1,1.6-2.3,0.6-4.9c0.6,0.5,1.2,1.3,1.5,1.9c0.1-0.6,1.8-0.2-1.4-2.6l0.5,1.1c-2.6-1.4-4.7-3.7-6.3-5.9
						c-1.7-2.2-3-4.4-4.1-5.4c8.3,7.9,4.1-0.5,14.4,9.9c-0.4-0.7-1.5-2.3-3.6-3.9c1,0.1,2.2,1,4.2,3.3c-0.4-2.9-4.1-5.1-2.8-6.5
						c1.5,1.3,1.8,2.1,3.4,3.7c-2.3-3.1-4.4-6.4-2.2-6.5c0.8,0.9,2,1.8,1.7,2.1c0.7-1.2-0.4-3.7-1-6c-0.6-2.3-0.7-4.2,1.7-3.9
						c5.2,6.7,2.7,1.3,7.8,6.5l-0.4-2.6l-2.9-2.2c1.1-0.8-1.5-5.7,1-4.7l1.2,2.9c0.3-0.9,0.7-1.8,1.1-2.8l-2.9-1.1
						c-1.3-3.8-6.2-6.9-3.3-6.6c0.2,0.8,1.2-0.9,4.5,1.9c0,0,0,0,0,0c-0.9-2.2-1.8-4.6,0.2-3.9c1.7,1.7,4.8,6.5,5.9,7.6
						c-3.2-5.3,1.6-3.3-1.5-9.1c0.7,1.4,2.9,4.5,3.5,5.1l-2.5-4.3c1.5,0.9,2,1.5,3.7,4c2.2-0.4-5.9-7.1-1.6-5.3
						c0.1,0.4,0.6,1,0.7,1.8c1.6,0.2,2.1-1.2,2.6-2.4c0.5-1.2,1.1-2.5,2.7-2c4.5,5.8-0.6,2.5,3.3,7.3c0.9-1.4,1.1-4.1,1.6-6.5
						c0.5-2.4,1.2-4.5,3-4.5l-0.9-0.4c-2.4-4.6-1.2-3.8,0.4-2.4c1.6,1.4,3.6,3.3,3.1,0.8c0,0.9,2.3,5.3,1.8,4.2
						c1.3,0.3,1.9-0.8,2.5-2.5c0.5-1.6,0.9-3.9,1.7-6.1l0.8,2.6c2.2,1.6,3.6-0.2,5.3,0.4c-0.7-2.6,0.2-2.5-1.8-5.9
						c5,6.1,5.9,3.5,6.9,0.6c0.9-2.9,1.9-6.1,5.8-0.8c-0.4,0.2-0.2,2.5,0.1,2.4c0.7-1.1,1.4-2.3,2.2-3.4c-1.7-4.2-1.3-2.4-3.1-5.5
						c-0.5-2.7-0.3-4.9,0.5-5.2c-0.5,3.3,2.3,6.9,3.7,9c-0.5-1.3-0.8-2.8-1.3-4.1c4.1,7.1-2.6-8.7,1.4-4.3l0.6,2.3
						c0.5-1.4,0.3-4.7,1.5-4.3c1.9,4.9-0.2,2.6,1,6.7c1.1-0.7-0.3-10.2,2.3-5.6c-0.1,1.5-0.9,1.8-1,3.4c3,5.5,2.7,4,3.8,4.7
						l-0.1-0.1l2.8,2.1l-1-1.5c-1-6.8-0.3-7.6,0.5-7.9c0.9-0.3,2,0,2-4.6c-0.1,8.7,0.8,4.8,2.1,10.6c0.9,1.5,2.2,3,2.3,4.7
						c-0.1-4.9,2.5,3.3,2.3-3.8c0.5,1.8,1.1,0,1.9,4.7c0.9-1.7-1-3.2-1.4-5.5c0.3-3.4,1.9-1.7,3.5-0.4c1.6,1.4,3.2,2.5,3.9-2.2
						c1.9-4.1,1.3-10.5,3.3-14c0.6,1.4,0.7,3.2,0.7,4.6c-0.1,1.4-0.3,2.4-0.3,2.4c1.7,2.6,2.6,1.9,3.6-0.4c0,1.7,0.4,3,1.1,5.1
						c0.9-0.6-0.2-7,1.4-4.3c0,2.1,0.2,5.5,0,7.7c0.9-1.9,1.6-5.5,2.6-7.4c0.7,3.3-0.2,5.1-0.3,7.3c1.1-1.6,3-3.4,3-8.6l-1.1-1.8
						c0.5-0.3,0.7,4.5,0.4,5.5c-0.7,4.2-1.8-1.6-2.1-3.5l0.7-1.3c-1-5.5-1.9-5-2.7-3.1c-0.8,1.9-1.5,5.1-2.4,4.8l-0.3-8.1
						c-0.3,2.3-0.6,4.6-0.9,6.9c-0.7-2-1.6-6.5-0.9-7.8c-1.9-3.8-0.7,3-2.5-1.2c-0.2-0.7-0.2-1.1-0.2-1.4l-0.9,2.6
						c0-1.7-1.1-5.6-0.1-4.6c-1.5-2.1-2.2-0.5-2.8,1c-0.5,1.4-0.9,2.7-1.9-0.3l0.1-0.5c-1.4,1.6-1.2,3.1-0.8,5.1
						c0.4,2,0.9,4.5,0.5,8.1c-1.4-4.7-2.9-9.4-4.4-14.1l0.8,5.9c-0.4-0.1-1.1-0.5-1.5-2.8c-0.4,4.2,0.7,2.5,0.8,6.4
						c-1.3-2.5-2.3-1.7-3.2-1.3c-0.9,0.3-1.7,0.1-3-4.5c0.5,4.5,2.3,3.1,1.3,6.5c-2.8-9.8-1.5,2.1-4-2.1c-0.8-5.2,1.2-2.9-1.3-7.1
						c0.6,4.4-0.2,4.1-1.3,3c-1.1-1.2-2.5-3.2-2.9-2.2c1.8,6.9-1.9,3.6-3.3,6.4c-0.5-2.3-4.9-2.6-7.6-4.4l-0.3-1.2
						c1.8,6.9-0.5,6.3-1.4,8.2c-1.3-4.1-1.6-5.8-1.5-7.9l-1.3,0.5c0.4,2.3,0.4,3.6-0.2,4.6l-1.4-5.2c-0.9,0.4-1.2,2.3-1.8,3.6
						c-0.6,1.4-1.4,2.3-3.1,1.1c1.7,4.7,6.7,12.3,5.6,16.3c-1.1-2.5-2.8-6.8-2.6-8c-0.1,0.4,0.1,2.4-0.7,1.4l-0.7-4.6
						c-1.7-1.5,0.9,3.7-0.1,3.7c-1.4-3.6-1.6-2.3-2.6-5.2c0.1-0.4,1.3,1.2,1.1-0.3c-1.2-0.3-3.1-2-4.6-4.5c0.9,2,2,4.8,1.5,5.5
						c-1.6,1-2.4-4-4.2-5.4c0.6,2.6-1.6,0.6,0.7,5.9c-0.5,0.2-1.7-2.2-2.5-3.6c0.1,2.7-3.9,2.6-0.4,7.7l0.4,0.3c0,0.1,0,0.2,0,0.3
						c0,0,0,0,0,0l0,0c-0.2,3.2-2,3.2-4,2.8c-2-0.4-4.2-1.1-5,0.7l-0.9-1.7c-0.6,2.8-3.1,3.2-2.2,7.4c-0.5,0.3-2.9-2.4-3.8-4.5
						c-0.5,2,0.5,3.9-3,2.3c-0.5-3.6-2-2.3,0-2.9c-2.5-0.5-4.5-2.8-3.5,2.7c-2-4.5-4.6-4.5-4.6-2.7l3.1,2.2
						c-0.5,1.2-1.5,1.3-2.5,1.4l-3.2-5.7c-1.9-1.1-2.9-0.7-3.3,0.4c-0.4,1.1-0.3,2.9-0.2,4.5c0.1,3.2,0.2,5.7-5,1.3
						c1.9,4.3,3.7,1.2,6.1,6.1c-1.9,0.3-9.2-5.9-9.7-5.5c-2.1-0.6-1.2,1.7-0.1,4c1.1,2.3,2.3,4.8,0.5,4.7c1.7,1.5,5.9,6.1,5.9,9
						c-1.8,0.4-8-5.9-8.3-8.1c0.2-0.4,0.9,0,1.3,0.6c-0.1-1-0.1-2.3-2.3-3.7l1.3,1.9c-2.2-1.2-4,0.7-6.1-2.5
						c0.4,2.6,2.1,3.2,3.6,3.4c-2-0.5-2.7,0.2-3.4,0.9c-0.6,0.7-1.2,1.5-2.8,1.6c1.2,0.6,3.3,2.4,3,2.6c-4.6,0.4,1.9,4.3,1,6.6
						c-3.4-1.5-5.6-6.3-5.2-2.5c-2.8-0.6-4.7-4-5.6-5.8c0.8,2.4-0.5,2.7-2.2,2.4c-1.7-0.3-3.8-1-4.5-0.7l-0.5-2.2
						c0.3,1.3-0.1,1.8-0.6,2.2l3.9,2.6c-1.1,0-1.5,0.5-2.9-0.8c1.8,2.6,6.1,4.7,8.3,8.5c-2.4-0.9,0.1,3.7-4.8,0
						c3.5-0.9-4.9-3.7-4-6.4c0.2,0.9-0.2,1.3-1.3,1.4c-0.6-0.4-0.9-0.9-1-1.3c-6.1-1.2,4.4,5.5,2.5,7.7c-2.5-2.5-5.6-3.5-5.3-2.7
						c0.8-0.9,4.9,3.1,6.3,5.6c-3.3-0.2,0.3,2.8-0.5,3.4l1.7-0.1c2.5,2.4,1.6,2.8,1.8,4.5c-2.2-1.5-0.8-2-2-2.4
						c2,2.4,0.3,2.1-1.7,1.7c-2-0.4-4.3-0.8-3.1,1.2c-2.4-0.5-5.4-3.6-7.2-3.8c1.2,2.2-0.1,2.1-1.6,1.9c-1.4-0.2-3-0.3-2.1,1.7
						c4.3,1.9,3.4,1.2,6.4,5c-0.3-1.7-0.4-3.4-0.6-5.1c1.4,2,2.8,3.9,4.3,5.8c0.7-0.9-1.1-3.6-0.1-3.8c2.5,3.1,1.6,2.3,5.1,4
						c-3.3-1.3-2.9-0.1-2.3,1.3c0.7,1.4,1.6,2.9-0.9,2.4l-9.8-6.1c-2.9-0.1-2.4,1.8-1.5,3.8c0.8,2.1,1.9,4.3-0.2,5.2l2.3-0.1
						c3.8,2.6-0.5,2.2,0.6,4.1c-3.4-1.9-4.9-1.9-7.3-2.5c2.6,1.2-1.5,2.3,5.3,6c-1.7-0.3-3.5-0.5-5.3-0.7c-1.6,0.9,0.6,2.8,2.8,4.7
						c2.2,1.9,4.6,3.8,3.5,4.7c-3.5-2.4-6.5-2.3-8.6-5.2c-0.4,0.9-1.4,1.4,1.1,2.4c-2.4-0.4,3.8,4.3,0.1,3.8c1.4,1,5.1,2.6,4.5,3.4
						c-0.8-0.2-1.8-0.7-1.8-0.7c1.8,0.7,1.9,2.4,6.2,3.1c-6.1-0.9-6.6,1.1-6.8,3c-0.2,1.9-0.1,3.8-5.4,3.5c0.7,2.3,1.2,4.9,1,6.7
						c-1.1-0.4-1.9-0.5-1.4-0.7c-4.1,1.5,10.3,4.3,5.8,5.9c-6.4-0.1-2.9-2.2-5.4-1.9c-6.2-1.3-6-0.4-5.2,0.9c0.8,1.3,2.3,2.8-1.5,3
						l-0.6-0.6c-2.3,0.3-1.3,1.4,0.1,2.7c1.4,1.3,3.2,2.8,2.5,3.9c0,0-1.1-0.3-1.9-0.4c6.1,2.8,7.6,6,9.1,8.4
						c-4.8-1.4-2.5-1.4-7.5-1.7c0.6,1.1,8,0.9,9.2,3c-2.8,0.2-5.3,1.3-10.7,0.8l0-1.9c-7,0-0.1,2.5-1.4,3.3l-3-0.5
						c0.6,3.1,8.3,3.9,7.4,6.9l2.3-0.1c7.4,2.3-4.4,1,1.1,3.1l-7.7-0.1c1.8,1.3,7.1,4.4,8.5,6.4c-5.7-1.4-8.4-3.9-11.7-5.6
						c-0.1,1.1,0.3,3.9,4.1,4.7c-0.7-0.5-2.6-1.2-1.3-1.5c5.9,1.7,8.9,3.6,8.7,5.7c-7.5-0.5-8.4,1-9,2.6c-0.6,1.7-0.6,3.6-6.5,4.5
						c1.4,1,1.9,2,2,3c0.1,1-0.3,2-0.9,3.1c-1.1,2.1-2.8,4.4-2.2,6.8c11.5-2.3,0.4,1.4,12.3,0.3c0.8,1,0.7,1.4-0.1,1.6
						c-2.3,1.2-4.6,2.5-6.9,3.8c-3.4,1.1-2.7-0.8-5.4-0.5c-0.7,2.5-4.9,1.5-7.9,3.5c4.2-0.7,6.2,0.3,4.7,1.9
						c1.8-0.9,3.5-1.7,5.3-2.6c3.3,1.4,0.9,2.4-1.5,3.4c-2.4,1-4.8,2.1-1.5,3.5l-3.9-0.6c2.4,1.5,0.9,6.9,10.7,7
						c-1.3,0.5-4.4,1.5-5.4,0.9c-0.3,2.3,2.6,4.2,5,6c2.4,1.8,4.2,3.5,1.8,5.8l-2.9,0.4c1,0.6,5.7,0,3.1,1.7c-1.2,0.3-2.9,0.4-3,0.8
						c1.1,0.2,5.5,0.8,4.1,2.2l-3.4,0c-1.2,2.6,1.2,3.7,4.2,4.3c3,0.7,6.8,0.9,8.3,2.2c-8.1,2.8-9.7,6.9-10.3,9.1l-1.2,0.4
						c0.4,2.6,2.9,4,5.9,5c1.5,0.5,3.1,0.9,4.6,1.4c1.5,0.4,3.1,0.9,4.3,1.6c-1.8,1.6-2.6,3.1-2.9,4.6c-0.3,1.4,0,2.7,0.5,4
						c0.8,2.6,2.4,5.1,1.4,8.5c1-1.4,5.8-3.4,6.9-3.2c-0.9,1.9,6.6-0.8-0.1,3.4l-0.1-0.4c-6,4.9-3,5.8-2.2,7.3l8.6-5.7
						c-2.4,3-2.9,5.1-2.4,6.4c0.5,1.3,2,2,3.4,2.6c2.9,1.2,5.8,1.8,1.5,7.2c2.7-0.8,3.6,0.2,6.2-0.7l-4.1,3.7
						c0.5,1.6,0.9,2.9,1.7,3.9c0.8,1,1.8,2,3.6,2.8l-3.4,2.2c1.4,1.8,13.1-9.4,14.7-8.4l-5.2,6.4c1.4,1.2,1.6,3.8,2.4,5.7
						c0.9,1.8,2.3,3.1,6.1,1.3c-0.8,0.9-2.4,2.7-3.1,2.6c0.6,0.6,1.1,2.8,2.2,3.6c1.1,0.9,2.9,0.3,6.1-4.4c-4.4,5.9,2.6,2.9,6,1.3
						l-3.4,4.3c5.4-4.7,6.5-6.3,9.3-6.6c0,0.9-2.1,3.9-1.9,2.3c-0.1,3.3,4-3.5,4.1,0l-2.6,2.5c1.3,1.4,2.2-0.3,5.2-3.2
						c2.1-1.3,2.1,2.9-0.2,7.3c1.8-2.4,4.6-5.4,4.8-3.7c-0.8,1.7-1.7,2.5-2.2,2.9c0.4,2.3,2.1,1.6,3.7,0.8c1.5-0.7,2.8-1.3,2.5,1.5
						c-0.8,1.6-1.1,2.5-1.2,3c-2-1.3-3.6-2.5-3.2-2.7c-2.5,4.4-1.1,6.1-5.9,11.4c1.7-1.2,4.1-3.3,6.1-4.8c2-1.4,3.7-2.2,4-0.7
						c-0.1,0.5-0.3,0.9-0.6,1.7l-0.4,0.4c0.2,0.6,0.7,0.4,1.5-0.2c0.2,1,0.2,1.7,0.7,2.1c-1.7,3.8,1.1,3,1.9,3.6
						c2.3-5,3.1-3.6,4-8.2c0,0.4-0.4,0.5-1.1,0.4c-0.2,0.1-0.4,0.1-0.6,0.3c0.1-0.1,0.2-0.3,0.3-0.4c-0.6-0.1-1.4-0.4-2.3-0.7
						c1.9-2.1,3.7-3.9,3.3-0.7c2-3,4-6,5-7.4c-2.2,7.4-1.6,12.2-3.2,16.7c4-1.6,7.3,1,12.8-7.9c1.2-0.9-0.2,3.1-0.5,4.7
						c-0.8,0.8-1.3,0.4-2.1,1.7c2.5-1.8,5,0.8,7.8-5.8c0.8,3.7-3.4,5.8-0.3,5.7l-1.1,1.9c0.7,6.4,4.5,2.8,8-0.5
						c3.5-3.3,6.7-6.2,7.6,1.7c-0.2-1-0.2-1.4,0-2.6c2.4,4.1,6.3,3.5,10,3.4c3.7-0.2,7.2,0,9.5,5.7c1.5,2.4,2.6-2.1,4.4-5.3
						l-0.6,5.9c1.1-2.1,2.1-4.2,3.1-6.4c1.8-2.2,2.4,1.5,3.3,4.8c0.9,3.2,2,5.9,4.4,1.5l0-4c1.2,0.9,4.3-1.8,3.6,2.7
						c0.2-0.7,0.9-4.1,1.2-1.9l-0.3,3.1c1.3-1.6,2.5-3.3,3.7-4.9c1.1,1.2,0.8,4.3,0.6,7.1c-0.2,2.8-0.2,5.5,1.7,6
						c1.6-1.1,4.7-8.7,4.2-10.8c-0.7-0.2-1.4-2-1.3-5.1l1.3-1.6c0.3-4.5,0.6-9.1,0.6-13.4c0.1-4.3,0-8.2-1-11.4
						c-0.6,1.8-1.3,3.6-2,5.4l-0.2-4.4l1.4-0.2c-0.5-4.2-1.2-0.6-2,1.9c0.1-2.3-0.1-4-0.3-4.9c-0.8,2.8-1.6,5.7-2.5,8.5
						c0.1-3.6,1.4-6.9,0.5-9c-1.2,3.9,0,8-1.7,10.5c-0.4-4.2,0.2-7.5-1.2-4.1c0.1-2.3,0.5-3.8,1-4.8c-1.2,2.7-2.5,0.9-3.5,5.6
						c-0.2-5.2-3.2,0.9-1.9-7.6c-0.6,2-2.5,6.4-3.4,6.7c3.1-9.9-3-1.1-0.7-11.9c-2.7,8.9-4.6,3.4-7.5,8c0.3-0.7,0.8-2.1,0.8-1.6
						c-0.9-1-0.7-3.8-1-5.6c-1.7,7.5-3.8,8.8-5.8,13.2c0.3-7.5,2.8-8.6,3.9-15.6c-1.3,6.1-3.6,5.5-4.4,10.6c0-4.7-0.4-2.4,0.6-8.7
						c-2.4,9.2-1.3,1.3-3.6,6.8c-0.3-4.9,1.8-8.8-0.5-6.4c0-1.5,0.6-3,1.1-4.1C456.1,613.2,456.7,612.4,456.7,612.4z M414.8,614.1
						C414.8,614.1,414.8,614,414.8,614.1c0.4-0.1,0.7,0,0.9,0C415.5,614.1,415.2,614.1,414.8,614.1z M411.8,612.6
						c0.3,0.4,0.7,0.7,1.2,0.9c-0.8,1.7-1.8,3.4-2.1,3.1C411.6,615.6,411.4,614.2,411.8,612.6z M401.3,650c-0.9,0.4-0.7-0.7-0.2-1.7
						c0.3,0.1,0.7,0,1.3-0.1c0.1-0.1,0.3-0.4,0.4-0.6C402.2,648.5,401.7,649.4,401.3,650z"/>
					<path class="st4" d="M405.5,644c0.1-0.1,0.3-0.3,0.4-0.2c0.1-0.5,0.2-0.9,0.2-1.3c-0.3,0.5-0.7,1-1,1.4
						C405.2,644,405.4,644,405.5,644z"/>
					<path class="st4" d="M415.1,353l-0.1-0.1c0.2,0.2,0.3,0.3,0.5,0.6C415.3,353.3,415.2,353.2,415.1,353z"/>
					<polygon class="st4" points="384.4,577.4 383.4,578.3 384.5,577.7 					"/>
					<path class="st4" d="M440.7,363.1c0.2,0.4,0.4,0.9,0.7,1.3C441.3,364,441,363.6,440.7,363.1z"/>
					<path class="st4" d="M449,361.8l1.6,1.6C449.8,362.4,449.3,362,449,361.8z"/>
					<path class="st4" d="M455.8,362.8c-0.2-1-0.3-1.7-0.4-2.3c0,0,0,0,0,0L455.8,362.8z"/>
					<path class="st4" d="M379.7,416.7c0,0.1,0,0.2,0.1,0.3C380.3,418,380.2,417.5,379.7,416.7z"/>
					<path class="st4" d="M390.2,387.5c0.4,1,0.8,1.9,0.9,2.6C391.8,390,392.2,389.9,390.2,387.5z"/>
					<path class="st4" d="M371.2,445.2C371.1,445.1,371.2,445.2,371.2,445.2c-0.1,0-0.1,0.1-0.2,0.1L371.2,445.2z"/>
					<path class="st4" d="M390,390.9c1.1,0.5,1.3,0,1.1-0.8C390.5,390.1,389.8,390,390,390.9z"/>
					<path class="st4" d="M482.7,360.6l0.3,0.2c0-0.4-0.1-0.7-0.1-0.9L482.7,360.6z"/>
					<path class="st4" d="M482.9,359.9l0.3-0.7C483,359.3,482.9,359.3,482.9,359.9z"/>
					<path class="st4" d="M483.7,357.8l-0.6,1.4C483.4,359.2,483.7,359.4,483.7,357.8z"/>
					<path class="st4" d="M474.2,359.1l0.2,2C474.4,360.7,474.4,360,474.2,359.1z"/>
					<path class="st4" d="M471.9,360c0.7,0.3,2.1,4,2.7,2.6l-0.2-1.6C474.5,364.1,471.9,356.6,471.9,360z"/>
					<path class="st4" d="M456.3,338l2.6,1.1c-0.8-2-2-4.7-1-5.4C453.7,328.1,459.5,338.2,456.3,338z"/>
					<path class="st4" d="M448.4,336.7c1-1.3-0.8-3-1-4.2C447,334.6,447,335.1,448.4,336.7z"/>
					<path class="st4" d="M398.1,356.9l-2.4-4.4C395.1,353.6,396.6,354.2,398.1,356.9z"/>
					<polygon class="st4" points="403.5,383.9 405.9,386 403.7,382 					"/>
					<path class="st4" d="M378.3,358.1l0-0.9c-0.1,0.8-0.3,1.7-0.4,2.5L378.3,358.1z"/>
					<path class="st4" d="M322.6,437.9l5.9,1.6C327.7,438.5,321.2,436.2,322.6,437.9z"/>
					<path class="st4" d="M320.7,479c-3.1,0.1-5.2,1.1-2.2,2.1C319,480.2,321.5,479.5,320.7,479z"/>
					<polygon class="st4" points="339.6,600.1 337.4,600.5 339.8,600.9 					"/>
				</g>
			</g>
		</g>
	</g>
	<g class="st2">
		<path class="st3" d="M489.2,649c0,0,143.4-3.8,140.8-153.5C627.3,345.9,489.2,343,489.2,343"/>
		<g>
			<g>
				<g>
					<path class="st4" d="M489.5,331c-0.1,0.8-0.2,2-0.1,3c0,1,0.4,1.7,0.8,1.4l0.8-5.9C490.5,330,490.1,330.5,489.5,331z"/>
					<path class="st4" d="M493.8,342.4c1-2.8,2.5-7.8,2.5-13.3c-1.4,5.6-1.4,3.2-2.8,10c-0.7,0.6-1.1-2-0.8-4.2
						c-0.4,1.5-1.1-1.4-1.7,2.3c0.7,4.7,1.7,4.9,3.2,1.2C494.3,339.7,494,341.3,493.8,342.4z"/>
					<path class="st4" d="M552.4,369.4l0-0.8C552.3,368.9,552.3,369.2,552.4,369.4z"/>
					<path class="st4" d="M580.8,394.3c-0.3-0.1-0.8,0.2-1.2,0.6C580,394.8,580.4,394.7,580.8,394.3z"/>
					<path class="st4" d="M580.2,403.3c0.1-0.2,0-0.4,0.1-0.5C579.9,403.3,579.8,403.6,580.2,403.3z"/>
					<path class="st4" d="M552.4,369.4l0,2.1C553.4,369.8,552.7,370,552.4,369.4z"/>
					<path class="st4" d="M505,329.2c-0.3,0.2-0.6,0.8-0.9,1.5c0.2-0.2,0.5-0.4,0.7-0.5C504.9,329.8,504.9,329.6,505,329.2z"/>
					<path class="st4" d="M535.2,366.7l-0.3-0.1c-0.3,0.6-0.7,1.3-1.1,2.2L535.2,366.7z"/>
					<path class="st4" d="M523,363.4c0.2,0.3,1.8-4.5,2.5-6.6c-0.8,1.9-1.3,2.8-1.6,3.1C523.6,360.8,523.3,361.9,523,363.4z"/>
					<path class="st4" d="M504.9,350l-0.5,0.6C504.6,350.4,504.8,350.2,504.9,350z"/>
					<path class="st4" d="M543.1,371.3c-0.3,0.7-0.5,1.3-0.7,1.7C542.7,372.4,542.9,371.8,543.1,371.3z"/>
					<path class="st4" d="M508.9,670.7c0-0.4-0.1-0.6-0.1-0.9C508.8,670.3,508.8,670.7,508.9,670.7z"/>
					<path class="st4" d="M489.2,647.7l0.2-0.3c0-1,0-1.9-0.1-2.8L489.2,647.7z"/>
					<path class="st4" d="M581.8,415.6C581.8,415.6,581.8,415.6,581.8,415.6C581.2,415.6,581.4,415.7,581.8,415.6z"/>
					<path class="st4" d="M608.6,511.1c4.6-0.9,5.7,2.3,10.8,0.8C617.4,511.9,611.7,509.8,608.6,511.1z"/>
					<path class="st4" d="M505.3,329.9c0.2,0,0.4,0,0.6,0C505.7,329.8,505.5,329.7,505.3,329.9z"/>
					<path class="st4" d="M619.4,511.9L619.4,511.9l0.5-0.2C619.7,511.8,619.6,511.8,619.4,511.9z"/>
					<path class="st4" d="M596.4,435.2c0.8-0.4,1.4-0.8,1.9-1.1C597.9,434.3,597.3,434.6,596.4,435.2z"/>
					<path class="st4" d="M593.8,415.1l-0.3,0.8C593.8,415.5,593.9,415.2,593.8,415.1z"/>
					<path class="st4" d="M606.6,441.9c-0.3,0.4-0.9,0.7-0.2,0.8c0.2-0.1,0.4-0.2,0.6-0.3C606.3,442.5,606,442.4,606.6,441.9z"/>
					<path class="st4" d="M609.7,452.2c0.4-0.2,0.6-0.3,0.9-0.5c-0.1-0.1-0.2-0.2-0.3-0.3L609.7,452.2z"/>
					<path class="st4" d="M547.3,657.9c-0.8-1.2-1.5-2.6-2.2-4.1C546.6,657.2,545.2,659.1,547.3,657.9z"/>
					<path class="st4" d="M504.6,332c0.3-1.3,0.5-1.9,0.7-2.1c-0.2,0-0.3,0.1-0.5,0.2C504.7,330.9,504.6,331.6,504.6,332z"/>
					<path class="st4" d="M644.6,429.4l0,2.3C644.8,431,644.8,430.1,644.6,429.4z"/>
					<path class="st4" d="M623.1,598.9l0.2,0.8C623.5,599.5,623.5,599.3,623.1,598.9z"/>
					<path class="st4" d="M647.2,437.6c-1.6,0.9-2.5,1.5-3,2.1c0.4,0,0.8,0,1.3-0.1L647.2,437.6z"/>
					<path class="st4" d="M545.1,653.8C545.1,653.9,545.1,653.9,545.1,653.8C545.1,653.9,545.1,653.9,545.1,653.8z"/>
					<path class="st4" d="M535.7,669.7c2-0.4-1-6.5-1.7-10.3c1.7-2.5,2.5,4.3,4.3,7.4c0.9-2.2,0.1-8.3,1.2-8.4c0.4,1,0.8,1.3,1,2.7
						c-0.1-2.7,1-3.2,2-3.8c1-0.6,2.1-1.4,1.7-4.9c0.3,0.5,0.6,1,0.8,1.5c-1.4-3-2.7-6.2-3.5-8.5c0.8-0.4,0-4.5,1.8-0.5
						c-0.5,0.1,0.1,1.7,0.3,3.1l0.2-2.1c3,5.6-0.4,2.4,1.3,6.8c1-2.5,0.9-8.1,2.8-7c2.6,5.6-2.2,3.1,1.6,7.5l-2.8-1.4
						c5,8.4-1.5-0.1,3.7,8.9c3.4,0.5,1.9-4.1,5.2-3.6c-0.7-3.4-2.2-4.5-2.9-7.9c0.6-3.6,2.8-0.4,4.9,2.6c2.1,3,4,5.8,3.7,1.4
						c-1-4-4.1-11.1-0.5-8.3l2.4,6.5c2.8-0.7-3.1-9.6,1.6-6.8c0.8,2.6-0.9,3-0.1,3.6c4.2,4-0.6-4.1,0.6-4.8l3.1,5.3
						c2.3-2.2,2.9-7.8,5-10.4c0.8,1.6,1.3,3.6,2.9,4.8c1-2.3,2.9-3.4,5.4-3.8c2.4-0.4,5.4,0,8.1,0.1c-0.6-1.7-1.2-3.5-1.9-5.2
						c0.3-0.2,2,1.5,2.3,2.6c2.5,0.6-1.9-2.7-2.6-4.9c0.5-0.8,2.8,1.7,3.3,3.3c-0.1-1.3-0.1-2.8,0-4.1c0.1-1.4,0.3-2.7,0.7-3.8
						c0.8-2.2,2.3-3.3,5.3-2.2l0.6,1.6c1.6,0.1,0.3-2.4-0.8-4.6c-1.1-2.1-2.1-4,0.4-2.9l0.4,1c2.5-0.9,3.9-3.1,5.7-4.8
						c0.9-0.8,1.8-1.6,3.1-1.9c1.3-0.4,2.8-0.3,5,0.3c-2.6-2.8-1.2-3.1,0-3.7c0.6-0.3,1.1-0.6,0.9-1.3c-0.2-0.7-1-1.8-3-3.6
						c2.9,0.6,4.6,1.3,6.2,1.8c1.6,0.5,3.2,0.7,5.9,0.1c1.1-0.6-4.3-5.3-4.4-6.9l4.5,3.2c-1.2-1.6-2.5-3.3-3.7-4.9l6,3l-0.5-1.9
						c-0.6,0.2-2.6-0.5-3.9-1.5c-0.5-1.5,0.9-1.9,2.8-1.8c1.9,0.1,4.2,0.8,5.4,1.5c-0.5-2.2-0.9-4.3-1.5-6.4c1.9,1.2,2.1,2.3,3,3.6
						c-3.6-5.1,5.3,2.6,1.9-2.1c-1.2-0.4-2.8-1.8-3.7-2.4c3.5,0.7,4.8-1.6,4.5-4l3.2,2.1c0.6-0.7,1.1-1.5,1.4-2.3
						c0.3-0.9,0.5-1.9,0.6-2.9c0.3-2,0.5-4.1,1.4-5.8c-2.2,0.6-8.1-2.5-8.3-3.7l5.6,2c-3-2.1-2.5,0.1-6-3c1.2-1,6.5,1.8,7.9,3.3
						l-1.1-2.4c1.7,0.6,2.3,1.3,4.3,2.3c-1.5-1.1,0.2-1.2,1.5-1.5c1.3-0.3,2.4-0.9-0.4-2.5l1.7,0.6c1.5-3.7,0.2-6.1,1-9.2
						c-4.8-1.7-3.4-2.5-7-4.6c2.2-1.6,6.7-2.9,7.1-5.7c-1.9-2.5-4-1.7-6.7-3.2c2.3,0.5,3.5,0.1,4.5-0.2c1-0.3,1.7-0.4,3.2,0.7
						c0-3.4,0-4.3-2.8-9.1c-1.9,0-2.8,0.3-4.3-0.2c-0.6-0.8,2.2-1.2,4.4-0.7l0.4,0.3c-1.5-1.5-1.2-2.6-0.2-3.7
						c1-1.1,2.7-2.1,4.4-3.1c3.4-2,6.4-4.1,1.9-6.6l0.4,0.3c-1.5-1.5-2.9-2.9-4.5-4.3c0.9-1.6,3.4,1.4,6.3,0.4
						c-3.7-2.4-3.3-3.9-2.6-5.4c0.7-1.4,1.7-2.8-0.7-4.6c6.9-0.8,6.9-3.3,6-5.7c-0.8-2.4-2.3-4.9,2.1-6.7l-3.2,0.2
						c-3.1-0.9,1.8-1.1,2.6-1.7c-2.5,0.1-2.9,1-4.6,0.4c-1-1.9-1.1-3.8-0.8-5.7c0.2-1.9,0.9-3.9,1.8-5.9c0.9-2,2-4,3.1-6.1
						c0.5-1,1-2.1,1.5-3.1c0.4-1,0.7-2.1,1-3.1c0.5-3-16.7,0-9.5-4.3l6,0.4c-1.9-1.3-3-2.6-3.5-4c-0.3-0.7-0.4-1.4-0.6-2.1
						c-0.1-0.7-0.2-1.5-0.3-2.2c-0.3-2.9-0.5-6-4-8.2c1.4,0.1,3.2-0.3,3.2,0.3c4-2-0.6-4.5-4.1-3.7c0.2-0.9,3.1-0.9,4.7-1.8
						c2.2-1.8-6.1-1.8-2.1-3.4c0.7-0.3,1.4,0,1.8,0.2c-2.2-0.3-0.4-3.8-5-1.8c1.8-2.7-3.1-3.4-0.7-5.9c-2.9,0.2-2.5-0.8-2.4-1.7
						c0.1-0.9,0-1.6-3.8-0.6c7.9-2.2,5.1-5.6,1.1-5.7c2.5-0.4,2.1-2,5.4-2.6c-0.3-0.7-0.9-1.3-1.9-1.5c-1-0.2-2.5,0-4.4,0.9
						c4.1-3,1.7-3.7-0.3-4.4c-2-0.6-3.6-1.2,1.9-4.3c-1.5-0.7-2.8-1.4-4.1-2.1c-1.3-0.7-2.6-1.3-3.7-2c-2.3-1.3-4.3-2.7-6.1-4.1
						c3.6-1.8,4.3-0.8,5.1,0.1c0.7,0.9,1.5,1.7,5.3-0.2c-4.9-2.3-11.9-1.1-12.1-5.3c0.5-1.4,3.4-1.2,4.8-1.6
						c-2.5-0.9-3.3-2.7-4.2-4.3c-0.5-0.8-0.9-1.6-1.6-2.2c-0.8-0.6-1.7-1-3.2-1.2c0.6-0.4,1.5-0.5,2.3-0.6c-0.6-0.4,0.1-2-3,0.1
						l1.2,0c-1.9,1.9-4.7,2.9-7.2,3.6c-2.5,0.7-4.8,1.2-6,1.9c9.4-5,0.4-4.2,12.3-10.4c-0.8,0-2.6,0.5-4.5,2.1c0.2-1,1.3-2,3.9-3
						c-3.1-0.9-5.7,2.2-7,0.4c1.4-1.1,2.3-1.1,4.1-2.2c-3.5,1.2-7,2.4-6.9,0.1c0.9-0.6,1.9-1.6,2.2-1.2c-1.2-1.1-3.9-0.7-6.1-0.6
						c-2.3,0.1-4.2,0-4.1-2.4c6.5-4.4,1.1-2.6,6-7.2l-2.8-0.1l-1.9,2.8c-1-1.3-5.5,1-4.9-1.5l2.9-1.1l-3.1-1.3l-0.6,3
						c-3.6,1.3-5.9,6.1-6.1,3.4c0.8-0.2-1-1.1,1.1-4.6c0,0,0,0,0,0c-2,1-4.1,2.1-3.8,0.1c1.2-1.8,5.2-5.3,6-6.5
						c-4.3,3.6-3.9-1.3-8.6,2.6c1.2-0.9,3.5-3.5,3.9-4.1l-3.5,3.1c0.4-1.6,0.8-2.2,2.7-4.3c-1.2-2.1-4.9,7-4.6,2.5
						c0.4-0.2,0.8-0.7,1.5-1c-0.2-0.8-0.7-1.3-1.2-1.6c-0.6-0.3-1.3-0.4-2-0.5c-1.4-0.2-2.8-0.4-3.1-2.1c3.5-5.9,2.7,0,5.5-5.1
						c-1.8-0.6-4.5-0.2-7,0.2c-2.5,0.4-4.7,0.5-5.6-1.1l0.1,1c-2.8,3.9-2.7,2.6-2.3,0.6c0.3-2,0.8-4.5-1.1-3
						c0.7-0.4,3.3-4.2,2.6-3.4c-0.6-1.3-2-1.4-3.7-1.1c-1.8,0.3-3.9,1-6.1,1.5l1.6-2c-0.2-2.6-2.6-2.8-3.4-4.5
						c-1.5,2-2.1,1.2-3.2,4.7c1.1-7.3-1.8-6.5-4.6-5.4c-2.8,1-5.5,2.6-5.2-3.5c0.5,0.2,1.9-1.5,1.5-1.7l-4.1,0.8
						c-1.3,4-0.5,2.5-1.1,5.8c-1.3,2.1-2.9,3.5-3.6,3.3c2.4-2,2.4-6.2,2.6-8.6c-0.4,1.2-1.1,2.5-1.5,3.7c1-7.5-3.2,7.7-3.7,2.3
						l0.9-2c-1.2,0.7-2.9,3.2-3.6,2.3c1.2-4.7,1.6-1.8,3-5.5c-1.4-0.2-5.5,7.8-5.1,2.8c1-1.1,1.7-0.9,2.7-2c0.5-5.8-0.1-4.5-0.8-5.6
						l0.1,0.2l-1.5-3.2l0.1,1.7c-2.7,5.7-3.7,6-4.6,5.8c-0.9-0.2-1.7-1-3.9,2.7c4.2-6.9,1.6-4.2,3.2-9.4c-0.2-1.6-0.6-3.5,0.1-4.9
						c-2.2,3.9-0.9-3.9-4.1,2c0.4-1.7-1.1-0.5,0.2-4.7c-1.8,1-0.4,3.1-1.1,5.2c-1.8,2.6-2.6,0.6-3.7-1.3c-1-1.8-2.4-3.4-4.8,0.3
						c-3.4,2.8-5,8.5-7.8,11c-0.2-1.5,0.3-3,0.8-4.2c0.5-1.2,1-2,1-2c-0.9-2.8-2-2.5-3.6-0.7c0.5-1.5,0.4-2.8,0.3-4.8
						c-1.1,0.3-1.6,6.2-2.6,3.5c0.5-1.9,1.2-5,2-6.8c-1.5,1.4-3.1,4.5-4.6,5.9c0-3.1,1.3-4.5,2.1-6.4c-1.6,1.2-4.1,2.3-5.1,7.1
						l0.7,1.8c-0.5,0.2,0.2-4.2,0.7-5c1.7-3.6,1.6,1.9,1.4,3.6l-1,1c-0.1,5.2,0.7,4.9,1.9,3.4c1.2-1.5,2.7-4.2,3.5-3.7l-1.8,7.3
						c0.9-2,1.8-3.9,2.7-5.9c0.1,2-0.3,6.2-1.3,7.1c0.6,3.9,1.5-2.5,1.9,1.8c0,0.7-0.1,1-0.3,1.3l1.5-2c-0.5,1.5-0.7,5.3-1.2,4.1
						c0.6,2.3,1.7,1.1,2.6,0c0.9-1.1,1.6-2,1.5,0.8l-0.3,0.4c1.7-1,2-2.3,2.4-4.1c0.4-1.8,0.7-4.2,2.5-7.1
						c-0.4,4.5-0.9,9.1-1.4,13.6l1.5-5.3c0.3,0.3,0.7,0.8,0.1,2.9c1.9-3.4,0.3-2.4,1.8-5.7c0.2,2.6,1.3,2.3,2.1,2.4
						c0.9,0.1,1.5,0.6,0.6,4.9c1.6-3.9-0.6-3.5,1.7-5.9c-2,9.2,2.2-1.1,2.3,3.5c-1.7,4.6-2.2,1.8-2.1,6.3c1.5-3.9,2-3.2,2.3-1.8
						c0.3,1.4,0.4,3.6,1.1,3c2-6.3,3.1-1.9,5.5-3.4c-0.4,1,0.1,2.2,0.9,3.4c0.7,1.2,1.6,2.6,2,4l-0.4,1c2.6-6.1,3.8-4.3,5.5-5.1
						c-1.5,3.7-2.3,5-3.5,6.5c0.4,0.1,0.7,0.2,1.1,0.4c1-1.9,1.8-2.8,2.8-3.2l-2.1,4.5c1.5,0.3,5.2-4.2,5.7-0.3
						c2-4.2,3.6-12.5,7-14.3c-0.9,2.3-2.6,6.2-3.6,6.9c0.3-0.2,1.5-1.6,1.4-0.5l-2.5,3.5c0.1,2.1,1.9-3,2.4-2.3
						c-1.5,3.2-0.5,2.6-1.8,5.1c-0.3,0.2,0-1.6-0.8-0.5c0.5,0.9,0.5,3.3-0.3,5.9c0.8-1.9,2-4.3,2.8-4.5c1.6,0.4-1.4,4.1-1.3,6.1
						c1.4-2.1,1.2,0.7,3.6-4.1c0.4,0.2-0.6,2.5-1.1,3.9c1.8-1.7,3.6,1.1,5.5-4.3l0-0.4c0.1-0.1,0.1-0.1,0.2-0.1c0,0,0,0,0,0l0,0
						c2.4-1.7,3.4-0.4,4.1,1.3c0.7,1.7,1.1,3.7,2.8,3.4l-0.9,1.5c2.5-1,3.6,0.9,6.7-1.7c0.4,0.3-0.9,3.3-2.2,5c1.7-0.4,3-2,2.8,1.4
						c-2.8,1.9-1.2,2.5-2.3,1.2c0.2,1.1,0,2.2,0.2,2.7c0.2,0.5,0.9,0.4,3-1.1c-3.1,3.4-2.5,5.3-1.1,4.6l1.1-3.2
						c1.1,0,1.4,0.7,1.7,1.5l-4,4.5c-1,3.8,1.9,2.1,4.4,1c2.5-1.1,4.7-1.7,1.6,3.6c3.4-2.6,0.7-3.3,4.4-6.5c0.6,1.6-4,8.9-3.8,9.2
						c-1,3.7,7.2-5.2,7.1-2.1c1.3-1.7,5.1-6,7.7-6.3c0.6,1.7-5.1,7.6-6.9,8.2c-0.4-0.1,0-0.7,0.5-1.2c-0.9,0.2-2,0.5-3.2,2.5
						l1.6-1.4c-1,2,0.5,3.2-2.4,5.3c2.1-0.7,2.9-2.1,3.1-3.4c-1,3.4,1.8,2.1,1.5,4.9c0.7-1,2.4-2.9,2.6-2.7c-0.2,3.8,3.8-1.8,5.9-1
						c-1.8,2.9-6.1,4.7-2.9,4.4c-1,2.3-4.2,3.8-5.8,4.6c2.1-0.7,2,0.4,1.4,1.7c-0.6,1.3-1.8,2.9-1.8,3.5l-1.9,0.4
						c1.1-0.3,1.3,0.1,1.6,0.4l3.1-3c-0.3,0.8,0,1.2-1.5,2.2c2.6-1.3,5.4-4.6,9.1-6.1c-0.7,0.9,0.1,1,0.6,1.3
						c0.4,0.3,0.4,0.8-1.8,2.6c0.2-1.5-1-0.6-2.3,0.6c-1.4,1.1-3,2.5-3.9,2.1c0.7-0.1,1,0.2,0.7,1c-0.5,0.4-1,0.6-1.3,0.7
						c-3.1,4.5,5.7-3,6.8-1.2c-2.8,1.6-4.7,3.8-4,3.7c-0.4-0.7,4.2-3.3,6.7-4c-1.3,2.5,2.4,0.2,2.6,1l0.5-1.3
						c2.8-1.5,2.9-0.7,4.3-0.4c-2.1,1.4-2,0.2-2.7,1c2.7-1.1,1.8,0.3,0.7,1.8c-1.1,1.5-2.4,3.1-0.4,2.8c-1.5,1.7-5.2,3.1-6.1,4.4
						c4.4-0.7-3,3.6,0.9,3.4c3.5-2.5,2.6-2.1,6.9-3c-1.4-0.4-2.7-0.7-4.1-1c2.1-0.5,4.3-1,6.4-1.4c-0.4-0.8-3.3-0.3-2.9-1.1
						c3.5-1,2.5-0.5,5.4-2.6c-2.5,2.1-1.4,2.2,0,2.2c1.4,0,3-0.1,1.4,1.6l-9.4,4.9c-1.7,2-0.1,2.2,1.8,2.3c1.9,0.2,4.1,0.3,3.4,2.1
						l1.3-1.6c4-1.5,1.3,1.3,3.2,1.4c-3.3,1.4-4.2,2.4-6.1,3.6c2.4-1.1,0.5,1.9,7.1-0.6l-3.9,2.9c-1,2.7,10.4-1.3,10.1,1.2
						c-3.9,0.7-5.9,2.5-9,2.1c0.2,0.7-0.2,1.5,2.2,0.6c-1.9,1.1,5.1,0.3,2.2,2c1.6-0.2,5.1-1.3,5.1-0.4c-0.7,0.3-1.7,0.5-1.7,0.5
						c1.7-0.6,2.7,0.5,6.2-1.4c-4.9,2.8-4.3,4.3-3.4,5.7c0.4,0.7,0.9,1.4,0.7,2.1c-0.2,0.8-1.1,1.7-3.3,2.8c1.5,1.2,3.1,2.9,3.7,4.2
						c-1.1,0.1-1.7,0.4-1.4,0c-2.8,2.7,10.3-1,7.2,2.1c-5.4,2.3-3.3-0.6-5.3,0.6c-5.7,1.4-5.1,1.9-4,2.6c1.1,0.6,2.9,1.3-0.3,2.7
						l-0.7-0.2c-3.7,1.8,4.8,2,4.4,4.1c0,0-1,0.1-1.7,0.3c3.1,0.2,5.2,0.8,6.8,1.6c1.6,0.8,2.6,1.8,3.5,2.7c-4.6,0-2.5-0.6-7.1,0.4
						c0.7,0.8,7.4-1.2,8.9,0.4c-2.4,0.9-4.5,2.4-9.4,3.1l-0.4-1.5c-6.3,1.6,0.4,2-0.6,2.9l-2.8,0.2c1.2,2.2,8.2,1.6,8,4.3l2.1-0.4
						c3.6,0.4,2.6,0.8,1.4,1.2c-1.2,0.4-2.6,0.8,0,1.4l-7.1,0.9c1.8,0.8,7,2.9,8.4,4.6c-5.3-0.8-8.1-2.6-11.3-3.6
						c0,0.9,0.7,3.1,4.2,3.4c-0.7-0.3-2.5-0.7-1.4-1.2c5.6,0.9,8.5,2.3,8.4,4.3c-6.9,0.1-7.7,1.3-8.1,2.7c-0.5,1.4-0.6,3.1-6,3.7
						c2.5,1.6,2,3.2,0.9,4.8c-0.5,0.8-1.2,1.6-1.7,2.5c-0.5,0.8-0.8,1.7-0.7,2.6c10.8-0.8,0.2,1.1,11.2,1.4c0.6,0.9,0.4,1.3-0.3,1.3
						c-2.3,0.8-4.5,1.5-6.8,2.2c-3.2,0.4-2.4-1-4.8-1.1c-1,1.8-4.7,0.4-7.7,1.4c3.9,0.1,5.6,1.1,4,2l5.2-1c2.8,1.6,0.5,1.9-1.9,2.3
						c-2.4,0.3-4.7,0.6-1.9,2.2l-3.4-1.2c1.9,1.5-0.7,4.6,7.9,7.2c-1.3,0.1-4.3-0.1-5-0.8c-0.9,1.4,1.2,3.5,2.8,5.5
						c1.5,1.9,2.4,3.8-0.5,4.5l-2.6-0.8c0.6,0.7,4.7,2.1,1.9,2.2c-1.1-0.3-2.6-0.8-2.8-0.6c0.8,0.5,4.3,2.6,2.6,3l-2.8-1.4
						c-1,0.5-1.1,1.2-0.7,1.9c0.4,0.7,1.3,1.5,2.3,2.4c2.1,1.7,4.9,3.6,5.4,5.2c-7.6-2.2-10.7-0.7-12.3-0.1l-1.1-0.4
						c-0.4,0.7-0.5,1.5-0.1,2.4c0.3,0.9,1,1.9,1.7,2.9c1.5,2.1,3.5,4.4,4.4,6.6c-4.3-0.7-5.9,0.4-7.1,1.9c-0.6,0.7-1.1,1.5-1.7,2.2
						c-0.7,0.7-1.6,1.2-3,1.3c1.5,0.3,5.4,2.9,5.9,3.8c-1.8-0.1,3.8,4.5-2.5,0.9l0.3-0.2c-6.5-3-5.6-0.8-6.3,0.1l8.1,5
						c-1.7-0.5-2.9-0.8-3.9-0.8c-1-0.1-1.6,0.1-2,0.4c-0.8,0.6-0.8,1.7-0.7,2.9c0.1,1.2,0.2,2.4-0.4,2.9c-0.3,0.3-0.8,0.4-1.5,0.2
						c-0.8-0.2-1.8-0.6-3.2-1.3c1.5,2,0.9,2.7,2.3,4.7l-4-3.1c-1.1,0.4-2,0.7-2.6,1.2c-0.6,0.5-1,1.3-1.4,2.6l-2.4-2.7
						c-1.1,0.8,9.9,10.9,9.2,12.3l-5.9-4.8c-0.4,0.5-1.1,0.7-1.9,0.8c-0.4,0.1-0.8,0.1-1.2,0.2c-0.4,0-0.8,0.1-1.2,0.2
						c-1.5,0.3-2.3,1.2-0.8,4.6c-0.7-0.8-2.2-2.5-2.1-3c-0.5,0.3-2.2,0.2-2.8,0.8c-0.6,0.6-0.3,2.1,3.3,5.9
						c-4.5-5.1-2.4,1.2-1.6,4.5l-3-4c1.6,2.8,2.7,4.6,3.3,6c0.6,1.4,0.9,2.4,0.7,3.6c-0.7-0.3-2.8-2.9-1.5-2.3
						c-2.7-1.3,2.1,4.4-0.9,3.3l-1.4-2.9c-1.3,0.5-0.2,1.8,1.4,5.3c0.4,2.2-2.9,0.7-5.7-3c1.4,2.4,2.9,5.9,1.4,5.2
						c-1.1-1.4-1.4-2.4-1.6-2.9c-1.9-0.8-1.8,0.9-1.8,2.4c0,1.5,0,2.8-2,1.2c-0.9-1.4-1.4-2-1.8-2.4c1.6-0.9,3-1.5,3.1-1.1
						c-2.6-3.9-4.2-3.8-6.7-9.7c0.5,1.8,1.4,4.5,1.8,6.7c0.4,2.2,0.3,3.8-0.8,3.2c-0.3-0.3-0.6-0.7-1-1.3l-0.1-0.5
						c-0.5-0.2-0.5,0.3-0.4,1.1c-0.8-0.4-1.3-0.8-1.7-0.6c-2.1-3.2-2.4-1-3.1-0.8c2.5,4.4,1.3,4.2,4.1,7.4c-0.3-0.3-0.2-0.6,0.2-1
						c0-0.2,0.1-0.3,0-0.6c0.1,0.1,0.1,0.3,0.2,0.4c0.4-0.4,0.8-0.8,1.4-1.2c0.8,2.5,1.3,4.7-0.8,2.7c1.3,3,2.5,6.2,3,7.7
						c-4.4-5.7-7.9-8.1-10.2-11.9c-0.3,1.8-1.3,2.8-1.8,4.5c-0.5,1.7-0.7,4.1,0.6,8.7c-0.1,1.4-1.8-2.2-2.7-3.4c0-1,0.4-1.1,0-2.4
						c-0.2,2.8-3.1,2.5-0.8,8.7c-2.8-2.1-1.5-6-3.2-4.1l-0.5-2c-4.1-4.1-4.1,0.6-4.6,4.8c-0.2,2.1-0.5,4.2-1.4,5.1
						c-0.4,0.4-1,0.5-1.7,0.2c-0.7-0.4-1.7-1.2-2.8-2.6c0.6,0.7,0.9,1,1.3,2c-1.9-1-3.4-0.9-4.8-0.4c-1.4,0.5-2.7,1.5-4,2.4
						c-1.3,0.9-2.7,1.6-4.3,1.6c-1.5,0-3.2-0.6-5.1-2.7c-2-1.5-1.3,2.7-1.6,6l-1.4-5.3c-0.1,2.2-0.3,4.3-0.5,6.5
						c-0.8,2.5-2.5-0.6-4.1-3.2c-1.6-2.6-3.1-4.7-4-0.2l0.9,3.6c-1.2-0.5-3.3,2.6-3.6-1.6c0,0.7,0.1,3.8-0.6,2l-0.4-2.8
						c-0.7,1.7-1.4,3.4-2.2,5.2c-1.2-0.9-1.3-3.8-1.6-6.4c-0.3-2.6-0.7-5-2.1-5.2c-0.5,0.6-1.1,2.7-1.4,4.9
						c-0.1,0.6-0.2,1.1-0.3,1.6c-0.1,0.5-0.1,1.1-0.1,1.5c-0.1,1-0.1,1.8,0,2.2c0.1,0,0.2,0.2,0.3,0.4c0.1,0.2,0.3,0.5,0.4,0.9
						c0.3,0.8,0.5,1.9,0.6,3.3l-1,1.5c0.1,4.2-0.1,8.5,0.1,12.4c0.1,2,0.4,3.8,0.9,5.6c0.4,1.7,1.1,3.3,2.1,4.8
						c0.7-1.8,1.3-3.5,1.9-5.3l1,4c-0.6,0.1-1.2,0.3-1.9,0.4c1.4,3.7,1.8,0.3,2.3-2.1c0.4,2.1,0.8,3.6,1.3,4.4
						c0.5-2.7,0.9-5.5,1.3-8.2c0.6,3.2-0.2,6.6,1.4,8.2c0.6-3.8-1.8-7.2-0.4-9.8c1.4,3.7,1.6,6.8,2.3,3.4c0.4,2.1,0.4,3.5,0,4.5
						c0.7-2.7,2.7-1.5,2.6-6c1.7,4.5,3.3-1.8,4.5,6.1c0-1.9,0.8-6.4,1.7-6.9c-0.1,9.7,3.6-0.1,5.1,10c-0.1-4.3,0.8-5.5,2-6.2
						c1.2-0.7,2.6-1,3.2-3.6c0,0.7,0.1,2.1-0.2,1.7c1.4,0.4,2.4,2.8,3.6,4.2c-1.5-6.9,0.1-9,0-13.4c3.2,6.2,1.1,8.3,3.2,14.5
						c-1.5-5.5,1.3-6.2-0.5-10.7c2.3,3.7,1.5,1.7,3.7,7.2c-2.2-8.6,0.7-1.8,0.2-7.3c2.9,3.7,2.8,7.8,3.9,4.7
						c0.8,1.2,1.1,2.6,1.1,3.8C535.9,668.8,535.7,669.7,535.7,669.7z M572.7,636.9C572.7,637,572.7,637,572.7,636.9
						c-0.2,0.4-0.5,0.6-0.6,0.8C572.2,637.6,572.4,637.4,572.7,636.9z M575.9,634.8c-0.5,0.1-1,0.4-1.5,0.8c-1-1.4-1.9-3-1.5-3.1
						C573.3,633.6,574.6,633.9,575.9,634.8z M551.5,608.5c0-0.9,0.7-0.1,1.3,0.8c-0.2,0.2-0.3,0.5-0.4,1c0.1,0.1,0.2,0.4,0.3,0.6
						C552.2,610,551.8,609.2,551.5,608.5z"/>
					<path class="st4" d="M554,614.8c0,0.1,0.1,0.3,0,0.4c0.3,0.3,0.6,0.6,0.8,0.8c-0.2-0.5-0.4-1-0.6-1.5
						C554.2,614.6,554.1,614.7,554,614.8z"/>
					<path class="st4" d="M552.4,368.4l0,0.1c0-0.2,0.1-0.4,0.2-0.7C552.5,368.1,552.5,368.2,552.4,368.4z"/>
					<polygon class="st4" points="622.6,604.1 621.5,603.4 622.2,604.3 					"/>
					<path class="st4" d="M541.9,344.5c0.1-0.4,0.2-0.9,0.2-1.3C542,343.5,541.9,344,541.9,344.5z"/>
					<path class="st4" d="M533.9,340.5l-0.6-2.1C533.4,339.6,533.7,340.1,533.9,340.5z"/>
					<path class="st4" d="M528,336.1c-0.3,0.8-0.5,1.5-0.7,2.1c0,0,0,0,0,0L528,336.1z"/>
					<path class="st4" d="M622.1,396.4c0.1,0.1,0.2,0.1,0.4,0.1C623.6,396.5,623.1,396.3,622.1,396.4z"/>
					<path class="st4" d="M591.7,378.1c0.9-0.4,1.7-0.8,2.4-1C593.9,376.4,593.7,376,591.7,378.1z"/>
					<path class="st4" d="M644.6,429.1C644.5,429.1,644.6,429.1,644.6,429.1c0,0.1,0,0.2,0,0.3L644.6,429.1z"/>
					<path class="st4" d="M595.1,378.2c0.3-1.1-0.2-1.3-1-1.1C594.2,377.6,594.2,378.4,595.1,378.2z"/>
					<path class="st4" d="M498.8,327.9l-0.3-0.2c0,0.3-0.1,0.6-0.1,0.8L498.8,327.9z"/>
					<path class="st4" d="M498.4,328.5l-0.4,0.6C498.1,329,498.3,329,498.4,328.5z"/>
					<path class="st4" d="M497,330.2l0.9-1.2C497.7,329,497.3,328.8,497,330.2z"/>
					<path class="st4" d="M507.7,331.5l0.4-1.8C508,330.1,507.9,330.7,507.7,331.5z"/>
					<path class="st4" d="M510.5,331.5c-0.6-0.5-1-4.2-2.1-3.2l-0.3,1.4C509,327.1,509.4,334.4,510.5,331.5z"/>
					<path class="st4" d="M516.5,356l-1.7-1.9c-0.1,2-0.3,4.7-1.3,4.9C514.6,365.3,514,354.6,516.5,356z"/>
					<path class="st4" d="M521.8,360.4c-1.3,0.6-0.8,2.7-1.1,3.8C521.8,362.6,522.1,362.3,521.8,360.4z"/>
					<path class="st4" d="M562.4,379.1l-2.7,3.8C560.8,382.8,560.8,381.4,562.4,379.1z"/>
					<polygon class="st4" points="583.9,365.3 584.9,362.4 582,365.5 					"/>
					<polygon class="st4" points="567.4,394.2 566.7,394.4 568.7,394 					"/>
					<path class="st4" d="M605,451.5l5.4-1.8C609.3,449.5,603.1,451.1,605,451.5z"/>
					<path class="st4" d="M616.1,482.1c-1.4,0.3-2.5,0.7-2.9,1.1c-0.4,0.4-0.2,0.7,1.2,0.9C614.7,483.3,616.9,482.4,616.1,482.1z"/>
					<path class="st4" d="M589.9,571.1l-1.3-1.5c0.3,0.6,0.5,1.2,0.8,1.7L589.9,571.1z"/>
				</g>
			</g>
		</g>
	</g>
</g>
<g id="Layer_1">
	<g>
		<radialGradient id="SVGID_1_" cx="483.5" cy="499.5" r="140.5182" gradientUnits="userSpaceOnUse">
			<stop  offset="0.7956" style="stop-color:#000000"/>
			<stop  offset="0.8316" style="stop-color:#030200"/>
			<stop  offset="0.8585" style="stop-color:#0D0801"/>
			<stop  offset="0.8826" style="stop-color:#1D1202"/>
			<stop  offset="0.905" style="stop-color:#342004"/>
			<stop  offset="0.9262" style="stop-color:#513307"/>
			<stop  offset="0.9465" style="stop-color:#754A0A"/>
			<stop  offset="0.9661" style="stop-color:#A0650D"/>
			<stop  offset="0.9847" style="stop-color:#D18311"/>
			<stop  offset="1" style="stop-color:#FFA015"/>
		</radialGradient>
		<circle class="st5" cx="483.5" cy="499.5" r="140.5"/>
	</g>
	<circle cx="483.5" cy="500.5" r="121.5"/>
</g>
</svg>
