<svg id="Layer_6" data-name="Layer 6" xmlns="http://www.w3.org/2000/svg" viewBox="0 0 436 414.59"><defs><style>.cls-1{fill:#f7e143;}.cls-2{fill:#edb52b;}.cls-3{fill:#bc8e28;}</style></defs><title>Maankaas bovenste layer</title><ellipse class="cls-1" cx="218" cy="207.29" rx="218" ry="207.29"/><path class="cls-2" d="M659,455c0-32.86-3.52-69-35-69s-55,19-73,65c-12,30.6,14.52,60,46,60S659,487.86,659,455Z" transform="translate(-277 -293.71)"/><path class="cls-2" d="M471,330.5c0-11.87-11.64-21.5-26-21.5s-26,32.13-26,44,24.44,13.52,36,5C474,344,471,342.37,471,330.5Z" transform="translate(-277 -293.71)"/><path class="cls-2" d="M688,521c5-8,1.43-18.34-3.49-21.42S670,496,665,504s-3.43,21.34,1.49,24.42S683,529,688,521Z" transform="translate(-277 -293.71)"/><path class="cls-2" d="M378,514c-7.4-10.66-6.56-29.14,1.61-34.81s17,1.15,24.39,11.81,15,13,8,28C407.8,528,385.4,524.66,378,514Z" transform="translate(-277 -293.71)"/><path class="cls-2" d="M342,603c8,26,23.45,31,42.5,31S434,618,419,594c-6.29-10.07-48.95-55-68-55S338.51,591.65,342,603Z" transform="translate(-277 -293.71)"/><path class="cls-2" d="M667,581.5c0-17.4-10.75-31.5-24-31.5s-34,14.6-34,32,12.75,31,26,31S667,598.9,667,581.5Z" transform="translate(-277 -293.71)"/><path class="cls-2" d="M520,649.5c0-8.56,8.34-10.5,18-10.5s17,1.94,17,10.5S547.16,665,537.5,665,520,658.06,520,649.5Z" transform="translate(-277 -293.71)"/><circle class="cls-2" cx="236" cy="383.29" r="7"/><g id="Layer_5" data-name="Layer 5"><path class="cls-3" d="M422.85,609s-74.79,26.77-79.32-66.13c0,0-12.53,11.11,0,64.59,0,0,7.14,29.52,42.8,26.52C386.33,634,417.69,631.05,422.85,609Z" transform="translate(-277 -293.71)"/></g><path class="cls-3" d="M414.61,511s-30.8,10.89-39.71-25.56c0,0-7.74,25.87,12.18,35.72C387.08,521.16,412.23,532,414.61,511Z" transform="translate(-277 -293.71)"/><path class="cls-3" d="M548.87,458.19S651,519,641,390.85h0S661,401,659,455s-62,56-62,56-54.25-2.63-48.13-52.81" transform="translate(-277 -293.71)"/><path class="cls-3" d="M617.71,604.77s37.19,9.75,47.24-36c0,0,5.95,18.14-3,28.19,0,0-13.71,18.27-30.83,15.66C631.12,612.61,624.41,611.54,617.71,604.77Z" transform="translate(-277 -293.71)"/><path class="cls-3" d="M669.87,499.28s-12.77,33.42,17.18,23.07c0,0-9.6,12-22.32,4.34C664.73,526.69,655.75,511.56,669.87,499.28Z" transform="translate(-277 -293.71)"/><path class="cls-3" d="M520.23,652s19.86,14,34.31,1c0,0-2.35,10-14.94,12C539.6,665,524.46,666,520.23,652Z" transform="translate(-277 -293.71)"/><path class="cls-3" d="M506.53,674.33s4.3,7.72,13.39,3.7c0,0-1.57,6.77-9.74,5.37C510.18,683.4,505.06,681.66,506.53,674.33Z" transform="translate(-277 -293.71)"/><path class="cls-3" d="M437.55,311.83s-4.94,28.78.45,34.17c5,5,13.71,9.2,28.86,2.1,0,0-22.33,24.93-45.09,10.92,0,0-6.57-1.67.83-22.84C422.6,336.18,428.09,318.66,437.55,311.83Z" transform="translate(-277 -293.71)"/></svg>