<svg id="Layer_2" data-name="Layer 2" xmlns="http://www.w3.org/2000/svg" viewBox="0 0 480.22 476.51"><defs><style>.cls-1{fill:#f7e143;}</style></defs><title>Maankaas onderste layer</title><path class="cls-1" d="M277.77,420.77S291,414,292,395c-10.43-39.08,66.9-56.83,81-73,0,0,9.21-33.54,24.11-32.27,0,0,57.89-35.73,82.89-32.73,10.22,1.23,30-10,35-7,0,0,36,11,53,23,0,0,44,4,58,14s18.6,40.94,18.6,40.94,9.61,7.77,20.29,18.32a20.64,20.64,0,0,1,4.52,22.39C666,377.29,686,375,697,396c16.57,31.63,7.42,22.24,13,37,0,0,7.88,37.92,7.94,41S739,494,734,525s-20,42-20,50-2,44-12,55c-8,8.79-39,38.66-51.1,50.3a32.32,32.32,0,0,1-11.26,7L597,703s-33.94,7.14-65,7c-22.83-.11-19,11-47,16,0,0-27-1-35.5-7,0,0-30.5,6-41.5-1s-16.54-18.43-16.54-18.43S346,691,328,677s-12-20-23-28-47-40-50-76,10-81,10-81-9-21-10-34S269.53,428.53,277.77,420.77Z" transform="translate(-254.55 -249.49)"/></svg>