<svg xmlns="http://www.w3.org/2000/svg" xmlns:xlink="http://www.w3.org/1999/xlink" viewBox="0 0 1069.59 970.06"><defs><style>.cls-1,.cls-19,.cls-8{fill:none;}.cls-2{fill:#9b9b9b;}.cls-3{fill:#7f7f7f;}.cls-4{fill:#353535;}.cls-5{fill:#fff;}.cls-11,.cls-6{opacity:0.2;}.cls-7{clip-path:url(#clip-path);}.cls-8{stroke:#b7b7b7;}.cls-19,.cls-8{stroke-width:4px;}.cls-9{fill:#5b5b5b;}.cls-10{fill:#b2b2b2;}.cls-11{fill:#191919;}.cls-12{fill:#666;stroke:#6d6d6d;stroke-miterlimit:10;stroke-width:5px;}.cls-13{fill:#d8a830;}.cls-14{fill:#f7e143;}.cls-15{fill:#edb52b;}.cls-16{fill:#bc8e28;}.cls-17{fill:#a9f4fc;}.cls-18{clip-path:url(#clip-path-2);}.cls-19{stroke:#9b9b9b;}.cls-20{fill:#4d634d;}</style><clipPath id="clip-path" transform="translate(-50.64 -77)"><path class="cls-1" d="M381.11,873c-10,0,0-353.69,297.1-353.69S968.23,873,968.23,873Z"/></clipPath><clipPath id="clip-path-2" transform="translate(-50.64 -77)"><path class="cls-1" d="M435.46,892.79c-7,0,0-249,209.16-249s204.18,249,204.18,249Z"/></clipPath></defs><title>Kaasfabriek lvl 3</title><g id="Layer_1" data-name="Layer 1"><path class="cls-2" d="M50.64,473.59a98.24,98.24,0,0,1,98.24-98.25h661.8a98.25,98.25,0,0,1,98.25,98.25s-.79,385.13,0,385.13H50.64Z" transform="translate(-50.64 -77)"/><polygon class="cls-3" points="203.71 298.34 202.78 138 282.95 138 282.95 298.34 203.71 298.34"/><polygon class="cls-3" points="569.67 298.34 568.26 10.84 690.88 10.84 690.88 298.34 569.67 298.34"/><path class="cls-4" d="M350.09,216.18c0,4.56-25.33,8.26-56.59,8.26s-56.59-3.7-56.59-8.26,25.34-3.53,56.59-3.53S350.09,211.62,350.09,216.18Z" transform="translate(-50.64 -77)"/><path class="cls-4" d="M762.73,82.38c0,6.74-37.47,12.2-83.7,12.2s-83.71-5.46-83.71-12.2S632.8,77.14,679,77.14,762.73,75.63,762.73,82.38Z" transform="translate(-50.64 -77)"/><path class="cls-5" d="M381.11,873c-10,0,0-353.69,297.1-353.69S968.23,873,968.23,873Z" transform="translate(-50.64 -77)"/><path class="cls-6" d="M51,804s.42,22,68.8,22l.38,32.72L51,859Z" transform="translate(-50.64 -77)"/><path class="cls-6" d="M334,827.5h47.38s-4.76,23.94-1.59,31.22L334,859Z" transform="translate(-50.64 -77)"/><g class="cls-7"><polygon class="cls-8" points="344.52 753.43 258.34 771.39 230.81 855 289.45 920.65 375.63 902.69 403.17 819.08 344.52 753.43"/><polygon class="cls-8" points="490.51 800.64 404.33 818.6 376.8 902.21 435.44 967.87 521.62 949.9 549.15 866.29 490.51 800.64"/><polygon class="cls-8" points="459.27 650.77 373.09 668.73 345.56 752.35 404.2 818 490.38 800.04 517.92 716.42 459.27 650.77"/><polygon class="cls-8" points="313.23 603.26 227.05 621.22 199.51 704.84 258.16 770.49 344.34 752.53 371.87 668.91 313.23 603.26"/><polygon class="cls-8" points="602.59 699.64 516.41 717.6 488.87 801.22 547.52 866.87 633.7 848.91 661.23 765.29 602.59 699.64"/><polygon class="cls-8" points="573.06 549.11 486.88 567.07 459.35 650.68 517.99 716.33 604.17 698.37 631.71 614.76 573.06 549.11"/><polygon class="cls-8" points="428.42 502.73 342.24 520.7 314.71 604.31 373.35 669.96 459.53 652 487.06 568.39 428.42 502.73"/><polygon class="cls-8" points="541.85 399.35 455.67 417.31 428.14 500.93 486.78 566.58 572.96 548.62 600.5 465 541.85 399.35"/><polygon class="cls-8" points="685.17 449.22 598.99 467.18 571.46 550.8 630.1 616.45 716.28 598.49 743.82 514.88 685.17 449.22"/><polygon class="cls-8" points="717.09 597.96 630.91 615.92 603.37 699.54 662.02 765.19 748.2 747.23 775.73 663.62 717.09 597.96"/><polygon class="cls-8" points="748.14 746.94 661.96 764.9 634.42 848.52 693.07 914.17 779.25 896.21 806.78 812.6 748.14 746.94"/><polygon class="cls-8" points="862.96 645.38 776.78 663.34 749.24 746.95 807.89 812.6 894.07 794.64 921.6 711.03 862.96 645.38"/><polygon class="cls-8" points="1008.69 692.88 922.51 710.85 894.97 794.46 953.62 860.11 1039.8 842.15 1067.33 758.54 1008.69 692.88"/><polygon class="cls-8" points="831.66 495.21 745.48 513.17 717.95 596.78 776.59 662.44 862.77 644.48 890.3 560.86 831.66 495.21"/><polygon class="cls-8" points="977.4 542.78 891.23 560.74 863.69 644.36 922.34 710.01 1008.51 692.05 1036.05 608.44 977.4 542.78"/><polygon class="cls-8" points="797.01 346.17 710.83 364.13 683.29 447.75 741.94 513.4 828.12 495.44 855.65 411.83 797.01 346.17"/></g><rect class="cls-4" x="68.38" y="350.22" width="143.83" height="58.95" rx="10.5" ry="10.5"/><rect class="cls-4" x="264.09" y="350.22" width="143.83" height="58.95" rx="10.5" ry="10.5"/><rect class="cls-4" x="462.16" y="350.22" width="143.83" height="58.95" rx="10.5" ry="10.5"/><rect class="cls-4" x="660.22" y="350.22" width="143.83" height="58.95" rx="10.5" ry="10.5"/><path class="cls-1" d="M542.23,553.37" transform="translate(-50.64 -77)"/><path class="cls-9" d="M119,837.75" transform="translate(-50.64 -77)"/><path class="cls-9" d="M119.8,826" transform="translate(-50.64 -77)"/><polygon class="cls-9" points="69.05 760.75 283.4 760.75 283.4 768.83 69.1 768.83 69.05 760.75"/><polygon class="cls-9" points="68.8 738 283.15 738 283.15 746.08 68.85 746.08 68.8 738"/><polygon class="cls-9" points="68.72 714.04 283.06 714.04 283.06 722.13 68.76 722.13 68.72 714.04"/><polygon class="cls-9" points="68.58 691.29 283.4 691.29 283.4 699.38 68.63 699.38 68.58 691.29"/><rect class="cls-9" x="68.58" y="668.13" width="214.82" height="8.08"/><polygon class="cls-9" points="68.3 645.38 283.4 645.38 283.4 653.46 68.35 653.46 68.3 645.38"/><path class="cls-9" d="M124.72,699h204c2,1.27,3.94,8.52,3.94,8.52l-211.78-.43S123.33,700.81,124.72,699Z" transform="translate(-50.64 -77)"/><path class="cls-10" d="M134,859V719.33c0-7.08,1.75-19.73,28.25-19.73l74.66-.1V684.23l-87.25.07s-31.38.44-31.16,36.12S119,858.7,119,858.7Z" transform="translate(-50.64 -77)"/><path class="cls-10" d="M319.78,859V719.33c0-7.08-1.75-19.73-28.25-19.73l-74.66-.1V684.23l87.25.07s31.38.44,31.16,36.12-.51,138.28-.51,138.28Z" transform="translate(-50.64 -77)"/><path class="cls-6" d="M254.16,344s40.51,28.17,79.43,0v31.34H254.34Z" transform="translate(-50.64 -77)"/><path class="cls-6" d="M620.05,323s51,49.49,121.46,0v52.34H620.31Z" transform="translate(-50.64 -77)"/><path class="cls-11" d="M384.57,797.43s236.93,131.57,578.36,7c0,0,5,34.56,5.3,68.56H381.11S374.5,848.5,384.57,797.43Z" transform="translate(-50.64 -77)"/><path class="cls-6" d="M335.21,827.34s-2.52,14.45-15.43,15.91c0,0-160.78,15.75-185.43-17.41-.3-.41,0-111,0-111s2.14-11.89,17.7-14.57c0,0,6.3-16.11,23.55-16.15l-25.59,0s-30.16,0-31.16,33.82.51,140.58.51,140.58l15,.3,200.77-.3Z" transform="translate(-50.64 -77)"/><ellipse class="cls-12" cx="186.28" cy="513.51" rx="72.63" ry="68.51"/><polygon class="cls-13" points="236.18 493.4 228.79 528.87 143.06 555.48 144.54 525.92 236.18 493.4"/><path class="cls-14" d="M232.41,540.84s30.07,6.5,54.41,29.56l-91.64,32.52Z" transform="translate(-50.64 -77)"/><path class="cls-15" d="M235.08,557.8c1.51,3.39,3.68,3.81,6.26,3.5s6.44-3,4-6c-1-1.26-7.52-6.64-10.1-6.33S234.42,556.32,235.08,557.8Z" transform="translate(-50.64 -77)"/><path class="cls-16" d="M243.77,553.8s-8.69-6.75-8.69,4a17.33,17.33,0,0,1-1.16-5.21s-1.21-6.67,5.5-2A52.17,52.17,0,0,1,243.77,553.8Z" transform="translate(-50.64 -77)"/><path class="cls-15" d="M229.55,590.72s-3.33-13.93,23.27-8.26c0,0,3,7.15,0,10.11s-10.35,8.87-17.74,4.43S229.92,588.87,229.55,590.72Z" transform="translate(-50.64 -77)"/><path class="cls-16" d="M230.88,593.57s3.2-9.52,23.13-7.51l-1-3.6s-15-3.74-20.67,1.12C232.3,583.58,226.39,587.79,230.88,593.57Z" transform="translate(-50.64 -77)"/><path class="cls-15" d="M264,562.76s-15.07.62-6,7.64,15.77-1.48,12.45-3.82S268,562.27,264,562.76Z" transform="translate(-50.64 -77)"/><path class="cls-16" d="M271.27,567.9s-6.44-5.12-16.22-1.3c0,0-.17-1.82,2.25-2.6,2.22-.71,5.33-2.5,8.65-1.91C266,562.09,271,564.59,271.27,567.9Z" transform="translate(-50.64 -77)"/><path class="cls-15" d="M229.41,569.17s-2.7-.06-1.72-4.09,5.92.74,4.31,2S231.63,568.8,229.41,569.17Z" transform="translate(-50.64 -77)"/><path class="cls-16" d="M227.9,568.31s.81-3.82,3.89-3.23a3.77,3.77,0,0,0-1.36-1.24,1.65,1.65,0,0,0-2.68,1S227.08,567.15,227.9,568.31Z" transform="translate(-50.64 -77)"/><path class="cls-15" d="M207.65,619.64s-3.24-4.44,9.79-11.92c0,0,10.62.09,8.59,3.33s-1,6.93-6,8.59S211.62,624.44,207.65,619.64Z" transform="translate(-50.64 -77)"/><path class="cls-16" d="M208.49,615a24.45,24.45,0,0,1,8.95-7.29s9.71.16,8.88,2.54c-1,3-1.45,3.83-1.45,3.83s.09-3.74-8.26-2.52c0,0-4.47,1.85-8.94,8.13C207.67,619.7,206.32,618.66,208.49,615Z" transform="translate(-50.64 -77)"/><path class="cls-15" d="M257.39,612.71s-1.37-6.22,9.23-9.79a52.31,52.31,0,0,0,6.89,1.23s4.34.17,1.68,3Z" transform="translate(-50.64 -77)"/><path class="cls-16" d="M257.46,610.87s1.37-4.33,10-5.78c5.39-.9,8.49.06,8.49.06-.92-2.23-9.24-2.28-9.24-2.28s-4.74,1.48-6.88,3.85A7.11,7.11,0,0,0,257.46,610.87Z" transform="translate(-50.64 -77)"/><path class="cls-17" d="M435.46,892.79c-7,0,0-249,209.16-249s204.18,249,204.18,249Z" transform="translate(-50.64 -77)"/><g class="cls-18"><polygon class="cls-19" points="394.72 785.82 334.05 798.47 314.67 857.33 355.95 903.55 416.62 890.9 436.01 832.04 394.72 785.82"/><polygon class="cls-19" points="497.49 819.06 436.82 831.7 417.44 890.57 458.73 936.79 519.39 924.14 538.78 865.28 497.49 819.06"/><polygon class="cls-19" points="475.5 713.55 414.83 726.19 395.45 785.06 436.74 831.28 497.41 818.63 516.79 759.77 475.5 713.55"/><polygon class="cls-19" points="372.69 680.1 312.02 692.75 292.63 751.61 333.92 797.83 394.59 785.19 413.97 726.32 372.69 680.1"/><polygon class="cls-19" points="576.4 747.96 515.73 760.6 496.34 819.47 537.63 865.68 598.3 853.04 617.68 794.17 576.4 747.96"/><polygon class="cls-19" points="555.61 641.98 494.94 654.62 475.56 713.49 516.84 759.71 577.51 747.06 596.9 688.2 555.61 641.98"/><polygon class="cls-19" points="453.78 609.33 393.11 621.98 373.73 680.84 415.01 727.06 475.69 714.42 495.07 655.55 453.78 609.33"/><polygon class="cls-19" points="533.64 536.55 472.97 549.2 453.58 608.06 494.87 654.28 555.54 641.63 574.92 582.77 533.64 536.55"/><polygon class="cls-19" points="634.54 571.66 573.87 584.3 554.48 643.17 595.77 689.39 656.44 676.74 675.82 617.88 634.54 571.66"/><polygon class="cls-19" points="657.01 676.37 596.34 689.02 576.95 747.88 618.24 794.1 678.91 781.46 698.29 722.59 657.01 676.37"/><polygon class="cls-19" points="678.87 781.26 618.2 793.9 598.81 852.77 640.1 898.99 700.77 886.34 720.15 827.48 678.87 781.26"/><polygon class="cls-19" points="759.7 709.75 699.03 722.4 679.64 781.26 720.93 827.48 781.6 814.84 800.99 755.97 759.7 709.75"/><polygon class="cls-19" points="862.29 743.2 801.62 755.84 782.24 814.71 823.52 860.93 884.2 848.28 903.58 789.42 862.29 743.2"/><polygon class="cls-19" points="737.67 604.03 677 616.68 657.61 675.54 698.9 721.76 759.57 709.12 778.95 650.25 737.67 604.03"/><polygon class="cls-19" points="840.27 637.53 779.6 650.17 760.22 709.03 801.5 755.25 862.17 742.61 881.56 683.75 840.27 637.53"/><polygon class="cls-19" points="713.27 499.11 652.6 511.76 633.21 570.62 674.5 616.84 735.17 604.2 754.55 545.33 713.27 499.11"/></g><path class="cls-11" d="M437.9,839.59s166.8,92.63,407.17,4.93a408.11,408.11,0,0,1,3.73,48.27H435.46S430.81,875.54,437.9,839.59Z" transform="translate(-50.64 -77)"/></g><g id="Layer_2" data-name="Layer 2"><polygon class="cls-20" points="95.67 298.34 268.86 172.5 268.86 298.34 95.67 298.34"/><polygon class="cls-20" points="268.86 298.34 442.06 172.5 442.06 298.34 268.86 298.34"/><polygon class="cls-20" points="442.06 298.34 615.25 172.5 615.25 298.34 442.06 298.34"/></g><g id="Layer_3" data-name="Layer 3"><path class="cls-6" d="M181.16,350s-9.85,13.32-6.85,14.32,145.19-.76,145.19-.76v11.76H146.31Z" transform="translate(-50.64 -77)"/><path class="cls-6" d="M354.35,350s-9.85,13.32-6.85,14.32,145.19-.76,145.19-.76v11.76H319.5Z" transform="translate(-50.64 -77)"/><path class="cls-6" d="M527.54,350s-9.85,13.32-6.85,14.32,145.19-.76,145.19-.76v11.76H492.69Z" transform="translate(-50.64 -77)"/></g></svg>