<?xml version="1.0" encoding="utf-8"?>
<!-- Generator: Adobe Illustrator 22.1.0, SVG Export Plug-In . SVG Version: 6.00 Build 0)  -->
<svg version="1.1" xmlns="http://www.w3.org/2000/svg" xmlns:xlink="http://www.w3.org/1999/xlink" x="0px" y="0px"
	 viewBox="0 0 1000 1000" style="enable-background:new 0 0 1000 1000;" xml:space="preserve">
<style type="text/css">
	.st0{display:none;}
	.st1{display:inline;fill:#FFFF50;}
	.st2{display:inline;fill:#191919;}
	.st3{fill:#9B9B9B;}
	.st4{fill:#7F7F7F;}
	.st5{fill:#353535;}
	.st6{fill:#FFFFFF;}
	.st7{opacity:0.2;}
	.st8{clip-path:url(#SVGID_2_);}
	.st9{fill:none;stroke:#B7B7B7;stroke-width:4;}
	.st10{fill:#828281;}
	.st11{fill:none;}
	.st12{fill:#5B5B5B;}
	.st13{fill:#B2B2B2;}
	.st14{opacity:0.2;fill:#191919;}
	.st15{fill:#666666;stroke:#6D6D6D;stroke-width:5;stroke-miterlimit:10;}
	.st16{fill:#D8A830;}
	.st17{fill:#F7E143;}
	.st18{fill:#EDB52B;}
	.st19{fill:#BC8E28;}
</style>
<g id="Layer_3" class="st0">
	<rect y="829" class="st1" width="1000" height="171"/>
	<rect class="st2" width="1000" height="829"/>
</g>
<g id="Layer_1">
	<path class="st3" d="M45.6,481.6c0-54.3,44-98.2,98.2-98.2h661.8c54.3,0,98.2,44,98.2,98.2c0,0-0.8,385.1,0,385.1H45.6V481.6z"/>
	<polygon class="st4" points="249.3,383.3 248.4,223 328.6,223 328.6,383.3 	"/>
	<polygon class="st4" points="615.3,383.3 613.9,95.8 736.5,95.8 736.5,383.3 	"/>
	<path class="st5" d="M345.1,224.2c0,4.6-25.3,8.3-56.6,8.3s-56.6-3.7-56.6-8.3c0-4.6,25.3-3.5,56.6-3.5S345.1,219.6,345.1,224.2z"
		/>
	<path class="st5" d="M757.7,90.4c0,6.7-37.5,12.2-83.7,12.2s-83.7-5.5-83.7-12.2s37.5-5.2,83.7-5.2S757.7,83.6,757.7,90.4z"/>
	<path class="st6" d="M376.1,881c-10,0,0-353.7,297.1-353.7s290,353.7,290,353.7C809,881,579,881,376.1,881z"/>
	<path class="st7" d="M46,812c0,0,0.4,22,68.8,22l0.4,32.7L46,867V812z"/>
	<path class="st7" d="M329,835.5h47.4c0,0-4.8,23.9-1.6,31.2L329,867V835.5z"/>
	<g>
		<defs>
			<path id="SVGID_1_" d="M376.1,881c-10,0,0-353.7,297.1-353.7s290,353.7,290,353.7C809,881,579,881,376.1,881z"/>
		</defs>
		<clipPath id="SVGID_2_">
			<use xlink:href="#SVGID_1_"  style="overflow:visible;"/>
		</clipPath>
		<g class="st8">
			<g>
				<polygon class="st9" points="390.2,838.4 304,856.4 276.4,940 335.1,1005.7 421.3,987.7 448.8,904.1 				"/>
				<polygon class="st9" points="536.1,885.6 450,903.6 422.4,987.2 481.1,1052.9 567.3,1034.9 594.8,951.3 				"/>
				<polygon class="st9" points="504.9,735.8 418.7,753.7 391.2,837.3 449.8,903 536,885 563.6,801.4 				"/>
				<polygon class="st9" points="358.9,688.3 272.7,706.2 245.1,789.8 303.8,855.5 390,837.5 417.5,753.9 				"/>
				<polygon class="st9" points="648.2,784.6 562,802.6 534.5,886.2 593.2,951.9 679.3,933.9 706.9,850.3 				"/>
				<polygon class="st9" points="618.7,634.1 532.5,652.1 505,735.7 563.6,801.3 649.8,783.4 677.3,699.8 				"/>
				<polygon class="st9" points="474.1,587.7 387.9,605.7 360.3,689.3 419,755 505.2,737 532.7,653.4 				"/>
				<polygon class="st9" points="587.5,484.4 501.3,502.3 473.8,585.9 532.4,651.6 618.6,633.6 646.1,550 				"/>
				<polygon class="st9" points="730.8,534.2 644.6,552.2 617.1,635.8 675.7,701.5 761.9,683.5 789.5,599.9 				"/>
				<polygon class="st9" points="762.7,683 676.5,700.9 649,784.5 707.7,850.2 793.8,832.2 821.4,748.6 				"/>
				<polygon class="st9" points="793.8,831.9 707.6,849.9 680.1,933.5 738.7,999.2 824.9,981.2 852.4,897.6 				"/>
				<polygon class="st9" points="908.6,730.4 822.4,748.3 794.9,832 853.5,897.6 939.7,879.6 967.2,796 				"/>
				<polygon class="st9" points="1054.3,777.9 968.1,795.8 940.6,879.5 999.3,945.1 1085.4,927.2 1113,843.5 				"/>
				<polygon class="st9" points="877.3,580.2 791.1,598.2 763.6,681.8 822.2,747.4 908.4,729.5 935.9,645.9 				"/>
				<polygon class="st9" points="1023,627.8 936.9,645.7 909.3,729.4 968,795 1054.1,777 1081.7,693.4 				"/>
				<polygon class="st9" points="842.6,431.2 756.5,449.1 728.9,532.7 787.6,598.4 873.8,580.4 901.3,496.8 				"/>
			</g>
		</g>
	</g>
	<path class="st10" d="M114.8,866.7L114,725c-0.1-18.1,14.5-32.8,32.6-32.8h149.8c18,0,32.6,14.6,32.6,32.6v141.9"/>
	<path class="st5" d="M247.4,494.2H124.5c-5.8,0-10.5-4.7-10.5-10.5v-37.9c0-5.8,4.7-10.5,10.5-10.5h122.8c5.8,0,10.5,4.7,10.5,10.5
		v37.9C257.9,489.4,253.1,494.2,247.4,494.2z"/>
	<path class="st5" d="M443.1,494.2H320.2c-5.8,0-10.5-4.7-10.5-10.5v-37.9c0-5.8,4.7-10.5,10.5-10.5h122.8c5.8,0,10.5,4.7,10.5,10.5
		v37.9C453.6,489.4,448.8,494.2,443.1,494.2z"/>
	<path class="st5" d="M641.1,494.2H518.3c-5.8,0-10.5-4.7-10.5-10.5v-37.9c0-5.8,4.7-10.5,10.5-10.5h122.8c5.8,0,10.5,4.7,10.5,10.5
		v37.9C651.6,489.4,646.9,494.2,641.1,494.2z"/>
	<path class="st5" d="M839.2,494.2H716.4c-5.8,0-10.5-4.7-10.5-10.5v-37.9c0-5.8,4.7-10.5,10.5-10.5h122.8c5.8,0,10.5,4.7,10.5,10.5
		v37.9C849.7,489.4,845,494.2,839.2,494.2z"/>
	<g>
		<path class="st11" d="M537.2,561.4"/>
	</g>
	<path class="st12" d="M114,845.8"/>
	<path class="st12" d="M114.8,834"/>
	<polygon class="st12" points="114.7,845.8 329,845.8 329,853.8 114.7,853.8 	"/>
	<polygon class="st12" points="114.4,823 328.8,823 328.8,831.1 114.5,831.1 	"/>
	<polygon class="st12" points="114.4,799 328.7,799 328.7,807.1 114.4,807.1 	"/>
	<polygon class="st12" points="114.2,776.3 329,776.3 329,784.4 114.3,784.4 	"/>
	<rect x="114.2" y="753.1" class="st12" width="214.8" height="8.1"/>
	<polygon class="st12" points="113.9,730.4 329,730.4 329,738.5 114,738.5 	"/>
	<path class="st12" d="M119.7,707h204c2,1.3,3.9,8.5,3.9,8.5l-211.8-0.4C115.9,715.1,118.3,708.8,119.7,707z"/>
	<path class="st13" d="M129,867V727.3c0-7.1,1.8-19.7,28.2-19.7l74.7-0.1v-15.3l-87.2,0.1c0,0-31.4,0.4-31.2,36.1
		c0.2,35.7,0.5,138.3,0.5,138.3L129,867z"/>
	<path class="st13" d="M314.8,867V727.3c0-7.1-1.8-19.7-28.2-19.7l-74.7-0.1v-15.3l87.2,0.1c0,0,31.4,0.4,31.2,36.1
		c-0.2,35.7-0.5,138.3-0.5,138.3L314.8,867z"/>
</g>
<g id="Layer_4">
	<path class="st7" d="M249.2,352c0,0,40.5,28.2,79.4,0v31.3h-79.2L249.2,352z"/>
	<path class="st7" d="M615.1,331c0,0,51,49.5,121.5,0v52.3H615.3L615.1,331z"/>
	<path class="st14" d="M379.6,805.4c0,0,236.9,131.6,578.4,7c0,0,5,34.6,5.3,68.6H376.1C376.1,881,369.5,856.5,379.6,805.4z"/>
	<path class="st7" d="M330.2,835.3c0,0-2.5,14.5-15.4,15.9c0,0-160.8,15.8-185.4-17.4c-0.3-0.4,0-111,0-111s2.1-11.9,17.7-14.6
		c0,0,6.3-16.1,23.6-16.2l-25.6,0c0,0-30.2,0-31.2,33.8c-1,33.9,0.5,140.6,0.5,140.6l15,0.3l200.8-0.3L330.2,835.3z"/>
</g>
<g id="Layer_2">
	<ellipse class="st15" cx="231.9" cy="598.5" rx="72.6" ry="68.5"/>
	<polygon class="st16" points="281.8,578.4 274.4,613.9 188.7,640.5 190.2,610.9 	"/>
	<path class="st17" d="M227.4,548.8c0,0,30.1,6.5,54.4,29.6l-91.6,32.5L227.4,548.8z"/>
	<path class="st18" d="M230.1,565.8c1.5,3.4,3.7,3.8,6.3,3.5c2.6-0.3,6.4-3,4-6c-1-1.3-7.5-6.6-10.1-6.3
		C227.7,557.3,229.4,564.3,230.1,565.8z"/>
	<path class="st19" d="M238.8,561.8c0,0-8.7-6.8-8.7,4c0,0-0.8-1.7-1.2-5.2c0,0-1.2-6.7,5.5-2C234.4,558.6,237,560.3,238.8,561.8z"
		/>
	<path class="st18" d="M224.5,598.7c0,0-3.3-13.9,23.3-8.3c0,0,3,7.2,0,10.1c-3,3-10.3,8.9-17.7,4.4
		C222.7,600.6,224.9,596.9,224.5,598.7z"/>
	<path class="st19" d="M225.9,601.6c0,0,3.2-9.5,23.1-7.5l-1-3.6c0,0-15-3.7-20.7,1.1C227.3,591.6,221.4,595.8,225.9,601.6z"/>
	<path class="st18" d="M259,570.8c0,0-15.1,0.6-6,7.6c9,7,15.8-1.5,12.4-3.8C262.1,572.2,263,570.3,259,570.8z"/>
	<path class="st19" d="M266.3,575.9c0,0-6.4-5.1-16.2-1.3c0,0-0.2-1.8,2.2-2.6c2.2-0.7,5.3-2.5,8.6-1.9
		C260.9,570.1,266,572.6,266.3,575.9z"/>
	<path class="st18" d="M224.4,577.2c0,0-2.7-0.1-1.7-4.1c1-4,5.9,0.7,4.3,2C225.4,576.4,226.6,576.8,224.4,577.2z"/>
	<path class="st19" d="M222.9,576.3c0,0,0.8-3.8,3.9-3.2c0,0-0.4-0.7-1.4-1.2c-2.2-1.2-2.7,1-2.7,1S222.1,575.2,222.9,576.3z"/>
	<path class="st18" d="M202.6,627.6c0,0-3.2-4.4,9.8-11.9c0,0,10.6,0.1,8.6,3.3c-2,3.2-1,6.9-6,8.6
		C210,629.3,206.6,632.4,202.6,627.6z"/>
	<path class="st19" d="M203.5,623c0,0,2.7-4.2,8.9-7.3c0,0,9.7,0.2,8.9,2.5c-1,3-1.4,3.8-1.4,3.8s0.1-3.7-8.3-2.5
		c0,0-4.5,1.8-8.9,8.1C202.7,627.7,201.3,626.7,203.5,623z"/>
	<path class="st18" d="M252.4,620.7c0,0-1.4-6.2,9.2-9.8c0,0,4.6,1.1,6.9,1.2c0,0,4.3,0.2,1.7,3L252.4,620.7z"/>
	<path class="st19" d="M252.5,618.9c0,0,1.4-4.3,10-5.8c5.4-0.9,8.5,0.1,8.5,0.1c-0.9-2.2-9.2-2.3-9.2-2.3s-4.7,1.5-6.9,3.9
		C253.8,615.8,252.8,616.7,252.5,618.9z"/>
</g>
</svg>
