<svg id="Layer_1" data-name="Layer 1" xmlns="http://www.w3.org/2000/svg" xmlns:xlink="http://www.w3.org/1999/xlink" viewBox="0 0 1069.59 970.06"><defs><style>.cls-1,.cls-19,.cls-8{fill:none;}.cls-2{fill:#9b9b9b;}.cls-3{fill:#7f7f7f;}.cls-4{fill:#353535;}.cls-5{fill:#fff;}.cls-11,.cls-6{opacity:0.2;}.cls-7{clip-path:url(#clip-path);}.cls-8{stroke:#b7b7b7;}.cls-19,.cls-8{stroke-width:4px;}.cls-9{fill:#5b5b5b;}.cls-10{fill:#b2b2b2;}.cls-11{fill:#191919;}.cls-12{fill:#666;stroke:#6d6d6d;stroke-miterlimit:10;stroke-width:5px;}.cls-13{fill:#d8a830;}.cls-14{fill:#f7e143;}.cls-15{fill:#edb52b;}.cls-16{fill:#bc8e28;}.cls-17{fill:#a9f4fc;}.cls-18{clip-path:url(#clip-path-2);}.cls-19{stroke:#9b9b9b;}</style><clipPath id="clip-path" transform="translate(-50.64 -92)"><path class="cls-1" d="M381.11,888c-10,0,0-353.69,297.1-353.69S968.23,888,968.23,888Z"/></clipPath><clipPath id="clip-path-2" transform="translate(-50.64 -92)"><path class="cls-1" d="M430.9,908c-7,0,0-249,209.16-249S844.24,908,844.24,908Z"/></clipPath></defs><title>Kaasfabriek lvl 2</title><path class="cls-2" d="M50.64,488.59a98.24,98.24,0,0,1,98.24-98.25h661.8a98.25,98.25,0,0,1,98.25,98.25s-.79,385.13,0,385.13H50.64Z" transform="translate(-50.64 -92)"/><polygon class="cls-3" points="203.71 298.34 202.78 138 282.95 138 282.95 298.34 203.71 298.34"/><polygon class="cls-3" points="569.67 298.34 568.26 10.84 690.88 10.84 690.88 298.34 569.67 298.34"/><path class="cls-4" d="M350.09,231.18c0,4.56-25.33,8.26-56.59,8.26s-56.59-3.7-56.59-8.26,25.34-3.53,56.59-3.53S350.09,226.62,350.09,231.18Z" transform="translate(-50.64 -92)"/><path class="cls-4" d="M762.73,97.38c0,6.74-37.47,12.2-83.7,12.2s-83.71-5.46-83.71-12.2S632.8,92.14,679,92.14,762.73,90.63,762.73,97.38Z" transform="translate(-50.64 -92)"/><path class="cls-5" d="M381.11,888c-10,0,0-353.69,297.1-353.69S968.23,888,968.23,888Z" transform="translate(-50.64 -92)"/><path class="cls-6" d="M51,819s.42,22,68.8,22l.38,32.72L51,874Z" transform="translate(-50.64 -92)"/><path class="cls-6" d="M334,842.5h47.38s-4.76,23.94-1.59,31.22L334,874Z" transform="translate(-50.64 -92)"/><g class="cls-7"><polygon class="cls-8" points="344.52 753.43 258.34 771.39 230.81 855 289.45 920.65 375.63 902.69 403.17 819.08 344.52 753.43"/><polygon class="cls-8" points="490.51 800.64 404.33 818.6 376.8 902.21 435.44 967.87 521.62 949.9 549.15 866.29 490.51 800.64"/><polygon class="cls-8" points="459.27 650.77 373.09 668.73 345.56 752.35 404.2 818 490.38 800.04 517.92 716.42 459.27 650.77"/><polygon class="cls-8" points="313.23 603.26 227.05 621.22 199.51 704.84 258.16 770.49 344.34 752.53 371.87 668.91 313.23 603.26"/><polygon class="cls-8" points="602.59 699.64 516.41 717.6 488.87 801.22 547.52 866.87 633.7 848.91 661.23 765.29 602.59 699.64"/><polygon class="cls-8" points="573.06 549.11 486.88 567.07 459.35 650.68 517.99 716.33 604.17 698.37 631.71 614.76 573.06 549.11"/><polygon class="cls-8" points="428.42 502.73 342.24 520.7 314.71 604.31 373.35 669.96 459.53 652 487.06 568.39 428.42 502.73"/><polygon class="cls-8" points="541.85 399.35 455.67 417.31 428.14 500.93 486.78 566.58 572.96 548.62 600.5 465 541.85 399.35"/><polygon class="cls-8" points="685.17 449.22 598.99 467.18 571.46 550.8 630.1 616.45 716.28 598.49 743.82 514.88 685.17 449.22"/><polygon class="cls-8" points="717.09 597.96 630.91 615.92 603.37 699.54 662.02 765.19 748.2 747.23 775.73 663.62 717.09 597.96"/><polygon class="cls-8" points="748.14 746.94 661.96 764.9 634.42 848.52 693.07 914.17 779.25 896.21 806.78 812.6 748.14 746.94"/><polygon class="cls-8" points="862.96 645.38 776.78 663.34 749.24 746.95 807.89 812.6 894.07 794.64 921.6 711.03 862.96 645.38"/><polygon class="cls-8" points="1008.69 692.88 922.51 710.85 894.97 794.46 953.62 860.11 1039.8 842.15 1067.33 758.54 1008.69 692.88"/><polygon class="cls-8" points="831.66 495.21 745.48 513.17 717.95 596.78 776.59 662.44 862.77 644.48 890.3 560.86 831.66 495.21"/><polygon class="cls-8" points="977.4 542.78 891.23 560.74 863.69 644.36 922.34 710.01 1008.51 692.05 1036.05 608.44 977.4 542.78"/><polygon class="cls-8" points="797.01 346.17 710.83 364.13 683.29 447.75 741.94 513.4 828.12 495.44 855.65 411.83 797.01 346.17"/></g><rect class="cls-4" x="68.38" y="350.22" width="143.83" height="58.95" rx="10.5" ry="10.5"/><rect class="cls-4" x="264.09" y="350.22" width="143.83" height="58.95" rx="10.5" ry="10.5"/><rect class="cls-4" x="462.16" y="350.22" width="143.83" height="58.95" rx="10.5" ry="10.5"/><rect class="cls-4" x="660.22" y="350.22" width="143.83" height="58.95" rx="10.5" ry="10.5"/><path class="cls-1" d="M542.23,568.37" transform="translate(-50.64 -92)"/><path class="cls-9" d="M119,852.75" transform="translate(-50.64 -92)"/><path class="cls-9" d="M119.8,841" transform="translate(-50.64 -92)"/><polygon class="cls-9" points="69.05 760.75 283.4 760.75 283.4 768.83 69.1 768.83 69.05 760.75"/><polygon class="cls-9" points="68.8 738 283.15 738 283.15 746.08 68.85 746.08 68.8 738"/><polygon class="cls-9" points="68.72 714.04 283.06 714.04 283.06 722.13 68.76 722.13 68.72 714.04"/><polygon class="cls-9" points="68.58 691.29 283.4 691.29 283.4 699.38 68.63 699.38 68.58 691.29"/><rect class="cls-9" x="68.58" y="668.13" width="214.82" height="8.08"/><polygon class="cls-9" points="68.3 645.38 283.4 645.38 283.4 653.46 68.35 653.46 68.3 645.38"/><path class="cls-9" d="M124.72,714h204c2,1.27,3.94,8.52,3.94,8.52l-211.78-.43S123.33,715.81,124.72,714Z" transform="translate(-50.64 -92)"/><path class="cls-10" d="M134,874V734.33c0-7.08,1.75-19.73,28.25-19.73l74.66-.1V699.23l-87.25.07s-31.38.44-31.16,36.12S119,873.7,119,873.7Z" transform="translate(-50.64 -92)"/><path class="cls-10" d="M319.78,874V734.33c0-7.08-1.75-19.73-28.25-19.73l-74.66-.1V699.23l87.25.07s31.38.44,31.16,36.12-.51,138.28-.51,138.28Z" transform="translate(-50.64 -92)"/><path class="cls-6" d="M254.16,359s40.51,28.17,79.43,0v31.34H254.34Z" transform="translate(-50.64 -92)"/><path class="cls-6" d="M620.05,338s51,49.49,121.46,0v52.34H620.31Z" transform="translate(-50.64 -92)"/><path class="cls-11" d="M384.57,812.43s236.93,131.57,578.36,7c0,0,5,34.56,5.3,68.56H381.11S374.5,863.5,384.57,812.43Z" transform="translate(-50.64 -92)"/><path class="cls-6" d="M335.21,842.34s-2.52,14.45-15.43,15.91c0,0-160.78,15.75-185.43-17.41-.3-.41,0-111,0-111s2.14-11.89,17.7-14.57c0,0,6.3-16.11,23.55-16.15l-25.59,0s-30.16,0-31.16,33.82.51,140.58.51,140.58l15,.3,200.77-.3Z" transform="translate(-50.64 -92)"/><ellipse class="cls-12" cx="186.28" cy="513.51" rx="72.63" ry="68.51"/><polygon class="cls-13" points="236.18 493.4 228.79 528.87 143.06 555.48 144.54 525.92 236.18 493.4"/><path class="cls-14" d="M232.41,555.84s30.07,6.5,54.41,29.56l-91.64,32.52Z" transform="translate(-50.64 -92)"/><path class="cls-15" d="M235.08,572.8c1.51,3.39,3.68,3.81,6.26,3.5s6.44-3,4-6c-1-1.26-7.52-6.64-10.1-6.33S234.42,571.32,235.08,572.8Z" transform="translate(-50.64 -92)"/><path class="cls-16" d="M243.77,568.8s-8.69-6.75-8.69,4a17.33,17.33,0,0,1-1.16-5.21s-1.21-6.67,5.5-2A52.17,52.17,0,0,1,243.77,568.8Z" transform="translate(-50.64 -92)"/><path class="cls-15" d="M229.55,605.72s-3.33-13.93,23.27-8.26c0,0,3,7.15,0,10.11s-10.35,8.87-17.74,4.43S229.92,603.87,229.55,605.72Z" transform="translate(-50.64 -92)"/><path class="cls-16" d="M230.88,608.57s3.2-9.52,23.13-7.51l-1-3.6s-15-3.74-20.67,1.12C232.3,598.58,226.39,602.79,230.88,608.57Z" transform="translate(-50.64 -92)"/><path class="cls-15" d="M264,577.76s-15.07.62-6,7.64,15.77-1.48,12.45-3.82S268,577.27,264,577.76Z" transform="translate(-50.64 -92)"/><path class="cls-16" d="M271.27,582.9s-6.44-5.12-16.22-1.3c0,0-.17-1.82,2.25-2.6,2.22-.71,5.33-2.5,8.65-1.91C266,577.09,271,579.59,271.27,582.9Z" transform="translate(-50.64 -92)"/><path class="cls-15" d="M229.41,584.17s-2.7-.06-1.72-4.09,5.92.74,4.31,2S231.63,583.8,229.41,584.17Z" transform="translate(-50.64 -92)"/><path class="cls-16" d="M227.9,583.31s.81-3.82,3.89-3.23a3.77,3.77,0,0,0-1.36-1.24,1.65,1.65,0,0,0-2.68,1S227.08,582.15,227.9,583.31Z" transform="translate(-50.64 -92)"/><path class="cls-15" d="M207.65,634.64s-3.24-4.44,9.79-11.92c0,0,10.62.09,8.59,3.33s-1,6.93-6,8.59S211.62,639.44,207.65,634.64Z" transform="translate(-50.64 -92)"/><path class="cls-16" d="M208.49,630a24.45,24.45,0,0,1,8.95-7.29s9.71.16,8.88,2.54c-1,3-1.45,3.83-1.45,3.83s.09-3.74-8.26-2.52c0,0-4.47,1.85-8.94,8.13C207.67,634.7,206.32,633.66,208.49,630Z" transform="translate(-50.64 -92)"/><path class="cls-15" d="M257.39,627.71s-1.37-6.22,9.23-9.79a52.31,52.31,0,0,0,6.89,1.23s4.34.17,1.68,3Z" transform="translate(-50.64 -92)"/><path class="cls-16" d="M257.46,625.87s1.37-4.33,10-5.78c5.39-.9,8.49.06,8.49.06-.92-2.23-9.24-2.28-9.24-2.28s-4.74,1.48-6.88,3.85A7.11,7.11,0,0,0,257.46,625.87Z" transform="translate(-50.64 -92)"/><path class="cls-17" d="M430.9,908c-7,0,0-249,209.16-249S844.24,908,844.24,908Z" transform="translate(-50.64 -92)"/><g class="cls-18"><polygon class="cls-19" points="390.16 786.03 329.49 798.67 310.1 857.54 351.39 903.76 412.06 891.11 431.44 832.25 390.16 786.03"/><polygon class="cls-19" points="492.93 819.26 432.26 831.91 412.88 890.77 454.16 937 514.83 924.35 534.22 865.49 492.93 819.26"/><polygon class="cls-19" points="470.94 713.76 410.27 726.4 390.88 785.27 432.17 831.49 492.84 818.84 512.23 759.98 470.94 713.76"/><polygon class="cls-19" points="368.12 680.31 307.45 692.96 288.07 751.82 329.35 798.04 390.02 785.39 409.41 726.53 368.12 680.31"/><polygon class="cls-19" points="571.83 748.16 511.16 760.81 491.78 819.67 533.06 865.89 593.73 853.25 613.12 794.38 571.83 748.16"/><polygon class="cls-19" points="551.05 642.18 490.38 654.83 470.99 713.7 512.28 759.91 572.95 747.27 592.33 688.4 551.05 642.18"/><polygon class="cls-19" points="449.22 609.54 388.55 622.18 369.16 681.05 410.45 727.27 471.12 714.62 490.5 655.76 449.22 609.54"/><polygon class="cls-19" points="529.07 536.76 468.4 549.4 449.02 608.27 490.31 654.49 550.98 641.84 570.36 582.98 529.07 536.76"/><polygon class="cls-19" points="629.97 571.87 569.3 584.51 549.92 643.38 591.21 689.6 651.88 676.95 671.26 618.09 629.97 571.87"/><polygon class="cls-19" points="652.44 676.58 591.77 689.23 572.39 748.09 613.67 794.31 674.34 781.66 693.73 722.8 652.44 676.58"/><polygon class="cls-19" points="674.3 781.46 613.63 794.11 594.25 852.97 635.53 899.19 696.2 886.55 715.59 827.68 674.3 781.46"/><polygon class="cls-19" points="755.13 709.96 694.47 722.61 675.08 781.47 716.37 827.69 777.04 815.04 796.42 756.18 755.13 709.96"/><polygon class="cls-19" points="857.73 743.41 797.06 756.05 777.67 814.92 818.96 861.13 879.63 848.49 899.02 789.63 857.73 743.41"/><polygon class="cls-19" points="733.1 604.24 672.43 616.89 653.05 675.75 694.33 721.97 755 709.33 774.39 650.46 733.1 604.24"/><polygon class="cls-19" points="835.71 637.73 775.03 650.38 755.65 709.24 796.94 755.46 857.61 742.82 876.99 683.95 835.71 637.73"/><polygon class="cls-19" points="708.71 499.32 648.03 511.96 628.65 570.83 669.94 617.05 730.61 604.4 749.99 545.54 708.71 499.32"/></g><path class="cls-11" d="M433.34,854.8s166.8,92.62,407.17,4.93A407.87,407.87,0,0,1,844.24,908H430.9S426.25,890.75,433.34,854.8Z" transform="translate(-50.64 -92)"/></svg>