<svg id="Layer_1" data-name="Layer 1" xmlns="http://www.w3.org/2000/svg" viewBox="0 0 614 773.79"><defs><style>.cls-1{fill:#9b9b9b;}.cls-2{fill:#7a7a7a;}.cls-3{fill:#424242;}.cls-4{fill:#666;stroke:#6d6d6d;stroke-miterlimit:10;stroke-width:8px;}.cls-5{fill:#d8a830;}.cls-6{fill:#f7e143;}.cls-7{fill:#edb52b;}.cls-8{fill:#bc8e28;}.cls-9{opacity:0.21;}</style></defs><title>Fabriek level 1</title><path class="cls-1" d="M613.32,120.1S557.69,142.76,500,140.7c-57.69,2.06-113.32-20.6-113.32-20.6C226,614.6,193,886.57,193,886.57H807S774,614.6,613.32,120.1Z" transform="translate(-193 -113.21)"/><path class="cls-2" d="M587.91,470.8" transform="translate(-193 -113.21)"/><path class="cls-3" d="M498.61,609c-147,13.37-140.77,278-140.77,278H639.38S645.62,622.39,498.61,609Z" transform="translate(-193 -113.21)"/><path class="cls-3" d="M386,120.53s44.62-7.43,112.62-7.32a906,906,0,0,1,114,7.32S505.49,170,386,120.53Z" transform="translate(-193 -113.21)"/><ellipse class="cls-4" cx="301.16" cy="297.84" rx="145.26" ry="137.02"/><polygon class="cls-5" points="401.09 257.58 386.31 328.52 214.86 381.73 217.81 322.61 401.09 257.58"/><path class="cls-6" d="M490.63,344.18" transform="translate(-193 -113.21)"/><path class="cls-6" d="M485.27,311.67s60.14,13,108.82,59.11l-183.28,65Z" transform="translate(-193 -113.21)"/><path class="cls-7" d="M490.63,345.59c3,6.77,7.36,7.61,12.52,7s12.86-6,8-12c-2-2.52-15.05-13.27-20.2-12.65S489.31,342.63,490.63,345.59Z" transform="translate(-193 -113.21)"/><path class="cls-8" d="M512.7,344.56s-19.36,9.7-23.64-15.29c0,0-3,3.42,2.13,17.48,0,0,2.9,7.75,12.45,5.77C503.64,352.52,512,350.69,512.7,344.56Z" transform="translate(-193 -113.21)"/><path class="cls-7" d="M479.56,411.42s-6.67-27.86,46.54-16.51c0,0,5.91,14.3,0,20.21s-20.69,17.74-35.47,8.87S480.31,407.72,479.56,411.42Z" transform="translate(-193 -113.21)"/><path class="cls-7" d="M224.58,388.52" transform="translate(-193 -113.21)"/><path class="cls-8" d="M479.56,411.42s28.81,13.05,46.54-16.51c0,0,5.91,11.35,0,20.21,0,0-15,15.88-31.16,10.9C494.94,426,480.65,421.34,479.56,411.42Z" transform="translate(-193 -113.21)"/><path class="cls-7" d="M548.52,355.51s-30.14,1.23-12.07,15.27,31.53-2.95,24.88-7.63S556.42,354.52,548.52,355.51Z" transform="translate(-193 -113.21)"/><path class="cls-8" d="M562.67,368.62s-13.52,4.27-30.71-8.48a5.23,5.23,0,0,0,.76,7.19c3.73,3.45,7.59,6.95,14,8.9A14.58,14.58,0,0,0,562.67,368.62Z" transform="translate(-193 -113.21)"/><path class="cls-7" d="M479.29,368.33s-5.41-.12-3.44-8.19,11.82,1.48,8.62,4.09S483.72,367.59,479.29,368.33Z" transform="translate(-193 -113.21)"/><path class="cls-8" d="M475.43,363.58s6,3.55,8.61-3.44c0,0,1.92,2.52.43,4.09a25.87,25.87,0,0,0-2.6,3.28S475.84,371.15,475.43,363.58Z" transform="translate(-193 -113.21)"/><path class="cls-7" d="M435.76,469.26s-6.47-8.87,19.58-23.84c0,0,21.25.19,17.18,6.65s-2,13.86-12,17.19S443.7,478.86,435.76,469.26Z" transform="translate(-193 -113.21)"/><path class="cls-8" d="M437.46,459.89s24,6.55,33-12.18c0,0,3.73,1,2.09,4.36s-4.25,10.83-4.25,10.83.55,4.25-14.23,8.9c0,0-12.19,7.43-18.28-2.54C435.76,469.26,433.06,467.16,437.46,459.89Z" transform="translate(-193 -113.21)"/><path class="cls-7" d="M535.24,455.41s-2.73-12.45,18.45-19.59c0,0,9.12,2.21,13.8,2.46,0,0,8.66.33,3.34,6.08Z" transform="translate(-193 -113.21)"/><path class="cls-8" d="M535.37,451.71s30.4-6.63,27.69-14c0,0,9.46.33,9.29,2.55a33.21,33.21,0,0,0,0,4.44l-37.11,10.68S534.44,454.61,535.37,451.71Z" transform="translate(-193 -113.21)"/><path class="cls-9" d="M282.48,886.57s-39.48-2.14-51.7-205.83c0,0-16.95,74.3-37.78,205.83" transform="translate(-193 -113.21)"/><path class="cls-9" d="M806.48,883.82" transform="translate(-193 -113.21)"/><path class="cls-9" d="M680.46,884.25" transform="translate(-193 -113.21)"/><path class="cls-9" d="M705,886.31s79.67,8.59,66.12-190.76c0,0,13.67,58.12,34.5,189.65" transform="translate(-193 -113.21)"/></svg>