<svg id="Layer_1" data-name="Layer 1" xmlns="http://www.w3.org/2000/svg" xmlns:xlink="http://www.w3.org/1999/xlink" viewBox="0 0 1106.05 915.96"><defs><style>.cls-1,.cls-11,.cls-23{fill:none;}.cls-2{fill:#c9c9f4;}.cls-3{fill:#8484a5;}.cls-4{fill:#6b6b7c;}.cls-5{fill:#9b9b9b;}.cls-6{fill:#7f7f7f;}.cls-7{fill:#353535;}.cls-8{fill:#fff;}.cls-14,.cls-9{opacity:0.2;}.cls-10{clip-path:url(#clip-path);}.cls-11{stroke:#b7b7b7;}.cls-11,.cls-23{stroke-width:3.78px;}.cls-12{fill:#5b5b5b;}.cls-13{fill:#b2b2b2;}.cls-14{fill:#191919;}.cls-15{fill:#666;stroke:#6d6d6d;stroke-miterlimit:10;stroke-width:4.72px;}.cls-16{fill:#d8a830;}.cls-17{fill:#f7e143;}.cls-18{fill:#edb52b;}.cls-19{fill:#bc8e28;}.cls-20{fill:#4d634d;}.cls-21{fill:#a9f4fc;}.cls-22{clip-path:url(#clip-path-2);}.cls-23{stroke:#9b9b9b;}</style><clipPath id="clip-path" transform="translate(-25 -95)"><path class="cls-1" d="M433.16,846.6c-9.45,0,0-334,280.53-334s273.85,334,273.85,334Z"/></clipPath><clipPath id="clip-path-2" transform="translate(-25 -95)"><path class="cls-1" d="M482.71,865.29c-6.65,0,0-235.11,197.49-235.11S873,865.29,873,865.29Z"/></clipPath></defs><title>Kaasfabriek lvl 4</title><path class="cls-2" d="M140.6,202.37c-113.82,0-115.6,90.7-115.6,90.7V835.49H256.2V293.07S254.42,202.37,140.6,202.37Z" transform="translate(-25 -95)"/><path class="cls-3" d="M25,292.18s24,18.67,115.6,18.67,115.6-18.67,115.6-18.67-4.44-89.81-115.6-89.81S25,292.18,25,292.18Z" transform="translate(-25 -95)"/><ellipse class="cls-4" cx="114.94" cy="115.68" rx="48.59" ry="10.3"/><path class="cls-5" d="M121.12,469.47a92.77,92.77,0,0,1,92.77-92.77H838.77a92.77,92.77,0,0,1,92.77,92.77s-.74,363.65,0,363.65H121.12Z" transform="translate(-25 -95)"/><polygon class="cls-6" points="288.46 281.7 287.59 130.31 363.29 130.31 363.29 281.7 288.46 281.7"/><polygon class="cls-6" points="634.02 281.7 632.68 10.23 748.46 10.23 748.46 281.7 634.02 281.7"/><path class="cls-7" d="M403.88,226.42c0,4.3-23.93,7.79-53.44,7.79S297,230.72,297,226.42s23.92-3.34,53.43-3.34S403.88,222.12,403.88,226.42Z" transform="translate(-25 -95)"/><path class="cls-7" d="M793.5,100.08c0,6.36-35.38,11.52-79,11.52s-79-5.16-79-11.52,35.38-4.94,79-4.94S793.5,93.71,793.5,100.08Z" transform="translate(-25 -95)"/><path class="cls-8" d="M433.16,846.6c-9.45,0,0-334,280.53-334s273.85,334,273.85,334Z" transform="translate(-25 -95)"/><path class="cls-9" d="M121.46,781.45s.4,20.77,65,20.77l.37,30.9-65.33.26Z" transform="translate(-25 -95)"/><path class="cls-9" d="M388.71,803.64h44.74S429,826.25,432,833.12l-43.24.26Z" transform="translate(-25 -95)"/><g class="cls-10"><polygon class="cls-11" points="421.42 711.4 340.05 728.37 314.05 807.32 369.43 869.31 450.8 852.35 476.8 773.4 421.42 711.4"/><polygon class="cls-11" points="559.27 755.98 477.89 772.94 451.89 851.89 507.27 913.88 588.64 896.92 614.64 817.98 559.27 755.98"/><polygon class="cls-11" points="529.77 614.47 448.4 631.43 422.4 710.38 477.78 772.38 559.15 755.42 585.15 676.47 529.77 614.47"/><polygon class="cls-11" points="391.87 569.61 310.5 586.57 284.5 665.52 339.87 727.51 421.25 710.55 447.25 631.6 391.87 569.61"/><polygon class="cls-11" points="665.09 660.62 583.72 677.58 557.72 756.53 613.09 818.52 694.47 801.56 720.47 722.61 665.09 660.62"/><polygon class="cls-11" points="637.22 518.48 555.84 535.44 529.84 614.39 585.22 676.38 666.59 659.42 692.59 580.47 637.22 518.48"/><polygon class="cls-11" points="500.64 474.69 419.27 491.65 393.27 570.61 448.64 632.6 530.02 615.64 556.01 536.69 500.64 474.69"/><polygon class="cls-11" points="607.74 377.08 526.37 394.04 500.37 472.99 555.75 534.98 637.12 518.02 663.12 439.07 607.74 377.08"/><polygon class="cls-11" points="743.07 424.17 661.7 441.13 635.7 520.08 691.08 582.07 772.45 565.11 798.45 486.16 743.07 424.17"/><polygon class="cls-11" points="773.21 564.61 691.84 581.57 665.84 660.52 721.21 722.51 802.58 705.55 828.58 626.6 773.21 564.61"/><polygon class="cls-11" points="802.53 705.28 721.15 722.24 695.15 801.19 750.53 863.18 831.9 846.23 857.9 767.27 802.53 705.28"/><polygon class="cls-11" points="910.94 609.38 829.57 626.34 803.57 705.29 858.95 767.28 940.32 750.32 966.32 671.37 910.94 609.38"/><polygon class="cls-11" points="1048.55 654.24 967.17 671.2 941.17 750.15 996.55 812.14 1077.92 795.18 1103.92 716.23 1048.55 654.24"/><polygon class="cls-11" points="881.39 467.59 800.02 484.55 774.02 563.5 829.39 625.49 910.77 608.53 936.76 529.58 881.39 467.59"/><polygon class="cls-11" points="1019.01 512.51 937.63 529.47 911.63 608.42 967.01 670.41 1048.38 653.45 1074.38 574.5 1019.01 512.51"/><polygon class="cls-11" points="848.67 326.87 767.3 343.82 741.3 422.78 796.67 484.77 878.04 467.81 904.04 388.86 848.67 326.87"/></g><rect class="cls-7" x="160.68" y="330.69" width="135.81" height="55.66" rx="10.5" ry="10.5"/><rect class="cls-7" x="345.48" y="330.69" width="135.81" height="55.66" rx="10.5" ry="10.5"/><rect class="cls-7" x="532.5" y="330.69" width="135.81" height="55.66" rx="10.5" ry="10.5"/><rect class="cls-7" x="719.52" y="330.69" width="135.81" height="55.66" rx="10.5" ry="10.5"/><path class="cls-1" d="M585.3,544.8" transform="translate(-25 -95)"/><path class="cls-12" d="M185.69,813.32" transform="translate(-25 -95)"/><path class="cls-12" d="M186.42,802.22" transform="translate(-25 -95)"/><polygon class="cls-12" points="161.32 718.32 363.71 718.32 363.71 725.95 161.36 725.95 161.32 718.32"/><polygon class="cls-12" points="161.08 696.84 363.47 696.84 363.47 704.47 161.12 704.47 161.08 696.84"/><polygon class="cls-12" points="161 674.22 363.39 674.22 363.39 681.85 161.04 681.85 161 674.22"/><polygon class="cls-12" points="160.87 652.74 363.71 652.74 363.71 660.37 160.91 660.37 160.87 652.74"/><rect class="cls-12" x="160.87" y="630.86" width="202.84" height="7.63"/><polygon class="cls-12" points="160.61 609.38 363.71 609.38 363.71 617.01 160.65 617.01 160.61 609.38"/><path class="cls-12" d="M191.07,682.35H383.72c1.87,1.19,3.72,8,3.72,8l-200-.41S189.76,684,191.07,682.35Z" transform="translate(-25 -95)"/><path class="cls-13" d="M199.83,833.38V701.51c0-6.69,1.66-18.63,26.68-18.63l70.5-.1V668.37l-82.39.06s-29.63.42-29.42,34.1.49,130.57.49,130.57Z" transform="translate(-25 -95)"/><path class="cls-13" d="M375.26,833.38V701.51c0-6.69-1.66-18.63-26.68-18.63l-70.5-.1V668.37l82.39.06s29.63.42,29.42,34.1-.48,130.57-.48,130.57Z" transform="translate(-25 -95)"/><path class="cls-9" d="M313.29,347.11s38.25,26.59,75,0V376.7H313.46Z" transform="translate(-25 -95)"/><path class="cls-9" d="M658.78,327.28s48.13,46.73,114.68,0V376.7H659Z" transform="translate(-25 -95)"/><path class="cls-14" d="M436.43,775.24s223.71,124.24,546.11,6.62c0,0,4.75,32.64,5,64.74H433.16S426.92,823.47,436.43,775.24Z" transform="translate(-25 -95)"/><path class="cls-9" d="M389.83,803.49s-2.39,13.65-14.57,15c0,0-151.82,14.87-175.1-16.44-.28-.38,0-104.81,0-104.81s2-11.22,16.71-13.75c0,0,6-15.21,22.24-15.25H215s-28.49,0-29.43,31.94S186,833,186,833l14.14.28L389.74,833Z" transform="translate(-25 -95)"/><ellipse class="cls-15" cx="272" cy="484.87" rx="68.58" ry="64.69"/><polygon class="cls-16" points="319.13 465.88 312.15 499.38 231.2 524.5 232.59 496.58 319.13 465.88"/><path class="cls-17" d="M292.75,533s28.39,6.14,51.38,27.91l-86.53,30.7Z" transform="translate(-25 -95)"/><path class="cls-18" d="M295.28,549c1.43,3.2,3.48,3.6,5.91,3.3s6.08-2.81,3.79-5.64c-1-1.19-7.11-6.27-9.54-6S294.66,547.59,295.28,549Z" transform="translate(-25 -95)"/><path class="cls-19" d="M303.48,545.21s-8.2-6.38-8.2,3.77a16.16,16.16,0,0,1-1.1-4.91s-1.14-6.3,5.19-1.89A47.68,47.68,0,0,1,303.48,545.21Z" transform="translate(-25 -95)"/><path class="cls-18" d="M290.05,580.07s-3.14-13.16,22-7.8c0,0,2.79,6.75,0,9.54s-9.77,8.38-16.75,4.19S290.41,578.32,290.05,580.07Z" transform="translate(-25 -95)"/><path class="cls-19" d="M291.31,582.76s3-9,21.84-7.1l-1-3.39s-14.14-3.54-19.52,1.06C292.65,573.33,287.08,577.3,291.31,582.76Z" transform="translate(-25 -95)"/><path class="cls-18" d="M322.61,553.67s-14.23.58-5.7,7.21,14.89-1.4,11.75-3.61S326.34,553.2,322.61,553.67Z" transform="translate(-25 -95)"/><path class="cls-19" d="M329.45,558.52s-6.08-4.83-15.31-1.22c0,0-.16-1.73,2.12-2.46,2.1-.67,5-2.36,8.16-1.81C324.42,553,329.21,555.4,329.45,558.52Z" transform="translate(-25 -95)"/><path class="cls-18" d="M289.93,559.72s-2.56-.05-1.63-3.87,5.59.7,4.07,1.94S292,559.37,289.93,559.72Z" transform="translate(-25 -95)"/><path class="cls-19" d="M288.5,558.9s.76-3.6,3.67-3a3.62,3.62,0,0,0-1.28-1.16,1.56,1.56,0,0,0-2.54,1S287.73,557.82,288.5,558.9Z" transform="translate(-25 -95)"/><path class="cls-18" d="M269.37,607.37s-3.05-4.18,9.25-11.25c0,0,10,.09,8.11,3.14s-1,6.54-5.67,8.11S273.12,611.91,269.37,607.37Z" transform="translate(-25 -95)"/><path class="cls-19" d="M270.17,603a23,23,0,0,1,8.45-6.89s9.17.15,8.39,2.4c-1,2.8-1.37,3.62-1.37,3.62s.08-3.53-7.8-2.38c0,0-4.22,1.74-8.44,7.67C269.4,607.43,268.12,606.45,270.17,603Z" transform="translate(-25 -95)"/><path class="cls-18" d="M316.34,600.83s-1.29-5.87,8.71-9.25a50.46,50.46,0,0,0,6.52,1.17s4.09.16,1.58,2.87Z" transform="translate(-25 -95)"/><path class="cls-19" d="M316.4,599.09s1.3-4.08,9.44-5.45a18.75,18.75,0,0,1,8,.06c-.87-2.12-8.72-2.16-8.72-2.16s-4.48,1.4-6.5,3.63A6.84,6.84,0,0,0,316.4,599.09Z" transform="translate(-25 -95)"/><polygon class="cls-20" points="186.45 281.7 349.98 162.88 349.98 281.7 186.45 281.7"/><polygon class="cls-20" points="349.98 281.7 513.52 162.88 513.52 281.7 349.98 281.7"/><polygon class="cls-20" points="513.52 281.7 677.05 162.88 677.05 281.7 513.52 281.7"/><path class="cls-9" d="M244.36,352.79s-9.3,12.58-6.47,13.53S375,365.6,375,365.6v11.1H211.46Z" transform="translate(-25 -95)"/><path class="cls-9" d="M407.9,352.79s-9.31,12.58-6.47,13.53,137.09-.72,137.09-.72v11.1H375Z" transform="translate(-25 -95)"/><path class="cls-9" d="M571.43,352.79s-9.3,12.58-6.47,13.53,137.09-.72,137.09-.72v11.1H538.52Z" transform="translate(-25 -95)"/><path class="cls-21" d="M482.71,865.29c-6.65,0,0-235.11,197.49-235.11S873,865.29,873,865.29Z" transform="translate(-25 -95)"/><g class="cls-22"><polygon class="cls-23" points="467.05 741.99 409.76 753.93 391.46 809.51 430.44 853.15 487.73 841.22 506.03 785.63 467.05 741.99"/><polygon class="cls-23" points="564.09 773.38 506.8 785.32 488.5 840.9 527.48 884.54 584.77 872.6 603.07 817.02 564.09 773.38"/><polygon class="cls-23" points="543.33 673.75 486.04 685.69 467.74 741.27 506.72 784.91 564.01 772.98 582.31 717.39 543.33 673.75"/><polygon class="cls-23" points="446.24 642.17 388.96 654.11 370.65 709.69 409.64 753.33 466.92 741.39 485.23 685.81 446.24 642.17"/><polygon class="cls-23" points="638.59 706.24 581.3 718.18 563 773.76 601.98 817.4 659.27 805.46 677.57 749.88 638.59 706.24"/><polygon class="cls-23" points="618.97 606.17 561.68 618.11 543.38 673.69 582.36 717.33 639.64 705.39 657.95 649.81 618.97 606.17"/><polygon class="cls-23" points="522.82 575.35 465.53 587.29 447.23 642.87 486.21 686.51 543.5 674.57 561.8 618.99 522.82 575.35"/><polygon class="cls-23" points="598.22 506.63 540.93 518.56 522.63 574.15 561.61 617.79 618.9 605.85 637.2 550.27 598.22 506.63"/><polygon class="cls-23" points="693.49 539.77 636.2 551.72 617.9 607.3 656.88 650.94 714.17 639 732.47 583.42 693.49 539.77"/><polygon class="cls-23" points="714.71 638.65 657.42 650.59 639.12 706.17 678.1 749.81 735.38 737.87 753.69 682.29 714.71 638.65"/><polygon class="cls-23" points="735.35 737.68 678.06 749.62 659.75 805.2 698.74 848.85 756.02 836.91 774.33 781.32 735.35 737.68"/><polygon class="cls-23" points="811.67 670.17 754.38 682.11 736.08 737.69 775.06 781.33 832.35 769.39 850.65 713.81 811.67 670.17"/><polygon class="cls-23" points="908.54 701.75 851.26 713.69 832.95 769.27 871.94 812.91 929.22 800.97 947.53 745.39 908.54 701.75"/><polygon class="cls-23" points="790.87 570.34 733.58 582.28 715.28 637.87 754.26 681.51 811.55 669.57 829.85 613.99 790.87 570.34"/><polygon class="cls-23" points="887.75 601.97 830.46 613.91 812.16 669.49 851.14 713.13 908.43 701.19 926.73 645.61 887.75 601.97"/><polygon class="cls-23" points="767.83 471.27 710.54 483.21 692.24 538.79 731.22 582.44 788.51 570.5 806.81 514.92 767.83 471.27"/></g><path class="cls-14" d="M485,815.05s157.5,87.47,384.46,4.66A384.49,384.49,0,0,1,873,865.29H482.71S478.32,849,485,815.05Z" transform="translate(-25 -95)"/></svg>