<svg xmlns="http://www.w3.org/2000/svg" xmlns:xlink="http://www.w3.org/1999/xlink" viewBox="0 0 683.83 697.85"><defs><style>.cls-1,.cls-26,.cls-4{fill:none;}.cls-2{fill:#fefefe;}.cls-3{clip-path:url(#clip-path);}.cls-4{stroke:#b7b7b7;stroke-width:5.2px;}.cls-5{fill:#ccc;}.cls-6{fill:#eaeaea;}.cls-7{fill:#fff;stroke:#000;}.cls-14,.cls-18,.cls-26,.cls-7{stroke-miterlimit:10;}.cls-14,.cls-7{stroke-width:0.42px;}.cls-8{fill:#efeded;}.cls-9{fill:#e5b55e;}.cls-10{fill:#1c1919;}.cls-11{fill:#161616;}.cls-12{fill:#f4c6f4;}.cls-13{fill:#333;}.cls-14{fill:#fcfcfc;stroke:#333;}.cls-15{fill:#b791bc;}.cls-16{fill:#2b2b2b;}.cls-17{fill:#c69636;}.cls-18{fill:#dfe5e8;stroke:#5b6970;stroke-width:1.68px;opacity:0.19;}.cls-19{fill:#99814b;}.cls-20{fill:#baa05a;}.cls-21{opacity:0.2;}.cls-22{fill:#8e2129;}.cls-23{fill:#101010;}.cls-24{fill:#421717;}.cls-25{fill:#e6e6e6;}.cls-26{stroke:#e6e6e6;stroke-width:10px;}.cls-27{fill:#ececec;}.cls-28{fill:#442815;}</style><clipPath id="clip-path" transform="translate(-206.17 -114.44)"><ellipse class="cls-1" cx="425.75" cy="290.25" rx="118.08" ry="109.31"/></clipPath></defs><title>Farm lvl 2</title><g id="Layer_1" data-name="Layer 1"><ellipse class="cls-2" cx="219.58" cy="175.8" rx="118.08" ry="109.31"/><g class="cls-3"><polygon class="cls-4" points="81.3 208.73 38.84 217.81 25.28 260.07 54.17 293.26 96.62 284.18 110.19 241.91 81.3 208.73"/><polygon class="cls-4" points="153.21 232.59 110.76 241.67 97.19 283.94 126.08 317.12 168.54 308.04 182.1 265.78 153.21 232.59"/><polygon class="cls-4" points="137.83 156.83 95.37 165.91 81.81 208.18 110.7 241.37 153.15 232.29 166.72 190.02 137.83 156.83"/><polygon class="cls-4" points="65.88 132.82 23.43 141.9 9.86 184.16 38.75 217.35 81.2 208.27 94.77 166 65.88 132.82"/><polygon class="cls-4" points="208.43 181.54 165.97 190.62 152.41 232.88 181.3 266.07 223.75 256.99 237.31 214.72 208.43 181.54"/><polygon class="cls-4" points="193.88 105.44 151.43 114.52 137.86 156.79 166.75 189.97 209.21 180.9 222.77 138.63 193.88 105.44"/><polygon class="cls-4" points="122.63 82 80.17 91.08 66.61 133.35 95.5 166.53 137.95 157.46 151.52 115.19 122.63 82"/><polygon class="cls-4" points="178.51 29.75 136.05 38.82 122.49 81.09 151.38 114.28 193.83 105.2 207.4 62.93 178.51 29.75"/><polygon class="cls-4" points="249.11 54.95 206.66 64.03 193.09 106.3 221.98 139.49 264.44 130.41 278 88.14 249.11 54.95"/><polygon class="cls-4" points="264.83 130.14 222.38 139.22 208.81 181.49 237.7 214.67 280.16 205.59 293.72 163.33 264.83 130.14"/><polygon class="cls-4" points="280.13 205.45 237.67 214.53 224.11 256.79 253 289.98 295.45 280.9 309.02 238.63 280.13 205.45"/><polygon class="cls-4" points="336.69 154.11 294.24 163.19 280.67 205.45 309.56 238.64 352.02 229.56 365.58 187.29 336.69 154.11"/><polygon class="cls-4" points="408.48 178.12 366.03 187.2 352.46 229.47 381.35 262.65 423.81 253.57 437.37 211.31 408.48 178.12"/><polygon class="cls-4" points="321.27 78.2 278.82 87.28 265.25 129.54 294.14 162.73 336.6 153.65 350.16 111.39 321.27 78.2"/><polygon class="cls-4" points="393.07 102.25 350.62 111.33 337.05 153.59 365.94 186.78 408.4 177.7 421.96 135.43 393.07 102.25"/><polygon class="cls-4" points="304.2 2.86 261.75 11.94 248.18 54.21 277.07 87.39 319.53 78.32 333.09 36.05 304.2 2.86"/></g><path class="cls-5" d="M752.33,756.68l-.86,40.87a14,14,0,0,1-12.13.69l1.38-39.87S747.65,751.52,752.33,756.68Z" transform="translate(-206.17 -114.44)"/><path class="cls-5" d="M689.23,756,688,796.16a15.49,15.49,0,0,1-12.13,0l1.73-38.49S684.55,750.83,689.23,756Z" transform="translate(-206.17 -114.44)"/><path class="cls-6" d="M746.38,697.32s-42-3.36-69.38-1.44c0,0-14.22-.08-15,12.08-2.23,33.64-1,40.59-1,40.59s-1.85,11.83,15.83,11.83c17.46,0,9,.17,62.07-.15,0,0,17.72,1.39,17.44-13.17s1-38.86,1-38.86S758.88,697.77,746.38,697.32Z" transform="translate(-206.17 -114.44)"/><path class="cls-7" d="M762.05,676.72" transform="translate(-206.17 -114.44)"/><path class="cls-8" d="M780.6,710.17c0,18-1.74,32.6-18.73,32.6-18,0-18.67-14.6-18.72-32.6s2.7-32.65,18.72-32.59S780.6,692.17,780.6,710.17Z" transform="translate(-206.17 -114.44)"/><path class="cls-9" d="M766.33,678a14.4,14.4,0,0,1,9.06,5.9s-2.07-8.76-3.81-11.54S766.33,678,766.33,678Z" transform="translate(-206.17 -114.44)"/><path class="cls-10" d="M777.79,688.52s16.33,13.33,10.78,18.88-8,3.55-8,3.55A88.21,88.21,0,0,0,777.79,688.52Z" transform="translate(-206.17 -114.44)"/><path class="cls-10" d="M745.92,688.33s-9,5.55-12.48,15.26c0,0-1,4.85,4.51,7.62,3.84,1.92,5.2-1,5.2-1S743.88,692.3,745.92,688.33Z" transform="translate(-206.17 -114.44)"/><path class="cls-11" d="M739.18,798.18c-1-.5-.24-6.07-.24-6.07,8,2.94,12.71,0,12.71,0a25.76,25.76,0,0,1,0,6.07C751.56,798.75,743.51,800.43,739.18,798.18Z" transform="translate(-206.17 -114.44)"/><path class="cls-11" d="M675.76,796.25c-1-.5-.24-6.07-.24-6.07,8,3,12.7,0,12.7,0a25.52,25.52,0,0,1,0,6.07C688.14,796.82,680.09,798.5,675.76,796.25Z" transform="translate(-206.17 -114.44)"/><path class="cls-6" d="M667.45,758.37s-1,43.34-.35,45.77c0,0,5.2,2.42,12.48,0l-.1-44.51S673.1,747.67,667.45,758.37Z" transform="translate(-206.17 -114.44)"/><path class="cls-6" d="M728.94,758s-1,43.34-.35,45.77c0,0,5.2,2.43,12.48,0l-.1-44.51S734.59,747.32,728.94,758Z" transform="translate(-206.17 -114.44)"/><path class="cls-6" d="M663.46,702.09s-14.27,26.11-15,58.36c0,0,7.59-34,13.17-42.3Z" transform="translate(-206.17 -114.44)"/><path class="cls-10" d="M643.64,759.76s5.2-3.82,10.75,1.73-8.67,16.29-9.36,21.15c0,0-6.59-4.51-6.94-9S638.09,763.57,643.64,759.76Z" transform="translate(-206.17 -114.44)"/><path class="cls-12" d="M780.33,719.83s-15.63-3.17-37,0c0,0-3,23.63,18.52,23.28C783.71,742.76,780.06,717,780.33,719.83Z" transform="translate(-206.17 -114.44)"/><path class="cls-13" d="M778.17,689.72s-15.26-4.51-15.26,9.71c0,13.52,17.69,10.74,17.69,10.74A83,83,0,0,0,778.17,689.72Z" transform="translate(-206.17 -114.44)"/><ellipse class="cls-14" cx="565.76" cy="585.33" rx="1.73" ry="4.51"/><ellipse class="cls-14" cx="545.48" cy="585.85" rx="1.73" ry="4.51"/><ellipse class="cls-15" cx="563.68" cy="616.54" rx="2.08" ry="3.81"/><ellipse class="cls-15" cx="546.69" cy="617.23" rx="2.08" ry="3.81"/><path class="cls-13" d="M756.35,746.9a20.15,20.15,0,0,0-17-6.21c-11.1,1-12.62,14.59-11,19.6l12.72-.06S757.4,760.29,756.35,746.9Z" transform="translate(-206.17 -114.44)"/><ellipse class="cls-13" cx="485.15" cy="626.24" rx="13" ry="11.44"/><path class="cls-13" d="M705,695.36s5.41,39.86-43.93,28.2l.72-13s-1.59-13.09,13.36-14.52A229.23,229.23,0,0,1,705,695.36Z" transform="translate(-206.17 -114.44)"/><path class="cls-16" d="M728.59,803.79c-1-.5-.24-6.07-.24-6.07,8,2.95,12.71,0,12.71,0a25.76,25.76,0,0,1,0,6.07C741,804.36,732.92,806,728.59,803.79Z" transform="translate(-206.17 -114.44)"/><path class="cls-16" d="M667.13,804.07c-1-.5-.23-6.07-.23-6.07,8,3,12.7,0,12.7,0a25.52,25.52,0,0,1,0,6.07C679.52,804.65,671.47,806.33,667.13,804.07Z" transform="translate(-206.17 -114.44)"/><path class="cls-17" d="M774.3,679.92a9.19,9.19,0,0,0-1.6-1.33,8.7,8.7,0,0,0-1.81-1,12.14,12.14,0,0,0-1.93-.49c-.65-.18-1.31-.23-2-.39v-.09a4.35,4.35,0,0,1,2.17-.36,5.17,5.17,0,0,1,2.08.72,9,9,0,0,1,3.2,2.84Z" transform="translate(-206.17 -114.44)"/><path class="cls-17" d="M773,675.64a4,4,0,0,0-2.16-1.23,10.4,10.4,0,0,0-1.24-.12c-.42,0-.84,0-1.28-.1v0a3.61,3.61,0,0,1,1.3-.28,3.74,3.74,0,0,1,1.32.22,3.82,3.82,0,0,1,2.11,1.53Z" transform="translate(-206.17 -114.44)"/><path class="cls-9" d="M757.4,678a14.36,14.36,0,0,0-9,5.9s2.07-8.76,3.8-11.54S757.4,678,757.4,678Z" transform="translate(-206.17 -114.44)"/><path class="cls-17" d="M749.36,679.87a9,9,0,0,1,3.2-2.84,5.16,5.16,0,0,1,2.09-.72,4.32,4.32,0,0,1,2.16.36v.09c-.72.16-1.38.21-2,.39a12.14,12.14,0,0,0-1.93.49,8.7,8.7,0,0,0-1.81,1,9.19,9.19,0,0,0-1.6,1.33Z" transform="translate(-206.17 -114.44)"/><path class="cls-17" d="M750.71,675.62a4.29,4.29,0,0,1,3.42-1.75,3.61,3.61,0,0,1,1.3.28v0c-.45.06-.87,0-1.29.1a10.4,10.4,0,0,0-1.24.12,4.07,4.07,0,0,0-2.16,1.23Z" transform="translate(-206.17 -114.44)"/><ellipse class="cls-18" cx="763.98" cy="711.25" rx="42.91" ry="43.83" transform="translate(-172.41 1342.67) rotate(-88.56)"/><rect class="cls-19" x="383.03" y="639.54" width="252.47" height="12.37"/><rect class="cls-19" x="383.03" y="674.61" width="252.47" height="12.37"/><polygon class="cls-20" points="635.5 694.51 635.5 486.57 621.85 476.45 608.82 486.43 608.82 694.51 635.5 694.51"/><polygon class="cls-20" points="576.57 694.51 576.57 635.57 562.92 625.46 549.89 635.43 549.89 694.51 576.57 694.51"/><polygon class="cls-20" points="524.66 694.51 524.66 635.57 511.01 625.46 497.99 635.43 497.99 694.51 524.66 694.51"/><polygon class="cls-20" points="466.94 694.51 466.94 635.57 453.29 625.46 440.26 635.43 440.26 694.51 466.94 694.51"/><polygon class="cls-20" points="409.7 694.51 409.7 635.57 396.05 625.46 383.02 635.43 383.02 694.51 409.7 694.51"/><path class="cls-21" d="M841.67,793.78a225,225,0,0,1-26.68,4.9c-13.88,1.65-93.13,2.74-110.84,2.74V809h26.68v-7.54h25.22V809h26.68v-7.54H815V809h26.68Z" transform="translate(-206.17 -114.44)"/><path class="cls-21" d="M673.11,802.19s-19.9,1-26.68,1.13V809h26.68Z" transform="translate(-206.17 -114.44)"/><path class="cls-21" d="M615.87,804.11s-22.11.6-26.68.69V809h26.68Z" transform="translate(-206.17 -114.44)"/><rect class="cls-22" x="12.67" y="323.64" width="409" height="371" rx="12" ry="12"/><polygon class="cls-22" points="16.67 326.72 101.67 274.29 337.67 274.29 416.77 325.99 16.67 326.72"/><path class="cls-22" d="M307.83,387V332a11.71,11.71,0,0,1,8-11l103.12-35.1a12,12,0,0,1,6.88-.28L536,323.45a11.72,11.72,0,0,1,8.86,11.32V387A11.77,11.77,0,0,1,533,398.73H319.68A11.78,11.78,0,0,1,307.83,387Z" transform="translate(-206.17 -114.44)"/><path class="cls-23" d="M491.17,639H369.83a24.33,24.33,0,0,0-24.33,24.33s-6,145.67,0,145.67h170c6,4,0-145.67,0-145.67A24.33,24.33,0,0,0,491.17,639Z" transform="translate(-206.17 -114.44)"/><rect class="cls-24" x="64.67" y="520.3" width="93" height="174"/><path class="cls-25" d="M360.33,638.25v167h-86v-167h86m7-7h-100v181h100v-181Z" transform="translate(-206.17 -114.44)"/><rect class="cls-24" x="277.17" y="520.3" width="93" height="174"/><path class="cls-25" d="M572.83,638.25v167h-86v-167h86m7-7h-100v181h100v-181Z" transform="translate(-206.17 -114.44)"/><rect class="cls-24" x="145.17" y="273.3" width="145" height="140" rx="13.33" ry="13.33"/><path class="cls-25" d="M483,392.25a8.84,8.84,0,0,1,8.83,8.83V514.41a8.85,8.85,0,0,1-8.83,8.84H364.67a8.86,8.86,0,0,1-8.84-8.84V401.08a8.85,8.85,0,0,1,8.84-8.83H483m0-9H364.67a17.83,17.83,0,0,0-17.84,17.83V514.41a17.84,17.84,0,0,0,17.84,17.84H483a17.83,17.83,0,0,0,17.83-17.84V401.08A17.83,17.83,0,0,0,483,383.25Z" transform="translate(-206.17 -114.44)"/><line class="cls-26" x1="67.67" y1="692.47" x2="155.33" y2="522.47"/><line class="cls-26" x1="155.33" y1="692.3" x2="67.67" y2="522.3"/><line class="cls-26" x1="279.83" y1="692.55" x2="367.5" y2="522.55"/><line class="cls-26" x1="367.5" y1="692.39" x2="279.83" y2="522.39"/><line class="cls-26" x1="150" y1="408.47" x2="283.33" y2="278.14"/><line class="cls-26" x1="286.83" y1="408.47" x2="153.5" y2="278.14"/><polygon class="cls-25" points="101.67 274.29 0 343.3 16.67 320.47 101.67 263.34 101.67 274.29"/><path class="cls-25" d="M543.83,388.73" transform="translate(-206.17 -114.44)"/><polygon class="cls-25" points="338.67 260.05 421.55 318.35 442.17 346.55 338.55 275.35 338.67 260.05"/><polygon class="cls-27" points="101.67 218.29 216.72 180.8 338.67 220.33 363.67 220.33 216.72 168.47 75.67 217.47 101.67 218.29"/><path class="cls-21" d="M307.67,388.58" transform="translate(-206.17 -114.44)"/><polygon class="cls-21" points="101.79 274.29 12.67 334.7 12.67 344.99 101.79 284.29 101.79 274.29"/><polygon class="cls-21" points="421.67 332.47 421.67 341.29 338.55 284.29 338.55 275.35 421.67 332.47"/><polygon class="cls-21" points="101.67 218.29 216.72 180.8 338.67 220.33 338.67 226.31 215.79 188.14 101.79 223.87 101.67 218.29"/><path class="cls-21" d="M347.1,517.49s2.48,11.63,12.57,14c0,0,123.48-.12,123.33.72,0,0,12.33,0,17.56-14.76l-5.1,21.26H352.21Z" transform="translate(-206.17 -114.44)"/><path class="cls-21" d="M218.83,785.67s5,9.75,13.25,10,29.25.56,29.25.56V634.31l6-2.06V809.08h-36.5s-12-.42-12-12Z" transform="translate(-206.17 -114.44)"/><path class="cls-21" d="M267.33,798.14s100-.11,100,0v14.11h-100Z" transform="translate(-206.17 -114.44)"/><path class="cls-21" d="M479.74,798.19s100-.11,100,0v14.1h-100Z" transform="translate(-206.17 -114.44)"/><path d="M521.33,823.25" transform="translate(-206.17 -114.44)"/><path class="cls-21" d="M628.33,785.54s-5,9.75-13.25,10-29.25.57-29.25.57V634.18l-6-2.06V809h36.5s12-.42,12-12Z" transform="translate(-206.17 -114.44)"/></g><g id="Layer_2" data-name="Layer 2"><polygon class="cls-28" points="421.67 486.23 635.83 486.56 421.67 414.89 421.67 486.23"/><polygon class="cls-25" points="421.67 399.56 683.83 492.56 635.83 486.56 421.83 414.56 421.67 399.56"/></g><g id="Layer_3" data-name="Layer 3"><polygon class="cls-21" points="421.83 414.56 635.83 486.56 608.82 486.43 421.67 425.06 421.83 414.56"/><path class="cls-21" d="M815,601s21,2,21,23-.08,171.12-.08,171.12l5.75-1.34L842,601Z" transform="translate(-206.17 -114.44)"/></g></svg>