<svg id="Layer_1" data-name="Layer 1" xmlns="http://www.w3.org/2000/svg" xmlns:xlink="http://www.w3.org/1999/xlink" viewBox="0 0 683.83 697.87"><defs><style>.cls-1,.cls-26,.cls-30,.cls-4{fill:none;}.cls-2{fill:#fefefe;}.cls-3{clip-path:url(#clip-path);}.cls-4{stroke:#b7b7b7;stroke-width:5.25px;}.cls-5{fill:#ccc;}.cls-6{fill:#eaeaea;}.cls-7{fill:#fff;stroke:#000;}.cls-14,.cls-18,.cls-26,.cls-30,.cls-7{stroke-miterlimit:10;}.cls-14,.cls-7{stroke-width:0.42px;}.cls-8{fill:#efeded;}.cls-9{fill:#e5b55e;}.cls-10{fill:#1c1919;}.cls-11{fill:#161616;}.cls-12{fill:#f4c6f4;}.cls-13{fill:#333;}.cls-14{fill:#fcfcfc;stroke:#333;}.cls-15{fill:#b791bc;}.cls-16{fill:#2b2b2b;}.cls-17{fill:#c69636;}.cls-18{fill:#dfe5e8;stroke:#5b6970;stroke-width:1.68px;opacity:0.19;}.cls-19{fill:#99814b;}.cls-20{fill:#baa05a;}.cls-21{opacity:0.2;}.cls-22{fill:#8e2129;}.cls-23{fill:#101010;}.cls-24{fill:#421717;}.cls-25{fill:#e6e6e6;}.cls-26,.cls-30{stroke:#e6e6e6;}.cls-26{stroke-width:10px;}.cls-27{fill:#ececec;}.cls-28{fill:#d8911e;}.cls-29{fill:#442815;}.cls-30{stroke-width:6.34px;}</style><clipPath id="clip-path" transform="translate(-158.17 -146.42)"><ellipse class="cls-1" cx="379.83" cy="322.25" rx="120.17" ry="109.31"/></clipPath></defs><title>Farm lvl 3</title><ellipse class="cls-2" cx="221.67" cy="175.82" rx="120.17" ry="109.31"/><g class="cls-3"><polygon class="cls-4" points="80.94 208.74 37.74 217.82 23.93 260.09 53.33 293.27 96.54 284.2 110.34 241.93 80.94 208.74"/><polygon class="cls-4" points="154.13 232.61 110.92 241.69 97.12 283.95 126.52 317.14 169.72 308.06 183.53 265.8 154.13 232.61"/><polygon class="cls-4" points="138.47 156.85 95.26 165.93 81.46 208.2 110.86 241.38 154.06 232.3 167.87 190.04 138.47 156.85"/><polygon class="cls-4" points="65.25 132.84 22.05 141.91 8.24 184.18 37.64 217.37 80.85 208.29 94.65 166.02 65.25 132.84"/><polygon class="cls-4" points="210.31 181.56 167.11 190.63 153.31 232.9 182.7 266.09 225.91 257.01 239.71 214.74 210.31 181.56"/><polygon class="cls-4" points="195.51 105.46 152.31 114.54 138.5 156.81 167.9 189.99 211.11 180.91 224.91 138.65 195.51 105.46"/><polygon class="cls-4" points="123 82.02 79.8 91.1 65.99 133.37 95.39 166.55 138.6 157.47 152.4 115.21 123 82.02"/><polygon class="cls-4" points="179.86 29.76 136.66 38.84 122.86 81.11 152.26 114.29 195.46 105.22 209.26 62.95 179.86 29.76"/><polygon class="cls-4" points="251.71 54.97 208.51 64.05 194.71 106.32 224.11 139.5 267.31 130.42 281.11 88.16 251.71 54.97"/><polygon class="cls-4" points="267.71 130.16 224.51 139.24 210.71 181.5 240.11 214.69 283.31 205.61 297.11 163.34 267.71 130.16"/><polygon class="cls-4" points="283.28 205.47 240.08 214.54 226.27 256.81 255.67 290 298.88 280.92 312.68 238.65 283.28 205.47"/><polygon class="cls-4" points="340.84 154.12 297.64 163.2 283.83 205.47 313.23 238.66 356.44 229.58 370.24 187.31 340.84 154.12"/><polygon class="cls-4" points="413.9 178.14 370.69 187.22 356.89 229.49 386.29 262.67 429.49 253.59 443.3 211.33 413.9 178.14"/><polygon class="cls-4" points="325.15 78.22 281.95 87.3 268.14 129.56 297.54 162.75 340.75 153.67 354.55 111.4 325.15 78.22"/><polygon class="cls-4" points="398.21 102.27 355.01 111.34 341.21 153.61 370.61 186.8 413.81 177.72 427.61 135.45 398.21 102.27"/><polygon class="cls-4" points="307.78 2.88 264.57 11.96 250.77 54.23 280.17 87.41 323.37 78.33 337.18 36.07 307.78 2.88"/></g><path class="cls-5" d="M704.33,788.68l-.86,40.87a14,14,0,0,1-12.13.69l1.38-39.87S699.65,783.52,704.33,788.68Z" transform="translate(-158.17 -146.42)"/><path class="cls-5" d="M641.23,788,640,828.16a15.49,15.49,0,0,1-12.13,0l1.73-38.49S636.55,782.83,641.23,788Z" transform="translate(-158.17 -146.42)"/><path class="cls-6" d="M698.38,729.32s-42-3.36-69.38-1.44c0,0-14.22-.08-15,12.08-2.23,33.64-1,40.59-1,40.59s-1.85,11.83,15.83,11.83c17.46,0,9,.17,62.07-.15,0,0,17.72,1.39,17.44-13.17s1-38.86,1-38.86S710.88,729.77,698.38,729.32Z" transform="translate(-158.17 -146.42)"/><path class="cls-7" d="M714.05,708.72" transform="translate(-158.17 -146.42)"/><path class="cls-8" d="M732.6,742.17c0,18-1.74,32.6-18.73,32.6-18,0-18.67-14.6-18.72-32.6s2.7-32.65,18.72-32.59S732.6,724.17,732.6,742.17Z" transform="translate(-158.17 -146.42)"/><path class="cls-9" d="M718.33,710a14.4,14.4,0,0,1,9.06,5.9s-2.07-8.76-3.81-11.54S718.33,710,718.33,710Z" transform="translate(-158.17 -146.42)"/><path class="cls-10" d="M729.79,720.52s16.33,13.33,10.78,18.88-8,3.55-8,3.55A88.21,88.21,0,0,0,729.79,720.52Z" transform="translate(-158.17 -146.42)"/><path class="cls-10" d="M697.92,720.33s-9,5.55-12.48,15.26c0,0-1,4.85,4.51,7.62,3.84,1.92,5.2-1,5.2-1S695.88,724.3,697.92,720.33Z" transform="translate(-158.17 -146.42)"/><path class="cls-11" d="M691.18,830.18c-1-.5-.24-6.07-.24-6.07,8,2.94,12.71,0,12.71,0a25.76,25.76,0,0,1,0,6.07C703.56,830.75,695.51,832.43,691.18,830.18Z" transform="translate(-158.17 -146.42)"/><path class="cls-11" d="M627.76,828.25c-1-.5-.24-6.07-.24-6.07,8,3,12.7,0,12.7,0a25.52,25.52,0,0,1,0,6.07C640.14,828.82,632.09,830.5,627.76,828.25Z" transform="translate(-158.17 -146.42)"/><path class="cls-6" d="M619.45,790.37s-1,43.34-.35,45.77c0,0,5.2,2.42,12.48,0l-.1-44.51S625.1,779.67,619.45,790.37Z" transform="translate(-158.17 -146.42)"/><path class="cls-6" d="M680.94,790s-1,43.34-.35,45.77c0,0,5.2,2.43,12.48,0l-.1-44.51S686.59,779.32,680.94,790Z" transform="translate(-158.17 -146.42)"/><path class="cls-6" d="M615.46,734.09s-14.27,26.11-15,58.36c0,0,7.59-34,13.17-42.3Z" transform="translate(-158.17 -146.42)"/><path class="cls-10" d="M595.64,791.76s5.2-3.82,10.75,1.73-8.67,16.29-9.36,21.15c0,0-6.59-4.51-6.94-9S590.09,795.57,595.64,791.76Z" transform="translate(-158.17 -146.42)"/><path class="cls-12" d="M732.33,751.83s-15.63-3.17-37,0c0,0-3,23.63,18.52,23.28C735.71,774.76,732.06,749,732.33,751.83Z" transform="translate(-158.17 -146.42)"/><path class="cls-13" d="M730.17,721.72s-15.26-4.51-15.26,9.71c0,13.52,17.69,10.74,17.69,10.74A83,83,0,0,0,730.17,721.72Z" transform="translate(-158.17 -146.42)"/><ellipse class="cls-14" cx="565.76" cy="585.35" rx="1.73" ry="4.51"/><ellipse class="cls-14" cx="545.48" cy="585.87" rx="1.73" ry="4.51"/><ellipse class="cls-15" cx="563.68" cy="616.55" rx="2.08" ry="3.81"/><ellipse class="cls-15" cx="546.69" cy="617.25" rx="2.08" ry="3.81"/><path class="cls-13" d="M708.35,778.9a20.15,20.15,0,0,0-17-6.21c-11.1,1-12.62,14.59-11,19.6l12.72-.06S709.4,792.29,708.35,778.9Z" transform="translate(-158.17 -146.42)"/><ellipse class="cls-13" cx="485.15" cy="626.26" rx="13" ry="11.44"/><path class="cls-13" d="M657,727.36s5.41,39.86-43.93,28.2l.72-13s-1.59-13.09,13.36-14.52A229.23,229.23,0,0,1,657,727.36Z" transform="translate(-158.17 -146.42)"/><path class="cls-16" d="M680.59,835.79c-1-.5-.24-6.07-.24-6.07,8,2.95,12.71,0,12.71,0a25.76,25.76,0,0,1,0,6.07C693,836.36,684.92,838,680.59,835.79Z" transform="translate(-158.17 -146.42)"/><path class="cls-16" d="M619.13,836.07c-1-.5-.23-6.07-.23-6.07,8,3,12.7,0,12.7,0a25.52,25.52,0,0,1,0,6.07C631.52,836.65,623.47,838.33,619.13,836.07Z" transform="translate(-158.17 -146.42)"/><path class="cls-17" d="M726.3,711.92a9.19,9.19,0,0,0-1.6-1.33,8.7,8.7,0,0,0-1.81-1,12.14,12.14,0,0,0-1.93-.49c-.65-.18-1.31-.23-2-.39v-.09a4.35,4.35,0,0,1,2.17-.36,5.17,5.17,0,0,1,2.08.72,9,9,0,0,1,3.2,2.84Z" transform="translate(-158.17 -146.42)"/><path class="cls-17" d="M725,707.64a4,4,0,0,0-2.16-1.23,10.4,10.4,0,0,0-1.24-.12c-.42,0-.84,0-1.28-.1v0a3.61,3.61,0,0,1,1.3-.28,3.74,3.74,0,0,1,1.32.22,3.82,3.82,0,0,1,2.11,1.53Z" transform="translate(-158.17 -146.42)"/><path class="cls-9" d="M709.4,710a14.36,14.36,0,0,0-9,5.9s2.07-8.76,3.8-11.54S709.4,710,709.4,710Z" transform="translate(-158.17 -146.42)"/><path class="cls-17" d="M701.36,711.87a9,9,0,0,1,3.2-2.84,5.16,5.16,0,0,1,2.09-.72,4.32,4.32,0,0,1,2.16.36v.09c-.72.16-1.38.21-2,.39a12.14,12.14,0,0,0-1.93.49,8.7,8.7,0,0,0-1.81,1,9.19,9.19,0,0,0-1.6,1.33Z" transform="translate(-158.17 -146.42)"/><path class="cls-17" d="M702.71,707.62a4.29,4.29,0,0,1,3.42-1.75,3.61,3.61,0,0,1,1.3.28v0c-.45.06-.87,0-1.29.1a10.4,10.4,0,0,0-1.24.12,4.07,4.07,0,0,0-2.16,1.23Z" transform="translate(-158.17 -146.42)"/><ellipse class="cls-18" cx="715.98" cy="743.25" rx="42.91" ry="43.83" transform="translate(-203.2 1293.89) rotate(-88.56)"/><rect class="cls-19" x="383.03" y="639.55" width="252.47" height="12.37"/><rect class="cls-19" x="383.03" y="674.63" width="252.47" height="12.37"/><polygon class="cls-20" points="635.5 694.53 635.5 486.59 621.85 476.47 608.82 486.44 608.82 694.53 635.5 694.53"/><polygon class="cls-20" points="576.57 694.53 576.57 635.59 562.92 625.47 549.89 635.45 549.89 694.53 576.57 694.53"/><polygon class="cls-20" points="524.66 694.53 524.66 635.59 511.01 625.47 497.99 635.45 497.99 694.53 524.66 694.53"/><polygon class="cls-20" points="466.94 694.53 466.94 635.59 453.29 625.47 440.26 635.45 440.26 694.53 466.94 694.53"/><polygon class="cls-20" points="409.7 694.53 409.7 635.59 396.05 625.47 383.02 635.45 383.02 694.53 409.7 694.53"/><path class="cls-21" d="M793.67,825.78a225,225,0,0,1-26.68,4.9c-13.88,1.65-93.13,2.74-110.84,2.74V841h26.68v-7.54h25.22V841h26.68v-7.54H767V841h26.68Z" transform="translate(-158.17 -146.42)"/><path class="cls-21" d="M625.11,834.19s-19.9,1-26.68,1.13V841h26.68Z" transform="translate(-158.17 -146.42)"/><path class="cls-21" d="M567.87,836.11s-22.11.6-26.68.69V841h26.68Z" transform="translate(-158.17 -146.42)"/><rect class="cls-22" x="12.67" y="323.65" width="409" height="371" rx="12" ry="12"/><polygon class="cls-22" points="16.67 326.73 101.67 274.3 337.67 274.3 416.77 326 16.67 326.73"/><path class="cls-22" d="M259.83,419V364a11.71,11.71,0,0,1,8-11l103.12-35.1a12,12,0,0,1,6.88-.28L488,355.45a11.72,11.72,0,0,1,8.86,11.32V419A11.77,11.77,0,0,1,485,430.73H271.68A11.78,11.78,0,0,1,259.83,419Z" transform="translate(-158.17 -146.42)"/><path class="cls-23" d="M443.17,671H321.83a24.33,24.33,0,0,0-24.33,24.33s-6,145.67,0,145.67h170c6,4,0-145.67,0-145.67A24.33,24.33,0,0,0,443.17,671Z" transform="translate(-158.17 -146.42)"/><rect class="cls-24" x="64.67" y="520.32" width="93" height="174"/><path class="cls-25" d="M312.33,670.25v167h-86v-167h86m7-7h-100v181h100v-181Z" transform="translate(-158.17 -146.42)"/><rect class="cls-24" x="277.17" y="520.32" width="93" height="174"/><path class="cls-25" d="M524.83,670.25v167h-86v-167h86m7-7h-100v181h100v-181Z" transform="translate(-158.17 -146.42)"/><rect class="cls-24" x="145.17" y="351.32" width="145" height="140" rx="13.33" ry="13.33"/><path class="cls-25" d="M435,502.25a8.84,8.84,0,0,1,8.83,8.83V624.41a8.85,8.85,0,0,1-8.83,8.84H316.67a8.86,8.86,0,0,1-8.84-8.84V511.08a8.85,8.85,0,0,1,8.84-8.83H435m0-9H316.67a17.83,17.83,0,0,0-17.84,17.83V624.41a17.84,17.84,0,0,0,17.84,17.84H435a17.83,17.83,0,0,0,17.83-17.84V511.08A17.83,17.83,0,0,0,435,493.25Z" transform="translate(-158.17 -146.42)"/><line class="cls-26" x1="67.67" y1="692.49" x2="155.33" y2="522.49"/><line class="cls-26" x1="155.33" y1="692.32" x2="67.67" y2="522.32"/><line class="cls-26" x1="279.83" y1="692.57" x2="367.5" y2="522.57"/><line class="cls-26" x1="367.5" y1="692.4" x2="279.83" y2="522.4"/><line class="cls-26" x1="150" y1="486.49" x2="283.33" y2="356.15"/><line class="cls-26" x1="286.83" y1="486.49" x2="153.5" y2="356.15"/><polygon class="cls-25" points="101.67 274.3 0 343.32 16.67 320.49 101.67 263.36 101.67 274.3"/><path class="cls-25" d="M495.83,420.73" transform="translate(-158.17 -146.42)"/><polygon class="cls-27" points="101.67 218.3 216.72 180.82 338.67 220.34 363.67 220.34 216.72 168.49 75.67 217.49 101.67 218.3"/><path class="cls-21" d="M259.67,420.58" transform="translate(-158.17 -146.42)"/><g id="Layer_3" data-name="Layer 3"><polygon class="cls-28" points="400.25 307.47 402.25 294.6 396.11 293.23 394.12 306.86 400.25 307.47"/><circle class="cls-28" cx="401.59" cy="285.12" r="10.12"/><polygon class="cls-28" points="407.01 277.59 411.28 261.07 405.14 259.69 400.55 276.15 407.01 277.59"/><circle class="cls-28" cx="409.65" cy="253.66" r="8.79"/><path class="cls-28" d="M572.42,392.59l2.88-18.06-4.58-1-3.86,17.85Z" transform="translate(-158.17 -146.42)"/><path class="cls-28" d="M551.66,372.24l-3.2-5.42s-21.13-4.89-21.83-4,1.64,4.78,1.64,4.78Z" transform="translate(-158.17 -146.42)"/><path class="cls-28" d="M551.49,374.8l-5,3.76s-21.39-3.65-21.7-4.71,3.36-3.78,3.36-3.78Z" transform="translate(-158.17 -146.42)"/><path class="cls-28" d="M574.33,380.59s-6.18-2.42,24.88,4.36c0,0,8.14,4.22,9.53,4.44s12.31-.81,13.4-1.5S610.43,381,610.43,381a77,77,0,0,0-10.66.75L575,376.17" transform="translate(-158.17 -146.42)"/><path class="cls-28" d="M575.3,374.53s-1-.91.38-5.35c0,0,4.71-3.61,5.06-4.8,0,0,7.84-2.83,8.57-7.59,0,0,.56-3.52-1.5-5.76a4.25,4.25,0,0,0,.67-1.17c.3-.74-1.22-1.76-1.22-1.76s-.92-.58,0-.64,1.37.31,1.07-.44a2.25,2.25,0,0,0-1.29-1,3.29,3.29,0,0,0-.91-2.75s-.39-.93-.56-.93-.54,0-.57.3c0,0,.12-1.12-1-.44,0,0-.48-.49-.89-.16,0,0-.34-1.17-.6-1.15a2,2,0,0,0-1.25,1.25c-.25.75-1.75,1.18,0,2.83l.71.63s-3.51,1.63-3.2,8.23c0,0-1.47,3.15-4.49,2.22,0,0-2.3-.13-.85-4,0,0,1.76-6.74-3.76-9.71,0,0-6-3.71-2.6.77,0,0-5.61-1.63-6-1.63s-1.4.16-.37,1.66a14.39,14.39,0,0,0-3.45,1.94,39.47,39.47,0,0,1-3.89,2.78s-2.66,1.87-1.28,2.9a8.38,8.38,0,0,0,2.31-.29s-2.09,2.5-1.16,4.06c0,0,.19.47,1,.19,0,0-1.19,3.46.11,4.27a13.11,13.11,0,0,1,2.52-2s-1.32,5.33.62,4.85c.26-.07,3.46-4.87,4.84-3.45,0,0-1.88,2.54-1.4,3a19.51,19.51,0,0,1,2.43-1s-.65,2.53-.18,2.89,1.12-2.17,1.73-2.25c0,0-.12,4.35,1.63,4.65,0,0,.67-.31.52-2.3,0,0,3.05,4.93,4.1,5a2.05,2.05,0,0,1-.77,2.29c-1.25.86-1.7,1.15-1.7,1.15a3.17,3.17,0,0,0,1.71,1.1c1,.19,0,2.16,0,2.16s-1.22.91-42.09-7.55c0,0-1.17-.09-.58,2.58l41.87,8.7" transform="translate(-158.17 -146.42)"/><path class="cls-28" d="M565.82,422.07s36.1,3.33,38.71,3.8,4.71,6.25.14,7c0,0-1.28.64-3-3.43l-34.84-4.06-2.27-1Z" transform="translate(-158.17 -146.42)"/><path class="cls-28" d="M568.74,429,586,437.76s.14,2.09,1.21,2.89c0,0,3.19,1.91,1.55-3.41,0,0,.42-1.35-3.16-3.06s-18.09-9.64-18.09-9.64L565.94,427Z" transform="translate(-158.17 -146.42)"/><path class="cls-28" d="M559.26,420.15l-28.29-14a4.22,4.22,0,0,0-1.68-.37c-.7.07-6.26,1.65-2.74,5.15,0,0,1,1.35,3.5-.68,0,0,20,9,26.11,11.78l3.05.68Z" transform="translate(-158.17 -146.42)"/><path class="cls-28" d="M552,425.12l-23.12-.92s-1.52,1.86-2.33,1.68-1.68-.45-1.4-2.09c0,0,0-3.14,3.89-3S556.16,422,556.16,422Z" transform="translate(-158.17 -146.42)"/></g><polygon class="cls-25" points="338.67 260.07 421.55 318.37 442.17 346.57 338.55 275.37 338.67 260.07"/><polygon class="cls-21" points="101.79 274.3 12.67 334.72 12.67 345 101.79 284.3 101.79 274.3"/><polygon class="cls-21" points="421.67 332.49 421.67 341.3 338.55 284.3 338.55 275.37 421.67 332.49"/><polygon class="cls-21" points="101.67 218.3 216.72 180.82 338.67 220.34 338.67 226.32 215.79 188.16 101.79 223.88 101.67 218.3"/><path class="cls-21" d="M299.1,627.49s2.48,11.63,12.57,14c0,0,123.48-.12,123.33.72,0,0,12.33,0,17.56-14.76l-5.1,21.26H304.21Z" transform="translate(-158.17 -146.42)"/><path class="cls-21" d="M170.83,817.67s5,9.75,13.25,10,29.25.56,29.25.56V666.31l6-2.06V841.08h-36.5s-12-.42-12-12Z" transform="translate(-158.17 -146.42)"/><path class="cls-21" d="M219.33,830.14s100-.11,100,0v14.11h-100Z" transform="translate(-158.17 -146.42)"/><path class="cls-21" d="M431.74,830.19s100-.11,100,0v14.1h-100Z" transform="translate(-158.17 -146.42)"/><path d="M473.33,855.25" transform="translate(-158.17 -146.42)"/><path class="cls-21" d="M580.33,817.54s-5,9.75-13.25,10-29.25.57-29.25.57V666.18l-6-2.06V841h36.5s12-.42,12-12Z" transform="translate(-158.17 -146.42)"/><polygon class="cls-29" points="421.67 486.24 635.83 486.57 421.67 414.91 421.67 486.24"/><polygon class="cls-25" points="421.67 399.57 683.83 492.57 635.83 486.57 421.83 414.57 421.67 399.57"/><polygon class="cls-21" points="421.83 414.57 635.83 486.57 608.82 486.44 421.67 425.07 421.83 414.57"/><path class="cls-21" d="M767,633s21,2,21,23-.08,171.12-.08,171.12l5.75-1.34L794,633Z" transform="translate(-158.17 -146.42)"/><rect class="cls-24" x="171.69" y="230.12" width="91.96" height="88.79" rx="14.98" ry="14.98"/><path class="cls-25" d="M406.83,379.4A12.13,12.13,0,0,1,419,391.52v58.83a12.14,12.14,0,0,1-12.13,12.13h-62a12.14,12.14,0,0,1-12.12-12.13V391.52a12.13,12.13,0,0,1,12.12-12.12h62m0-5.71h-62A17.83,17.83,0,0,0,327,391.52v58.83a17.83,17.83,0,0,0,17.83,17.83h62a17.83,17.83,0,0,0,17.84-17.83V391.52a17.83,17.83,0,0,0-17.84-17.83Z" transform="translate(-158.17 -146.42)"/><line class="cls-30" x1="174.75" y1="315.84" x2="259.31" y2="233.18"/><line class="cls-30" x1="261.53" y1="315.84" x2="176.97" y2="233.18"/><path class="cls-21" d="M327.17,458.83s1.57,7.37,8,8.9c0,0,78.31-.08,78.22.45,0,0,7.82,0,11.14-9.35l-3.24,13.48H330.41Z" transform="translate(-158.17 -146.42)"/></svg>