<svg xmlns="http://www.w3.org/2000/svg" xmlns:xlink="http://www.w3.org/1999/xlink" viewBox="0 0 683.83 697.87"><defs><style>.cls-1,.cls-27,.cls-31,.cls-36,.cls-4{fill:none;}.cls-2{fill:#fefefe;}.cls-3{clip-path:url(#clip-path);}.cls-4{stroke:#b7b7b7;stroke-width:5.25px;}.cls-5{fill:#ccc;}.cls-6{fill:#eaeaea;}.cls-32,.cls-7{fill:#fff;stroke:#000;}.cls-14,.cls-18,.cls-27,.cls-31,.cls-32,.cls-33,.cls-34,.cls-36,.cls-7{stroke-miterlimit:10;}.cls-14,.cls-7{stroke-width:0.42px;}.cls-8{fill:#efeded;}.cls-9{fill:#e5b55e;}.cls-10{fill:#1c1919;}.cls-11{fill:#161616;}.cls-12{fill:#f4c6f4;}.cls-13{fill:#333;}.cls-14,.cls-33{fill:#fcfcfc;stroke:#333;}.cls-15{fill:#b791bc;}.cls-16{fill:#2b2b2b;}.cls-17{fill:#c69636;}.cls-18,.cls-34{fill:#dfe5e8;stroke:#5b6970;opacity:0.19;}.cls-18{stroke-width:1.68px;}.cls-19{fill:#99814b;}.cls-20{fill:#baa05a;}.cls-21{opacity:0.2;}.cls-22{fill:#8e2129;}.cls-23{fill:#101010;}.cls-24{fill:#421717;}.cls-25{fill:#e6e6e6;}.cls-26{fill:#191818;}.cls-27,.cls-31,.cls-36{stroke:#e6e6e6;}.cls-27{stroke-width:10px;}.cls-28{fill:#ececec;}.cls-29{fill:#d8911e;}.cls-30{fill:#442815;}.cls-31{stroke-width:6.34px;}.cls-32,.cls-33{stroke-width:0.31px;}.cls-34{stroke-width:1.24px;}.cls-35{clip-path:url(#clip-path-2);}.cls-36{stroke-width:9.49px;}</style><clipPath id="clip-path" transform="translate(-158.17 -145.42)"><ellipse class="cls-1" cx="379.83" cy="321.25" rx="120.17" ry="109.31"/></clipPath><clipPath id="clip-path-2" transform="translate(-158.17 -145.42)"><rect class="cls-1" x="298.83" y="492.25" width="154" height="149" rx="17.83" ry="17.83"/></clipPath></defs><title>Farm lvl 4</title><g id="Layer_1" data-name="Layer 1"><ellipse class="cls-2" cx="221.67" cy="175.82" rx="120.17" ry="109.31"/><g class="cls-3"><polygon class="cls-4" points="80.94 208.74 37.74 217.82 23.93 260.09 53.33 293.27 96.54 284.2 110.34 241.93 80.94 208.74"/><polygon class="cls-4" points="154.13 232.61 110.92 241.69 97.12 283.95 126.52 317.14 169.72 308.06 183.53 265.8 154.13 232.61"/><polygon class="cls-4" points="138.47 156.85 95.26 165.93 81.46 208.2 110.86 241.38 154.06 232.3 167.87 190.04 138.47 156.85"/><polygon class="cls-4" points="65.25 132.84 22.05 141.91 8.24 184.18 37.64 217.37 80.85 208.29 94.65 166.02 65.25 132.84"/><polygon class="cls-4" points="210.31 181.56 167.11 190.63 153.31 232.9 182.7 266.09 225.91 257.01 239.71 214.74 210.31 181.56"/><polygon class="cls-4" points="195.51 105.46 152.31 114.54 138.5 156.81 167.9 189.99 211.11 180.91 224.91 138.65 195.51 105.46"/><polygon class="cls-4" points="123 82.02 79.8 91.1 65.99 133.37 95.39 166.55 138.6 157.47 152.4 115.21 123 82.02"/><polygon class="cls-4" points="179.86 29.76 136.66 38.84 122.86 81.11 152.26 114.29 195.46 105.22 209.26 62.95 179.86 29.76"/><polygon class="cls-4" points="251.71 54.97 208.51 64.05 194.71 106.32 224.11 139.5 267.31 130.42 281.11 88.16 251.71 54.97"/><polygon class="cls-4" points="267.71 130.16 224.51 139.24 210.71 181.5 240.11 214.69 283.31 205.61 297.11 163.34 267.71 130.16"/><polygon class="cls-4" points="283.28 205.47 240.08 214.54 226.27 256.81 255.67 290 298.88 280.92 312.68 238.65 283.28 205.47"/><polygon class="cls-4" points="340.84 154.12 297.64 163.2 283.83 205.47 313.23 238.66 356.44 229.58 370.24 187.31 340.84 154.12"/><polygon class="cls-4" points="413.9 178.14 370.69 187.22 356.89 229.49 386.29 262.67 429.49 253.59 443.3 211.33 413.9 178.14"/><polygon class="cls-4" points="325.15 78.22 281.95 87.3 268.14 129.56 297.54 162.75 340.75 153.67 354.55 111.4 325.15 78.22"/><polygon class="cls-4" points="398.21 102.27 355.01 111.34 341.21 153.61 370.61 186.8 413.81 177.72 427.61 135.45 398.21 102.27"/><polygon class="cls-4" points="307.78 2.88 264.57 11.96 250.77 54.23 280.17 87.41 323.37 78.33 337.18 36.07 307.78 2.88"/></g><path class="cls-5" d="M704.33,787.68l-.86,40.87a14,14,0,0,1-12.13.69l1.38-39.87S699.65,782.52,704.33,787.68Z" transform="translate(-158.17 -145.42)"/><path class="cls-5" d="M641.23,787,640,827.16a15.49,15.49,0,0,1-12.13,0l1.73-38.49S636.55,781.83,641.23,787Z" transform="translate(-158.17 -145.42)"/><path class="cls-6" d="M698.38,728.32s-42-3.36-69.38-1.44c0,0-14.22-.08-15,12.08-2.23,33.64-1,40.59-1,40.59s-1.85,11.83,15.83,11.83c17.46,0,9,.17,62.07-.15,0,0,17.72,1.39,17.44-13.17s1-38.86,1-38.86S710.88,728.77,698.38,728.32Z" transform="translate(-158.17 -145.42)"/><path class="cls-7" d="M714.05,707.72" transform="translate(-158.17 -145.42)"/><path class="cls-8" d="M732.6,741.17c0,18-1.74,32.6-18.73,32.6-18,0-18.67-14.6-18.72-32.6s2.7-32.65,18.72-32.59S732.6,723.17,732.6,741.17Z" transform="translate(-158.17 -145.42)"/><path class="cls-9" d="M718.33,709a14.4,14.4,0,0,1,9.06,5.9s-2.07-8.76-3.81-11.54S718.33,709,718.33,709Z" transform="translate(-158.17 -145.42)"/><path class="cls-10" d="M729.79,719.52s16.33,13.33,10.78,18.88-8,3.55-8,3.55A88.21,88.21,0,0,0,729.79,719.52Z" transform="translate(-158.17 -145.42)"/><path class="cls-10" d="M697.92,719.33s-9,5.55-12.48,15.26c0,0-1,4.85,4.51,7.62,3.84,1.92,5.2-1,5.2-1S695.88,723.3,697.92,719.33Z" transform="translate(-158.17 -145.42)"/><path class="cls-11" d="M691.18,829.18c-1-.5-.24-6.07-.24-6.07,8,2.94,12.71,0,12.71,0a25.76,25.76,0,0,1,0,6.07C703.56,829.75,695.51,831.43,691.18,829.18Z" transform="translate(-158.17 -145.42)"/><path class="cls-11" d="M627.76,827.25c-1-.5-.24-6.07-.24-6.07,8,3,12.7,0,12.7,0a25.52,25.52,0,0,1,0,6.07C640.14,827.82,632.09,829.5,627.76,827.25Z" transform="translate(-158.17 -145.42)"/><path class="cls-6" d="M619.45,789.37s-1,43.34-.35,45.77c0,0,5.2,2.42,12.48,0l-.1-44.51S625.1,778.67,619.45,789.37Z" transform="translate(-158.17 -145.42)"/><path class="cls-6" d="M680.94,789s-1,43.34-.35,45.77c0,0,5.2,2.43,12.48,0l-.1-44.51S686.59,778.32,680.94,789Z" transform="translate(-158.17 -145.42)"/><path class="cls-6" d="M615.46,733.09s-14.27,26.11-15,58.36c0,0,7.59-34,13.17-42.3Z" transform="translate(-158.17 -145.42)"/><path class="cls-10" d="M595.64,790.76s5.2-3.82,10.75,1.73-8.67,16.29-9.36,21.15c0,0-6.59-4.51-6.94-9S590.09,794.57,595.64,790.76Z" transform="translate(-158.17 -145.42)"/><path class="cls-12" d="M732.33,750.83s-15.63-3.17-37,0c0,0-3,23.63,18.52,23.28C735.71,773.76,732.06,748,732.33,750.83Z" transform="translate(-158.17 -145.42)"/><path class="cls-13" d="M730.17,720.72s-15.26-4.51-15.26,9.71c0,13.52,17.69,10.74,17.69,10.74A83,83,0,0,0,730.17,720.72Z" transform="translate(-158.17 -145.42)"/><ellipse class="cls-14" cx="565.76" cy="585.35" rx="1.73" ry="4.51"/><ellipse class="cls-14" cx="545.48" cy="585.87" rx="1.73" ry="4.51"/><ellipse class="cls-15" cx="563.68" cy="616.55" rx="2.08" ry="3.81"/><ellipse class="cls-15" cx="546.69" cy="617.25" rx="2.08" ry="3.81"/><path class="cls-13" d="M708.35,777.9a20.15,20.15,0,0,0-17-6.21c-11.1,1-12.62,14.59-11,19.6l12.72-.06S709.4,791.29,708.35,777.9Z" transform="translate(-158.17 -145.42)"/><ellipse class="cls-13" cx="485.15" cy="626.26" rx="13" ry="11.44"/><path class="cls-13" d="M657,726.36s5.41,39.86-43.93,28.2l.72-13s-1.59-13.09,13.36-14.52A229.23,229.23,0,0,1,657,726.36Z" transform="translate(-158.17 -145.42)"/><path class="cls-16" d="M680.59,834.79c-1-.5-.24-6.07-.24-6.07,8,2.95,12.71,0,12.71,0a25.76,25.76,0,0,1,0,6.07C693,835.36,684.92,837,680.59,834.79Z" transform="translate(-158.17 -145.42)"/><path class="cls-16" d="M619.13,835.07c-1-.5-.23-6.07-.23-6.07,8,3,12.7,0,12.7,0a25.52,25.52,0,0,1,0,6.07C631.52,835.65,623.47,837.33,619.13,835.07Z" transform="translate(-158.17 -145.42)"/><path class="cls-17" d="M726.3,710.92a9.19,9.19,0,0,0-1.6-1.33,8.7,8.7,0,0,0-1.81-1,12.14,12.14,0,0,0-1.93-.49c-.65-.18-1.31-.23-2-.39v-.09a4.35,4.35,0,0,1,2.17-.36,5.17,5.17,0,0,1,2.08.72,9,9,0,0,1,3.2,2.84Z" transform="translate(-158.17 -145.42)"/><path class="cls-17" d="M725,706.64a4,4,0,0,0-2.16-1.23,10.4,10.4,0,0,0-1.24-.12c-.42,0-.84,0-1.28-.1v0a3.61,3.61,0,0,1,1.3-.28,3.74,3.74,0,0,1,1.32.22,3.82,3.82,0,0,1,2.11,1.53Z" transform="translate(-158.17 -145.42)"/><path class="cls-9" d="M709.4,709a14.36,14.36,0,0,0-9,5.9s2.07-8.76,3.8-11.54S709.4,709,709.4,709Z" transform="translate(-158.17 -145.42)"/><path class="cls-17" d="M701.36,710.87a9,9,0,0,1,3.2-2.84,5.16,5.16,0,0,1,2.09-.72,4.32,4.32,0,0,1,2.16.36v.09c-.72.16-1.38.21-2,.39a12.14,12.14,0,0,0-1.93.49,8.7,8.7,0,0,0-1.81,1,9.19,9.19,0,0,0-1.6,1.33Z" transform="translate(-158.17 -145.42)"/><path class="cls-17" d="M702.71,706.62a4.29,4.29,0,0,1,3.42-1.75,3.61,3.61,0,0,1,1.3.28v0c-.45.06-.87,0-1.29.1a10.4,10.4,0,0,0-1.24.12,4.07,4.07,0,0,0-2.16,1.23Z" transform="translate(-158.17 -145.42)"/><ellipse class="cls-18" cx="715.98" cy="742.25" rx="42.91" ry="43.83" transform="translate(-202.2 1293.92) rotate(-88.56)"/><rect class="cls-19" x="383.03" y="639.55" width="252.47" height="12.37"/><rect class="cls-19" x="383.03" y="674.63" width="252.47" height="12.37"/><polygon class="cls-20" points="635.5 694.53 635.5 486.59 621.85 476.47 608.82 486.44 608.82 694.53 635.5 694.53"/><polygon class="cls-20" points="576.57 694.53 576.57 635.59 562.92 625.47 549.89 635.45 549.89 694.53 576.57 694.53"/><polygon class="cls-20" points="524.66 694.53 524.66 635.59 511.01 625.47 497.99 635.45 497.99 694.53 524.66 694.53"/><polygon class="cls-20" points="466.94 694.53 466.94 635.59 453.29 625.47 440.26 635.45 440.26 694.53 466.94 694.53"/><polygon class="cls-20" points="409.7 694.53 409.7 635.59 396.05 625.47 383.02 635.45 383.02 694.53 409.7 694.53"/><path class="cls-21" d="M793.67,824.78a225,225,0,0,1-26.68,4.9c-13.88,1.65-93.13,2.74-110.84,2.74V840h26.68v-7.54h25.22V840h26.68v-7.54H767V840h26.68Z" transform="translate(-158.17 -145.42)"/><path class="cls-21" d="M625.11,833.19s-19.9,1-26.68,1.13V840h26.68Z" transform="translate(-158.17 -145.42)"/><path class="cls-21" d="M567.87,835.11s-22.11.6-26.68.69V840h26.68Z" transform="translate(-158.17 -145.42)"/><rect class="cls-22" x="12.67" y="323.65" width="409" height="371" rx="12" ry="12"/><polygon class="cls-22" points="16.67 326.73 101.67 274.3 337.67 274.3 416.77 326 16.67 326.73"/><path class="cls-22" d="M259.83,418V363a11.71,11.71,0,0,1,8-11l103.12-35.1a12,12,0,0,1,6.88-.28L488,354.45a11.72,11.72,0,0,1,8.86,11.32V418A11.77,11.77,0,0,1,485,429.73H271.68A11.78,11.78,0,0,1,259.83,418Z" transform="translate(-158.17 -145.42)"/><path class="cls-23" d="M443.17,670H321.83a24.33,24.33,0,0,0-24.33,24.33s-6,145.67,0,145.67h170c6,4,0-145.67,0-145.67A24.33,24.33,0,0,0,443.17,670Z" transform="translate(-158.17 -145.42)"/><rect class="cls-24" x="64.67" y="520.32" width="93" height="174"/><path class="cls-25" d="M312.33,669.25v167h-86v-167h86m7-7h-100v181h100v-181Z" transform="translate(-158.17 -145.42)"/><rect class="cls-24" x="277.17" y="520.32" width="93" height="174"/><path class="cls-25" d="M524.83,669.25v167h-86v-167h86m7-7h-100v181h100v-181Z" transform="translate(-158.17 -145.42)"/><rect class="cls-26" x="140.67" y="346.82" width="154" height="149" rx="17.83" ry="17.83"/><line class="cls-27" x1="67.67" y1="692.49" x2="155.33" y2="522.49"/><line class="cls-27" x1="155.33" y1="692.32" x2="67.67" y2="522.32"/><line class="cls-27" x1="279.83" y1="692.57" x2="367.5" y2="522.57"/><line class="cls-27" x1="367.5" y1="692.4" x2="279.83" y2="522.4"/><polygon class="cls-25" points="101.67 274.3 0 343.32 16.67 320.49 101.67 263.36 101.67 274.3"/><path class="cls-25" d="M495.83,419.73" transform="translate(-158.17 -145.42)"/><polygon class="cls-28" points="101.67 218.3 216.72 180.82 338.67 220.34 363.67 220.34 216.72 168.49 75.67 217.49 101.67 218.3"/><path class="cls-21" d="M259.67,419.58" transform="translate(-158.17 -145.42)"/><polygon class="cls-29" points="400.25 307.47 402.25 294.6 396.11 293.23 394.12 306.86 400.25 307.47"/><circle class="cls-29" cx="401.59" cy="285.12" r="10.12"/><polygon class="cls-29" points="407.01 277.59 411.28 261.07 405.14 259.69 400.55 276.15 407.01 277.59"/><circle class="cls-29" cx="409.65" cy="253.66" r="8.79"/><path class="cls-29" d="M572.42,391.59l2.88-18.06-4.58-1-3.86,17.85Z" transform="translate(-158.17 -145.42)"/><path class="cls-29" d="M551.66,371.24l-3.2-5.42s-21.13-4.89-21.83-4,1.64,4.78,1.64,4.78Z" transform="translate(-158.17 -145.42)"/><path class="cls-29" d="M551.49,373.8l-5,3.76s-21.39-3.65-21.7-4.71,3.36-3.78,3.36-3.78Z" transform="translate(-158.17 -145.42)"/><path class="cls-29" d="M574.33,379.59s-6.18-2.42,24.88,4.36c0,0,8.14,4.22,9.53,4.44s12.31-.81,13.4-1.5S610.43,380,610.43,380a77,77,0,0,0-10.66.75L575,375.17" transform="translate(-158.17 -145.42)"/><path class="cls-29" d="M575.3,373.53s-1-.91.38-5.35c0,0,4.71-3.61,5.06-4.8,0,0,7.84-2.83,8.57-7.59,0,0,.56-3.52-1.5-5.76a4.25,4.25,0,0,0,.67-1.17c.3-.74-1.22-1.76-1.22-1.76s-.92-.58,0-.64,1.37.31,1.07-.44a2.25,2.25,0,0,0-1.29-1,3.29,3.29,0,0,0-.91-2.75s-.39-.93-.56-.93-.54,0-.57.3c0,0,.12-1.12-1-.44,0,0-.48-.49-.89-.16,0,0-.34-1.17-.6-1.15a2,2,0,0,0-1.25,1.25c-.25.75-1.75,1.18,0,2.83l.71.63s-3.51,1.63-3.2,8.23c0,0-1.47,3.15-4.49,2.22,0,0-2.3-.13-.85-4,0,0,1.76-6.74-3.76-9.71,0,0-6-3.71-2.6.77,0,0-5.61-1.63-6-1.63s-1.4.16-.37,1.66a14.39,14.39,0,0,0-3.45,1.94,39.47,39.47,0,0,1-3.89,2.78s-2.66,1.87-1.28,2.9a8.38,8.38,0,0,0,2.31-.29s-2.09,2.5-1.16,4.06c0,0,.19.47,1,.19,0,0-1.19,3.46.11,4.27a13.11,13.11,0,0,1,2.52-2s-1.32,5.33.62,4.85c.26-.07,3.46-4.87,4.84-3.45,0,0-1.88,2.54-1.4,3a19.51,19.51,0,0,1,2.43-1s-.65,2.53-.18,2.89,1.12-2.17,1.73-2.25c0,0-.12,4.35,1.63,4.65,0,0,.67-.31.52-2.3,0,0,3.05,4.93,4.1,5a2.05,2.05,0,0,1-.77,2.29c-1.25.86-1.7,1.15-1.7,1.15a3.17,3.17,0,0,0,1.71,1.1c1,.19,0,2.16,0,2.16s-1.22.91-42.09-7.55c0,0-1.17-.09-.58,2.58l41.87,8.7" transform="translate(-158.17 -145.42)"/><path class="cls-29" d="M565.82,421.07s36.1,3.33,38.71,3.8,4.71,6.25.14,7c0,0-1.28.64-3-3.43l-34.84-4.06-2.27-1Z" transform="translate(-158.17 -145.42)"/><path class="cls-29" d="M568.74,428,586,436.76s.14,2.09,1.21,2.89c0,0,3.19,1.91,1.55-3.41,0,0,.42-1.35-3.16-3.06s-18.09-9.64-18.09-9.64L565.94,426Z" transform="translate(-158.17 -145.42)"/><path class="cls-29" d="M559.26,419.15l-28.29-14a4.22,4.22,0,0,0-1.68-.37c-.7.07-6.26,1.65-2.74,5.15,0,0,1,1.35,3.5-.68,0,0,20,9,26.11,11.78l3.05.68Z" transform="translate(-158.17 -145.42)"/><path class="cls-29" d="M552,424.12l-23.12-.92s-1.52,1.86-2.33,1.68-1.68-.45-1.4-2.09c0,0,0-3.14,3.89-3S556.16,421,556.16,421Z" transform="translate(-158.17 -145.42)"/><polygon class="cls-25" points="338.67 260.07 421.55 318.37 442.17 346.57 338.55 275.37 338.67 260.07"/><polygon class="cls-21" points="101.79 274.3 12.67 334.72 12.67 345 101.79 284.3 101.79 274.3"/><polygon class="cls-21" points="421.67 332.49 421.67 341.3 338.55 284.3 338.55 275.37 421.67 332.49"/><polygon class="cls-21" points="101.67 218.3 216.72 180.82 338.67 220.34 338.67 226.32 215.79 188.16 101.79 223.88 101.67 218.3"/><path class="cls-21" d="M299.1,626.49s2.48,11.63,12.57,14c0,0,123.48-.12,123.33.72,0,0,12.33,0,17.56-14.76l-5.1,21.26H304.21Z" transform="translate(-158.17 -145.42)"/><path class="cls-21" d="M170.83,816.67s5,9.75,13.25,10,29.25.56,29.25.56V665.31l6-2.06V840.08h-36.5s-12-.42-12-12Z" transform="translate(-158.17 -145.42)"/><path class="cls-21" d="M219.33,829.14s100-.11,100,0v14.11h-100Z" transform="translate(-158.17 -145.42)"/><path class="cls-21" d="M431.74,829.19s100-.11,100,0v14.1h-100Z" transform="translate(-158.17 -145.42)"/><path d="M473.33,854.25" transform="translate(-158.17 -145.42)"/><path class="cls-21" d="M580.33,816.54s-5,9.75-13.25,10-29.25.57-29.25.57V665.18l-6-2.06V840h36.5s12-.42,12-12Z" transform="translate(-158.17 -145.42)"/><polygon class="cls-30" points="421.67 486.24 635.83 486.57 421.67 414.91 421.67 486.24"/><polygon class="cls-25" points="421.67 399.57 683.83 492.57 635.83 486.57 421.83 414.57 421.67 399.57"/><polygon class="cls-21" points="421.83 414.57 635.83 486.57 608.82 486.44 421.67 425.07 421.83 414.57"/><path class="cls-21" d="M767,632s21,2,21,23-.08,171.12-.08,171.12l5.75-1.34L794,632Z" transform="translate(-158.17 -145.42)"/><rect class="cls-24" x="171.69" y="230.12" width="91.96" height="88.79" rx="14.98" ry="14.98"/><path class="cls-25" d="M406.83,378.4A12.13,12.13,0,0,1,419,390.52v58.83a12.14,12.14,0,0,1-12.13,12.13h-62a12.14,12.14,0,0,1-12.12-12.13V390.52a12.13,12.13,0,0,1,12.12-12.12h62m0-5.71h-62A17.83,17.83,0,0,0,327,390.52v58.83a17.83,17.83,0,0,0,17.83,17.83h62a17.83,17.83,0,0,0,17.84-17.83V390.52a17.83,17.83,0,0,0-17.84-17.83Z" transform="translate(-158.17 -145.42)"/><line class="cls-31" x1="174.75" y1="315.84" x2="259.31" y2="233.18"/><line class="cls-31" x1="261.53" y1="315.84" x2="176.97" y2="233.18"/><path class="cls-21" d="M327.17,457.83s1.57,7.37,8,8.9c0,0,78.31-.08,78.22.45,0,0,7.82,0,11.14-9.35l-3.24,13.48H330.41Z" transform="translate(-158.17 -145.42)"/><path class="cls-30" d="M298.83,599.78l154-.79v13.24s.44,27.73-17.2,29H315.53s-15.59-1.22-16.7-27Z" transform="translate(-158.17 -145.42)"/></g><g id="Layer_4" data-name="Layer 4"><path class="cls-5" d="M354.19,584.63l.64,30a10.29,10.29,0,0,0,8.92.51l-1-29.32S357.64,580.84,354.19,584.63Z" transform="translate(-158.17 -145.42)"/><path class="cls-5" d="M400.59,584.12l.89,29.54a11.4,11.4,0,0,0,8.93,0l-1.28-28.3S404,580.33,400.59,584.12Z" transform="translate(-158.17 -145.42)"/><path class="cls-6" d="M358.57,541s30.9-2.47,51-1.06c0,0,10.46-.06,11.05,8.88,1.64,24.74.7,29.85.7,29.85s1.36,8.7-11.64,8.7c-12.84,0-6.64.13-45.65-.11,0,0-13,1-12.82-9.68s-.72-28.58-.72-28.58S349.38,541.31,358.57,541Z" transform="translate(-158.17 -145.42)"/><path class="cls-32" d="M347.05,525.83" transform="translate(-158.17 -145.42)"/><path class="cls-8" d="M333.41,550.43c0,13.24,1.27,24,13.77,24,13.26,0,13.73-10.73,13.77-24s-2-24-13.77-24S333.41,537.2,333.41,550.43Z" transform="translate(-158.17 -145.42)"/><path class="cls-9" d="M343.9,526.79a10.59,10.59,0,0,0-6.66,4.33s1.52-6.44,2.8-8.48S343.9,526.79,343.9,526.79Z" transform="translate(-158.17 -145.42)"/><path class="cls-10" d="M335.48,534.51s-12,9.8-7.93,13.88,5.86,2.62,5.86,2.62A64.72,64.72,0,0,1,335.48,534.51Z" transform="translate(-158.17 -145.42)"/><path class="cls-10" d="M358.91,534.37s6.62,4.08,9.17,11.22c0,0,.77,3.57-3.31,5.61-2.82,1.41-3.82-.77-3.82-.77S360.41,537.29,358.91,534.37Z" transform="translate(-158.17 -145.42)"/><path class="cls-11" d="M363.87,615.14c.7-.36.17-4.46.17-4.46-5.86,2.17-9.34,0-9.34,0a18.64,18.64,0,0,0,0,4.46C354.76,615.56,360.68,616.8,363.87,615.14Z" transform="translate(-158.17 -145.42)"/><path class="cls-11" d="M410.5,613.73c.71-.37.18-4.47.18-4.47-5.86,2.17-9.35,0-9.35,0a19.3,19.3,0,0,0,0,4.47C401.4,614.15,407.32,615.38,410.5,613.73Z" transform="translate(-158.17 -145.42)"/><path class="cls-6" d="M416.61,585.87s.77,31.87.26,33.66a13.25,13.25,0,0,1-9.18,0l.08-32.73S412.46,578,416.61,585.87Z" transform="translate(-158.17 -145.42)"/><path class="cls-6" d="M371.4,585.62s.76,31.87.25,33.65a13.15,13.15,0,0,1-9.17,0l.07-32.73S367.24,577.75,371.4,585.62Z" transform="translate(-158.17 -145.42)"/><path class="cls-6" d="M419.54,544.49s10.5,19.2,11,42.91c0,0-5.58-25-9.69-31.1Z" transform="translate(-158.17 -145.42)"/><path class="cls-10" d="M434.12,586.89s-3.83-2.8-7.91,1.28,6.38,12,6.89,15.55c0,0,4.84-3.32,5.1-6.63S438.2,589.7,434.12,586.89Z" transform="translate(-158.17 -145.42)"/><path class="cls-12" d="M333.61,557.53a86.57,86.57,0,0,1,27.19,0s2.18,17.38-13.62,17.12C331.12,574.39,333.81,555.45,333.61,557.53Z" transform="translate(-158.17 -145.42)"/><path class="cls-13" d="M335.19,535.39s11.22-3.32,11.22,7.14c0,9.94-13,7.9-13,7.9A60.64,60.64,0,0,1,335.19,535.39Z" transform="translate(-158.17 -145.42)"/><ellipse class="cls-33" cx="181.62" cy="397.36" rx="1.27" ry="3.31"/><ellipse class="cls-33" cx="196.53" cy="397.74" rx="1.27" ry="3.31"/><ellipse class="cls-15" cx="183.15" cy="420.3" rx="1.53" ry="2.8"/><ellipse class="cls-15" cx="195.64" cy="420.81" rx="1.53" ry="2.8"/><path class="cls-13" d="M351.24,577.44a14.79,14.79,0,0,1,12.51-4.57c8.16.76,9.27,10.73,8.08,14.41l-9.35,0S350.47,587.28,351.24,577.44Z" transform="translate(-158.17 -145.42)"/><ellipse class="cls-13" cx="240.89" cy="427.44" rx="9.56" ry="8.41"/><path class="cls-13" d="M389,539.54s-4,29.31,32.3,20.74l-.53-9.59s1.17-9.62-9.82-10.68A169.57,169.57,0,0,0,389,539.54Z" transform="translate(-158.17 -145.42)"/><path class="cls-16" d="M371.65,619.27c.71-.37.18-4.46.18-4.46-5.86,2.17-9.34,0-9.34,0a18.62,18.62,0,0,0,0,4.46C362.55,619.69,368.47,620.93,371.65,619.27Z" transform="translate(-158.17 -145.42)"/><path class="cls-16" d="M416.84,619.48c.71-.37.18-4.46.18-4.46-5.86,2.16-9.35,0-9.35,0a19.21,19.21,0,0,0,0,4.46C407.74,619.9,413.66,621.14,416.84,619.48Z" transform="translate(-158.17 -145.42)"/><path class="cls-17" d="M338,528.15a6.41,6.41,0,0,1,2.35-2.09,3.78,3.78,0,0,1,1.53-.53,3.23,3.23,0,0,1,1.6.27v.06c-.53.13-1,.14-1.49.29a10.19,10.19,0,0,0-1.42.36,7.22,7.22,0,0,0-2.51,1.67Z" transform="translate(-158.17 -145.42)"/><path class="cls-17" d="M339,525a2.77,2.77,0,0,1,1.55-1.12,3.19,3.19,0,0,1,1-.17,2.79,2.79,0,0,1,.95.21v0c-.33,0-.64,0-.95.07a7,7,0,0,0-.91.1,2.9,2.9,0,0,0-1.59.9Z" transform="translate(-158.17 -145.42)"/><path class="cls-9" d="M350.47,526.79a10.56,10.56,0,0,1,6.65,4.33s-1.52-6.44-2.79-8.48S350.47,526.79,350.47,526.79Z" transform="translate(-158.17 -145.42)"/><path class="cls-17" d="M356.33,528.18a7.31,7.31,0,0,0-2.51-1.67,10.19,10.19,0,0,0-1.42-.36c-.47-.15-1-.16-1.49-.29v-.06a3.21,3.21,0,0,1,1.59-.27,3.82,3.82,0,0,1,1.54.53,6.57,6.57,0,0,1,2.35,2.09Z" transform="translate(-158.17 -145.42)"/><path class="cls-17" d="M355.36,525a2.84,2.84,0,0,0-1.59-.9,6.85,6.85,0,0,0-.91-.1c-.31,0-.61,0-.94-.07v0a2.9,2.9,0,0,1,1-.21,3.19,3.19,0,0,1,1,.17,2.81,2.81,0,0,1,1.55,1.12Z" transform="translate(-158.17 -145.42)"/><ellipse class="cls-34" cx="345.63" cy="551.22" rx="32.23" ry="31.55" transform="translate(-171.91 -136.56) rotate(-1.44)"/></g><g id="Layer_2" data-name="Layer 2"><g class="cls-35"><rect class="cls-19" x="116.14" y="429.94" width="202.06" height="12.37"/><rect class="cls-19" x="116.14" y="465.02" width="202.06" height="12.37"/><polygon class="cls-20" points="318.2 484.92 318.2 425.97 307.27 415.86 296.85 425.83 296.85 484.92 318.2 484.92"/><polygon class="cls-20" points="271.03 484.92 271.03 425.97 260.11 415.86 249.68 425.83 249.68 484.92 271.03 484.92"/><polygon class="cls-20" points="229.49 484.92 229.49 425.97 218.57 415.86 208.14 425.83 208.14 484.92 229.49 484.92"/><polygon class="cls-20" points="183.3 484.92 183.3 425.97 172.37 415.86 161.95 425.83 161.95 484.92 183.3 484.92"/><polygon class="cls-20" points="137.49 484.92 137.49 425.97 126.56 415.86 116.14 425.83 116.14 484.92 137.49 484.92"/><path class="cls-21" d="M476.36,615.17a148.31,148.31,0,0,1-21.35,4.9c-11.11,1.64-74.53,2.74-88.7,2.74v7.53h21.35v-7.53h20.19v7.53H429.2v-7.53H455v7.53h21.35Z" transform="translate(-158.17 -145.42)"/><path class="cls-21" d="M341.46,623.58s-15.92,1-21.35,1.13v5.63h21.35Z" transform="translate(-158.17 -145.42)"/><path class="cls-21" d="M295.66,625.49s-17.7.61-21.36.7v4.15h21.36Z" transform="translate(-158.17 -145.42)"/></g></g><g id="Layer_3" data-name="Layer 3"><rect class="cls-24" x="51.63" y="344.13" width="94.53" height="154.38"/><path class="cls-25" d="M301,492.88V640.61H213.12V492.88H301m6.64-6.64H206.48v161H307.65v-161Z" transform="translate(-158.17 -145.42)"/><rect class="cls-24" x="288.17" y="344.13" width="94.53" height="154.38"/><path class="cls-25" d="M537.55,492.88V640.61H449.66V492.88h87.89m6.64-6.64H443v161H544.19v-161Z" transform="translate(-158.17 -145.42)"/><line class="cls-36" x1="54.89" y1="497.09" x2="143.58" y2="345.85"/><line class="cls-36" x1="143.58" y1="496.94" x2="54.89" y2="345.71"/><line class="cls-36" x1="291.09" y1="497.16" x2="379.79" y2="345.93"/><line class="cls-36" x1="379.79" y1="497.01" x2="291.09" y2="345.78"/></g></svg>