<svg xmlns="http://www.w3.org/2000/svg" xmlns:xlink="http://www.w3.org/1999/xlink" viewBox="0 0 635.5 655.55"><defs><style>.cls-1,.cls-26,.cls-4{fill:none;}.cls-2{fill:#fefefe;}.cls-3{clip-path:url(#clip-path);}.cls-4{stroke:#b7b7b7;stroke-width:4px;}.cls-5{fill:#ccc;}.cls-6{fill:#eaeaea;}.cls-7{fill:#fff;stroke:#000;}.cls-14,.cls-18,.cls-26,.cls-7{stroke-miterlimit:10;}.cls-14,.cls-7{stroke-width:0.42px;}.cls-8{fill:#efeded;}.cls-9{fill:#e5b55e;}.cls-10{fill:#1c1919;}.cls-11{fill:#161616;}.cls-12{fill:#f4c6f4;}.cls-13{fill:#333;}.cls-14{fill:#fcfcfc;stroke:#333;}.cls-15{fill:#b791bc;}.cls-16{fill:#2b2b2b;}.cls-17{fill:#c69636;}.cls-18{fill:#dfe5e8;stroke:#5b6970;stroke-width:1.68px;opacity:0.19;}.cls-19{fill:#99814b;}.cls-20{fill:#baa05a;}.cls-21{opacity:0.2;}.cls-22{fill:#8e2129;}.cls-23{fill:#101010;}.cls-24{fill:#421717;}.cls-25{fill:#e6e6e6;}.cls-26{stroke:#e6e6e6;stroke-width:10px;}.cls-27{fill:#ececec;}.cls-28{fill:#1e1c1c;}</style><clipPath id="clip-path" transform="translate(-219.17 -163.74)"><ellipse class="cls-1" cx="441.83" cy="297.25" rx="92" ry="83"/></clipPath></defs><title>Farm lvl 1</title><g id="Layer_2" data-name="Layer 2"><g id="Layer_4" data-name="Layer 4"><ellipse class="cls-2" cx="222.67" cy="133.5" rx="92" ry="83"/></g><g class="cls-3"><polygon class="cls-4" points="114.93 158.5 81.85 165.4 71.28 197.49 93.79 222.69 126.87 215.79 137.44 183.7 114.93 158.5"/><polygon class="cls-4" points="170.96 176.62 137.88 183.52 127.31 215.61 149.82 240.81 182.9 233.91 193.47 201.82 170.96 176.62"/><polygon class="cls-4" points="158.97 119.1 125.89 126 115.32 158.09 137.83 183.28 170.91 176.39 181.48 144.3 158.97 119.1"/><polygon class="cls-4" points="102.91 100.87 69.84 107.76 59.27 139.85 81.78 165.05 114.86 158.16 125.42 126.06 102.91 100.87"/><polygon class="cls-4" points="213.97 137.86 180.9 144.75 170.33 176.84 192.84 202.04 225.91 195.15 236.48 163.06 213.97 137.86"/><polygon class="cls-4" points="202.64 80.08 169.56 86.97 159 119.07 181.5 144.26 214.58 137.37 225.15 105.28 202.64 80.08"/><polygon class="cls-4" points="147.13 62.28 114.05 69.18 103.48 101.27 125.99 126.47 159.07 119.57 169.63 87.48 147.13 62.28"/><polygon class="cls-4" points="190.66 22.6 157.59 29.5 147.02 61.59 169.53 86.79 202.6 79.89 213.17 47.8 190.66 22.6"/><polygon class="cls-4" points="245.67 41.74 212.59 48.64 202.03 80.73 224.53 105.93 257.61 99.03 268.18 66.94 245.67 41.74"/><polygon class="cls-4" points="257.92 98.83 224.84 105.73 214.28 137.82 236.78 163.02 269.86 156.12 280.43 124.03 257.92 98.83"/><polygon class="cls-4" points="269.84 156.01 236.76 162.91 226.19 195 248.7 220.2 281.78 213.3 292.35 181.21 269.84 156.01"/><polygon class="cls-4" points="313.91 117.03 280.83 123.92 270.26 156.02 292.77 181.21 325.85 174.32 336.42 142.23 313.91 117.03"/><polygon class="cls-4" points="369.84 135.26 336.76 142.16 326.19 174.25 348.7 199.45 381.78 192.56 392.35 160.46 369.84 135.26"/><polygon class="cls-4" points="301.89 59.4 268.82 66.29 258.25 98.38 280.76 123.58 313.83 116.69 324.4 84.59 301.89 59.4"/><polygon class="cls-4" points="357.83 77.65 324.76 84.55 314.19 116.64 336.7 141.84 369.77 134.94 380.34 102.85 357.83 77.65"/><polygon class="cls-4" points="288.59 2.19 255.52 9.09 244.95 41.18 267.46 66.38 300.53 59.48 311.1 27.39 288.59 2.19"/></g></g><g id="Layer_6" data-name="Layer 6"><path class="cls-5" d="M765.33,763.68l-.86,40.87a14,14,0,0,1-12.13.69l1.38-39.87S760.65,758.52,765.33,763.68Z" transform="translate(-219.17 -163.74)"/><path class="cls-5" d="M702.23,763,701,803.16a15.49,15.49,0,0,1-12.13,0l1.73-38.49S697.55,757.83,702.23,763Z" transform="translate(-219.17 -163.74)"/><path class="cls-6" d="M759.38,704.32s-42-3.36-69.38-1.44c0,0-14.22-.08-15,12.08-2.23,33.64-1,40.59-1,40.59s-1.85,11.83,15.83,11.83c17.46,0,9,.17,62.07-.15,0,0,17.72,1.39,17.44-13.17s1-38.86,1-38.86S771.88,704.77,759.38,704.32Z" transform="translate(-219.17 -163.74)"/><path class="cls-7" d="M775.05,683.72" transform="translate(-219.17 -163.74)"/><path class="cls-8" d="M793.6,717.17c0,18-1.74,32.6-18.73,32.6-18,0-18.67-14.6-18.72-32.6s2.7-32.65,18.72-32.59S793.6,699.17,793.6,717.17Z" transform="translate(-219.17 -163.74)"/><path class="cls-9" d="M779.33,685a14.4,14.4,0,0,1,9.06,5.9s-2.07-8.76-3.81-11.54S779.33,685,779.33,685Z" transform="translate(-219.17 -163.74)"/><path class="cls-10" d="M790.79,695.52s16.33,13.33,10.78,18.88-8,3.55-8,3.55A88.21,88.21,0,0,0,790.79,695.52Z" transform="translate(-219.17 -163.74)"/><path class="cls-10" d="M758.92,695.33s-9,5.55-12.48,15.26c0,0-1,4.85,4.51,7.62,3.84,1.92,5.2-1,5.2-1S756.88,699.3,758.92,695.33Z" transform="translate(-219.17 -163.74)"/><path class="cls-11" d="M752.18,805.18c-1-.5-.24-6.07-.24-6.07,8,2.94,12.71,0,12.71,0a25.76,25.76,0,0,1,0,6.07C764.56,805.75,756.51,807.43,752.18,805.18Z" transform="translate(-219.17 -163.74)"/><path class="cls-11" d="M688.76,803.25c-1-.5-.24-6.07-.24-6.07,8,3,12.7,0,12.7,0a25.52,25.52,0,0,1,0,6.07C701.14,803.82,693.09,805.5,688.76,803.25Z" transform="translate(-219.17 -163.74)"/><path class="cls-6" d="M680.45,765.37s-1,43.34-.35,45.77c0,0,5.2,2.42,12.48,0l-.1-44.51S686.1,754.67,680.45,765.37Z" transform="translate(-219.17 -163.74)"/><path class="cls-6" d="M741.94,765s-1,43.34-.35,45.77c0,0,5.2,2.43,12.48,0l-.1-44.51S747.59,754.32,741.94,765Z" transform="translate(-219.17 -163.74)"/><path class="cls-6" d="M676.46,709.09s-14.27,26.11-15,58.36c0,0,7.59-34,13.17-42.3Z" transform="translate(-219.17 -163.74)"/><path class="cls-10" d="M656.64,766.76s5.2-3.82,10.75,1.73-8.67,16.29-9.36,21.15c0,0-6.59-4.51-6.94-9S651.09,770.57,656.64,766.76Z" transform="translate(-219.17 -163.74)"/><path class="cls-12" d="M793.33,726.83s-15.63-3.17-37,0c0,0-3,23.63,18.52,23.28C796.71,749.76,793.06,724,793.33,726.83Z" transform="translate(-219.17 -163.74)"/><path class="cls-13" d="M791.17,696.72s-15.26-4.51-15.26,9.71c0,13.52,17.69,10.74,17.69,10.74A83,83,0,0,0,791.17,696.72Z" transform="translate(-219.17 -163.74)"/><ellipse class="cls-14" cx="565.76" cy="543.03" rx="1.73" ry="4.51"/><ellipse class="cls-14" cx="545.48" cy="543.55" rx="1.73" ry="4.51"/><ellipse class="cls-15" cx="563.68" cy="574.24" rx="2.08" ry="3.81"/><ellipse class="cls-15" cx="546.69" cy="574.93" rx="2.08" ry="3.81"/><path class="cls-13" d="M769.35,753.9a20.15,20.15,0,0,0-17-6.21c-11.1,1-12.62,14.59-11,19.6l12.72-.06S770.4,767.29,769.35,753.9Z" transform="translate(-219.17 -163.74)"/><ellipse class="cls-13" cx="485.15" cy="583.94" rx="13" ry="11.44"/><path class="cls-13" d="M718,702.36s5.41,39.86-43.93,28.2l.72-13s-1.59-13.09,13.36-14.52A229.23,229.23,0,0,1,718,702.36Z" transform="translate(-219.17 -163.74)"/><path class="cls-16" d="M741.59,810.79c-1-.5-.24-6.07-.24-6.07,8,2.95,12.71,0,12.71,0a25.76,25.76,0,0,1,0,6.07C754,811.36,745.92,813,741.59,810.79Z" transform="translate(-219.17 -163.74)"/><path class="cls-16" d="M680.13,811.07c-1-.5-.23-6.07-.23-6.07,8,3,12.7,0,12.7,0a25.52,25.52,0,0,1,0,6.07C692.52,811.65,684.47,813.33,680.13,811.07Z" transform="translate(-219.17 -163.74)"/><path class="cls-17" d="M787.3,686.92a9.19,9.19,0,0,0-1.6-1.33,8.7,8.7,0,0,0-1.81-1,12.14,12.14,0,0,0-1.93-.49c-.65-.18-1.31-.23-2-.39v-.09a4.35,4.35,0,0,1,2.17-.36,5.17,5.17,0,0,1,2.08.72,9,9,0,0,1,3.2,2.84Z" transform="translate(-219.17 -163.74)"/><path class="cls-17" d="M786,682.64a4,4,0,0,0-2.16-1.23,10.4,10.4,0,0,0-1.24-.12c-.42,0-.84,0-1.28-.1v0a3.61,3.61,0,0,1,1.3-.28,3.74,3.74,0,0,1,1.32.22,3.82,3.82,0,0,1,2.11,1.53Z" transform="translate(-219.17 -163.74)"/><path class="cls-9" d="M770.4,685a14.36,14.36,0,0,0-9,5.9s2.07-8.76,3.8-11.54S770.4,685,770.4,685Z" transform="translate(-219.17 -163.74)"/><path class="cls-17" d="M762.36,686.87a9,9,0,0,1,3.2-2.84,5.16,5.16,0,0,1,2.09-.72,4.32,4.32,0,0,1,2.16.36v.09c-.72.16-1.38.21-2,.39a12.14,12.14,0,0,0-1.93.49,8.7,8.7,0,0,0-1.81,1,9.19,9.19,0,0,0-1.6,1.33Z" transform="translate(-219.17 -163.74)"/><path class="cls-17" d="M763.71,682.62a4.29,4.29,0,0,1,3.42-1.75,3.61,3.61,0,0,1,1.3.28v0c-.45.06-.87,0-1.29.1a10.4,10.4,0,0,0-1.24.12,4.07,4.07,0,0,0-2.16,1.23Z" transform="translate(-219.17 -163.74)"/><ellipse class="cls-18" cx="776.98" cy="718.25" rx="42.91" ry="43.83" transform="translate(-179.74 1313.19) rotate(-88.56)"/></g><g id="Layer_9" data-name="Layer 9"><rect class="cls-19" x="383.03" y="597.24" width="252.47" height="12.37"/><rect class="cls-19" x="383.03" y="632.31" width="252.47" height="12.37"/><polygon class="cls-20" points="635.5 652.22 635.5 593.27 621.85 583.16 608.82 593.13 608.82 652.22 635.5 652.22"/><polygon class="cls-20" points="576.57 652.22 576.57 593.27 562.92 583.16 549.89 593.13 549.89 652.22 576.57 652.22"/><polygon class="cls-20" points="524.66 652.22 524.66 593.27 511.01 583.16 497.99 593.13 497.99 652.22 524.66 652.22"/><polygon class="cls-20" points="466.94 652.22 466.94 593.27 453.29 583.16 440.26 593.13 440.26 652.22 466.94 652.22"/><polygon class="cls-20" points="409.7 652.22 409.7 593.27 396.05 583.16 383.02 593.13 383.02 652.22 409.7 652.22"/><path class="cls-21" d="M854.67,800.78a225,225,0,0,1-26.68,4.9c-13.88,1.65-93.13,2.74-110.84,2.74V816h26.68v-7.54h25.22V816h26.68v-7.54H828V816h26.68Z" transform="translate(-219.17 -163.74)"/><path class="cls-21" d="M686.11,809.19s-19.9,1-26.68,1.13V816h26.68Z" transform="translate(-219.17 -163.74)"/><path class="cls-21" d="M628.87,811.11s-22.11.6-26.68.69V816h26.68Z" transform="translate(-219.17 -163.74)"/></g><g id="Layer_1" data-name="Layer 1"><rect class="cls-22" x="12.67" y="281.34" width="409" height="371" rx="12" ry="12"/><polygon class="cls-22" points="16.67 284.42 101.67 231.99 337.67 231.99 416.77 283.69 16.67 284.42"/><path class="cls-22" d="M320.83,394V339a11.71,11.71,0,0,1,8-11l103.12-35.1a12,12,0,0,1,6.88-.28L549,330.45a11.72,11.72,0,0,1,8.86,11.32V394A11.77,11.77,0,0,1,546,405.73H332.68A11.78,11.78,0,0,1,320.83,394Z" transform="translate(-219.17 -163.74)"/><path class="cls-23" d="M504.17,646H382.83a24.33,24.33,0,0,0-24.33,24.33s-6,145.67,0,145.67h170c6,4,0-145.67,0-145.67A24.33,24.33,0,0,0,504.17,646Z" transform="translate(-219.17 -163.74)"/><rect class="cls-24" x="64.67" y="478" width="93" height="174"/><path class="cls-25" d="M373.33,645.25v167h-86v-167h86m7-7h-100v181h100v-181Z" transform="translate(-219.17 -163.74)"/><rect class="cls-24" x="277.17" y="478" width="93" height="174"/><path class="cls-25" d="M585.83,645.25v167h-86v-167h86m7-7h-100v181h100v-181Z" transform="translate(-219.17 -163.74)"/><rect class="cls-24" x="145.17" y="231.01" width="145" height="140" rx="13.33" ry="13.33"/><path class="cls-25" d="M496,399.25a8.84,8.84,0,0,1,8.83,8.83V521.41a8.85,8.85,0,0,1-8.83,8.84H377.67a8.86,8.86,0,0,1-8.84-8.84V408.08a8.85,8.85,0,0,1,8.84-8.83H496m0-9H377.67a17.83,17.83,0,0,0-17.84,17.83V521.41a17.84,17.84,0,0,0,17.84,17.84H496a17.83,17.83,0,0,0,17.83-17.84V408.08A17.83,17.83,0,0,0,496,390.25Z" transform="translate(-219.17 -163.74)"/><line class="cls-26" x1="67.67" y1="650.17" x2="155.33" y2="480.17"/><line class="cls-26" x1="155.33" y1="650" x2="67.67" y2="480"/><line class="cls-26" x1="279.83" y1="650.25" x2="367.5" y2="480.25"/><line class="cls-26" x1="367.5" y1="650.09" x2="279.83" y2="480.09"/><line class="cls-26" x1="150" y1="366.17" x2="283.33" y2="235.84"/><line class="cls-26" x1="286.83" y1="366.17" x2="153.5" y2="235.84"/><polygon class="cls-25" points="101.67 231.99 0 301 16.67 278.17 101.67 221.04 101.67 231.99"/><path class="cls-25" d="M556.83,395.73" transform="translate(-219.17 -163.74)"/><polygon class="cls-25" points="338.67 217.75 421.55 276.05 442.17 304.25 338.55 233.05 338.67 217.75"/><g id="Layer_5" data-name="Layer 5"><polygon class="cls-27" points="101.67 175.99 216.72 138.5 338.67 178.03 363.67 178.03 216.72 126.17 75.67 175.17 101.67 175.99"/></g></g><g id="Layer_7" data-name="Layer 7"><path class="cls-21" d="M320.67,395.58" transform="translate(-219.17 -163.74)"/><polygon class="cls-21" points="101.79 231.99 12.67 292.41 12.67 302.69 101.79 241.99 101.79 231.99"/><polygon class="cls-21" points="421.67 290.17 421.67 298.99 338.55 241.99 338.55 233.05 421.67 290.17"/><polygon class="cls-21" points="101.67 175.99 216.72 138.5 338.67 178.03 338.67 184.01 215.79 145.84 101.79 181.57 101.67 175.99"/><path class="cls-21" d="M360.1,524.49s2.48,11.63,12.57,14c0,0,123.48-.12,123.33.72,0,0,12.33,0,17.56-14.76l-5.1,21.26H365.21Z" transform="translate(-219.17 -163.74)"/><path class="cls-21" d="M231.83,792.67s5,9.75,13.25,10,29.25.56,29.25.56V641.31l6-2.06V816.08h-36.5s-12-.42-12-12Z" transform="translate(-219.17 -163.74)"/><path class="cls-21" d="M280.33,805.14s100-.11,100,0v14.11h-100Z" transform="translate(-219.17 -163.74)"/><path class="cls-21" d="M492.74,805.19s100-.11,100,0v14.1h-100Z" transform="translate(-219.17 -163.74)"/><path d="M534.33,830.25" transform="translate(-219.17 -163.74)"/><path class="cls-28" d="M1216.29,519.06" transform="translate(-219.17 -163.74)"/><path class="cls-21" d="M641.33,792.54s-5,9.75-13.25,10-29.25.57-29.25.57V641.18l-6-2.06V816h36.5s12-.42,12-12Z" transform="translate(-219.17 -163.74)"/></g></svg>