<?xml version="1.0" encoding="utf-8"?>
<!-- Generator: Adobe Illustrator 23.0.3, SVG Export Plug-In . SVG Version: 6.00 Build 0)  -->
<svg version="1.1" id="Laag_1" xmlns="http://www.w3.org/2000/svg" xmlns:xlink="http://www.w3.org/1999/xlink" x="0px" y="0px"
	 viewBox="0 0 1000 1000" style="enable-background:new 0 0 1000 1000;" xml:space="preserve">
<style type="text/css">
	.st0{fill:#844747;}
	.st1{fill:#5B3434;}
	.st2{fill:#999999;}
	.st3{fill:#FCE93A;}
	.st4{fill:#6D6D6D;}
	.st5{opacity:0.2;fill:#020202;}
</style>
<g id="XMLID_1_">
	<g>
		<path class="st0" d="M448.08,178.94c0,0,10.33-4.05,16.72,0c0,0,15.02,405.67,403.2,637.46c6.22,3.76-119.42-16.96-176.57-9.21
			c0,0-15.49-9.33-38.73-32.39c-20.48-20.3-47-51.29-74.11-95.89c-37.56-61.73-76.4-149.58-102.22-271.34L448.08,178.94z"/>
		<path class="st0" d="M357.01,771.39c-11.09,18.9-18.07,28.05-18.07,28.05s-89.37-13.26-175.11-13.26
			c-12.44,0-24.82,0.29-36.85,0.94c0,0,286.37-86.91,321.11-608.18c4.11,86.97,14.32,162.78,28.28,228.62l0.12,1.06
			c-0.88,5.28-1.76,10.5-2.64,15.61c-2.64,14.91-5.4,29.34-8.33,43.31C432.35,627.73,383.24,726.73,357.01,771.39z"/>
		<path class="st0" d="M476.36,407.56c-13.97-65.84-24.18-141.66-28.28-228.62L476.36,407.56z"/>
		<path class="st1" d="M652.7,774.79l-15.2-1.94c0,0-55.4-6.98-121.35-9.57l-18.43-107.56l12.68,1.7l-16.02-101.58l7.75-1.06
			l-4.4-28.58l-6.63,0.88l-17.25-102.87c0.88-5.11,1.76-10.33,2.64-15.61l-0.12-1.06c25.82,121.76,64.67,209.61,102.22,271.34
			C605.7,723.5,632.22,754.49,652.7,774.79z"/>
		<path class="st2" d="M501.48,762.82l-25-124.05l15.73,1.7l-12.5-82.62l14.67-2l16.02,101.58l-12.68-1.7l18.43,107.56
			C511.28,763.11,506.41,762.94,501.48,762.82z"/>
		<path class="st1" d="M476.48,638.77l25,124.05c-49.88-1.41-103.75,0.12-143.36,9.21l-1.11-0.65
			c26.23-44.66,75.35-143.65,108.5-303.85h0.06l10.03,61.73l-8.22,1.11l4.11,28.34l8.22-0.88l12.5,82.62L476.48,638.77z"/>
		<path class="st2" d="M516.15,763.29l4.69,27.35c-3.05,0.88-6.04,2.29-8.74,4.4c-1.35-0.53-2.82-0.94-4.4-1.17l-6.22-31.04
			C506.41,762.94,511.28,763.11,516.15,763.29z"/>
		<path class="st3" d="M520.84,790.63c10.62-3.17,21.65-0.12,21.65-0.12l-8.22,2.23h-0.06c-3.52,0-8.16,0.41-12.68,2.11
			L520.84,790.63z"/>
		<path class="st3" d="M534.22,792.75l-17.66,4.81c-0.06,0-0.06-0.06-0.12-0.06c1.64-1.11,3.34-2,5.11-2.64
			C526.07,793.16,530.7,792.75,534.22,792.75z"/>
		<path class="st3" d="M520.84,790.63l0.7,4.23l-6.45,1.76c-0.94-0.65-1.94-1.11-2.99-1.58
			C514.8,792.92,517.79,791.51,520.84,790.63z"/>
		<path class="st3" d="M515.09,796.62l6.45-1.76c-1.76,0.65-3.46,1.53-5.11,2.64C516.03,797.15,515.56,796.85,515.09,796.62z"/>
		<path class="st3" d="M516.56,797.56l-0.47,0.12c0.12-0.06,0.23-0.18,0.35-0.18C516.5,797.5,516.5,797.56,516.56,797.56z"/>
		<path class="st3" d="M515.09,796.62c0.47,0.23,0.94,0.53,1.35,0.88c-0.12,0-0.23,0.12-0.35,0.18l-5.16,1.41
			c-0.7-0.29-1.47-0.53-2.29-0.7L515.09,796.62z"/>
		<path class="st3" d="M510.93,799.08l5.16-1.41c-1.06,0.7-2.05,1.53-2.99,2.41C512.45,799.73,511.75,799.38,510.93,799.08z"/>
		<path class="st3" d="M515.09,796.62l-6.45,1.76c1.06-1.29,2.23-2.35,3.46-3.34C513.16,795.51,514.15,795.97,515.09,796.62z"/>
		<path class="st3" d="M510.93,799.08l-3.64,1c0.41-0.59,0.88-1.17,1.35-1.7C509.46,798.56,510.22,798.79,510.93,799.08z"/>
		<path class="st3" d="M512.1,795.04c-1.23,1-2.41,2.05-3.46,3.34l-0.94-4.52C509.28,794.1,510.75,794.51,512.1,795.04z"/>
		<path class="st3" d="M525.07,811.17l-26.82-12.15c4.11-1.29,7.51-1.29,10.39-0.65c-0.47,0.53-0.94,1.11-1.35,1.7l3.64-1
			c0.82,0.29,1.53,0.65,2.17,1c0.94-0.88,1.94-1.7,2.99-2.41l0.47-0.12C523.54,802.78,525.07,811.17,525.07,811.17z"/>
		<polygon class="st4" points="491.09,527.1 497.72,526.22 502.12,554.79 494.38,555.85 479.71,557.84 471.49,558.72 467.39,530.38 
			475.6,529.27 		"/>
		<path class="st3" d="M508.64,798.38c-2.88-0.65-6.28-0.65-10.39,0.65l-7.34-3.34c6.87-2.23,12.38-2.64,16.78-1.82L508.64,798.38z"
			/>
		<path class="st2" d="M473.84,424.23l17.25,102.87l-15.49,2.17l-10.03-61.73h-0.06C468.44,453.57,471.2,439.13,473.84,424.23z"/>
	</g>
	<g>
	</g>
</g>
<path class="st5" d="M822.48,787.33c0,0-81.69,17.61-123.78,1.87C656.61,773.45,541.99,630.78,496.36,488
	c0,0,55,215.52,195.08,319.18c0,0,34.95-7.41,176.55,9.25L822.48,787.33z"/>
<path class="st5" d="M444.17,555.88c0,0-66.24,216.44-133.11,204.13c-66.87-12.31-77.51-19.42-84.02-34.29
	c0,0-63.39,53.53-100.06,61.38c0,0,58.76-8.15,211.93,12.35C338.92,799.45,391.76,742.4,444.17,555.88z"/>
<path class="st5" d="M473.85,424.2l-8.3,43.35c0,0,10.04,27.14,23.44,47.02L473.85,424.2z"/>
<path class="st5" d="M467.37,530.4l4.13,28.32l30.62-3.95C502.12,554.77,472.49,560.18,467.37,530.4z"/>
<path class="st5" d="M494.81,558.72c0,0-4.16,2.05-10.07,2.36c0,0,1.91,42.67,22.62,89.3l3.06,7.06l-12.72-1.69l1.12,6.55
	c0,0-5.55-4.02-9.97-3.03c-5.92,1.33,5.6,39.05,5.6,39.05l25.07,84.71l1.31,7.61c0,0-5.76,1.64-8.74,4.42c0,0-2.91-1-4.13-1.19
	l-19.48-95.54l-11.99-59.58l15.7,1.71l-12.4-82.52l14.65-2.07L494.81,558.72z"/>
</svg>
