<?xml version="1.0" encoding="utf-8"?>
<!-- Generator: Adobe Illustrator 23.0.3, SVG Export Plug-In . SVG Version: 6.00 Build 0)  -->
<svg version="1.1" xmlns="http://www.w3.org/2000/svg" xmlns:xlink="http://www.w3.org/1999/xlink" x="0px" y="0px"
	 viewBox="0 0 1920 1080" style="enable-background:new 0 0 1920 1080;" xml:space="preserve">
<style type="text/css">
	.st0{display:none;}
	.st1{display:inline;fill:#515151;stroke:#000000;stroke-width:4;stroke-miterlimit:10;}
	.st2{display:inline;}
	.st3{fill:#FFFFFF;}
	.st4{clip-path:url(#SVGID_2_);}
	.st5{fill:none;stroke:#B7B7B7;stroke-width:4;}
	.st6{fill:#C6C6C6;}
	.st7{fill:#A8A8A8;}
	.st8{fill:#515151;}
	.st9{opacity:0.2;}
	.st10{clip-path:url(#SVGID_4_);}
	.st11{fill:#99814B;}
	.st12{fill:#BAA05A;}
	.st13{fill:#777777;}
	.st14{fill:#999999;}
	.st15{fill:#CECECE;}
	.st16{display:inline;fill:#BFBFBF;}
	.st17{clip-path:url(#SVGID_6_);}
	.st18{display:inline;fill:#707070;}
	.st19{display:inline;opacity:0.2;}
	.st20{fill:#BFBFBF;}
	.st21{clip-path:url(#SVGID_8_);}
	.st22{fill:#707070;}
	.st23{fill:#878787;}
	.st24{display:inline;opacity:0.2;fill:#020202;}
</style>
<g id="background" class="st0">
	<rect class="st1" width="1920" height="1080"/>
</g>
<g id="shadow" class="st0">
	<g class="st2">
		<g>
			<path class="st3" d="M1811.01,983.06c0.79-14.89,1.21-29.88,1.21-44.96c0-461.78-374.35-836.12-836.12-836.12
				S139.97,476.32,139.97,938.1c0,15.09,0.42,30.07,1.21,44.96H1811.01z"/>
			<g>
				<defs>
					<path id="SVGID_1_" d="M1811.02,983.06c0.78-14.83,1.2-29.75,1.2-44.78c0-461.88-374.43-836.31-836.31-836.31
						S139.61,476.4,139.61,938.28c0,15.02,0.42,29.95,1.2,44.78H1811.02z"/>
				</defs>
				<clipPath id="SVGID_2_">
					<use xlink:href="#SVGID_1_"  style="overflow:visible;"/>
				</clipPath>
				<g class="st4">
					<polygon class="st5" points="320.69,921.64 106.02,966.38 37.43,1174.66 183.51,1338.2 398.18,1293.46 466.77,1085.18 					"/>
					<polygon class="st5" points="684.33,1039.25 469.66,1083.99 401.07,1292.26 547.15,1455.8 761.82,1411.06 830.41,1202.78 					
						"/>
					<polygon class="st5" points="606.52,665.93 391.85,710.67 323.27,918.95 469.35,1082.49 684.02,1037.75 752.6,829.47 					"/>
					<polygon class="st5" points="242.73,547.58 28.06,592.32 -40.53,800.6 105.55,964.14 320.22,919.4 388.81,711.12 					"/>
					<polygon class="st5" points="963.5,787.67 748.84,832.41 680.25,1040.69 826.33,1204.23 1041,1159.49 1109.58,951.21 					"/>
					<polygon class="st5" points="889.96,412.69 675.29,457.43 606.71,665.71 752.79,829.25 967.45,784.51 1036.04,576.23 					"/>
					<polygon class="st5" points="529.67,297.18 315,341.92 246.41,550.2 392.49,713.74 607.16,669 675.75,460.72 					"/>
					<polygon class="st5" points="812.22,39.66 597.55,84.4 528.96,292.68 675.04,456.22 889.71,411.48 958.3,203.2 					"/>
					<polygon class="st5" points="1169.23,163.89 954.56,208.63 885.97,416.9 1032.05,580.44 1246.72,535.7 1315.31,327.42 					"/>
					<polygon class="st5" points="1248.72,534.39 1034.05,579.13 965.47,787.41 1111.55,950.95 1326.22,906.21 1394.8,697.93 					
						"/>
					<polygon class="st5" points="1326.07,905.5 1111.4,950.24 1042.81,1158.51 1188.89,1322.05 1403.56,1277.31 1472.15,1069.03 
											"/>
					<polygon class="st5" points="1612.08,652.49 1397.41,697.24 1328.82,905.51 1474.9,1069.05 1689.57,1024.31 1758.16,816.03 
											"/>
					<polygon class="st5" points="1975.09,770.84 1760.42,815.58 1691.83,1023.85 1837.91,1187.39 2052.58,1142.65 2121.17,934.37 
											"/>
					<polygon class="st5" points="1534.12,278.44 1319.45,323.18 1250.86,531.45 1396.94,694.99 1611.61,650.25 1680.2,441.97 					
						"/>
					<polygon class="st5" points="1897.16,396.94 1682.49,441.68 1613.9,649.96 1759.98,813.5 1974.65,768.76 2043.24,560.48 					
						"/>
					<polygon class="st5" points="1447.8,-92.81 1233.13,-48.06 1164.54,160.21 1310.62,323.75 1525.29,279.01 1593.88,70.73 					
						"/>
				</g>
			</g>
			<g>
				<g id="XMLID_1_">
					<g>
						<path class="st6" d="M1481.03,558.82v424.24h-227.36V543.89c0,0,2.42-105.47,108.32-107.07h6.24
							C1480.29,439.31,1481.03,558.82,1481.03,558.82z"/>
						<path class="st7" d="M1263.3,436.81h98.69c-105.9,1.6-108.32,107.07-108.32,107.07v439.17h-68.98c0,0,0-385.13,0-470.09
							C1184.69,436.89,1262.99,436.81,1263.3,436.81z"/>
					</g>
					<g>
					</g>
				</g>
			</g>
			<path class="st8" d="M1367.35,486.8c-38.23,0-69.23,30.1-69.23,67.22v429.03h138.45V554.03
				C1436.58,516.9,1405.59,486.8,1367.35,486.8z"/>
		</g>
		<g>
			<path class="st9" d="M1725.26,566.39c0,0,140.21,321.32-244.23,349.84v66.84h329.98
				C1811.01,983.06,1825.83,739.14,1725.26,566.39z"/>
			<path class="st9" d="M1184.68,924.55c0,0-208.77,21.94-749.71,16.29C112.93,937.47,152.3,792.36,152.3,792.36
				s-21.32,140.66-11.5,190.7h1043.88V924.55z"/>
			<path class="st9" d="M1481.03,952.44c0,0-25.6,12.44-44.45,14.7v15.92h44.45V952.44z"/>
			<path class="st9" d="M1298.13,970.3c0,0-25.32,3.63-44.45,4.76v8h44.45V970.3z"/>
			<path class="st9" d="M1290.19,463.36c0,0-36.52,20.56-36.52,107.23c0,139.35,0,412.47,0,412.47h-68.99V521.84
				c0,0-2.27-24.72,7.4-44.14C1192.08,477.7,1193.33,539.52,1290.19,463.36z"/>
		</g>
	</g>
</g>
<g id="shad_fences">
	<g>
		<g>
			<g>
				<path class="st3" d="M1806.07,1004.11c0.8-15.06,1.22-30.22,1.22-45.48c0-467.11-378.67-845.77-845.77-845.77
					S115.75,491.52,115.75,958.63c0,15.26,0.43,30.42,1.22,45.48H1806.07z"/>
				<g>
					<defs>
						<path id="SVGID_3_" d="M1806.08,1004.11c0.79-15,1.21-30.1,1.21-45.3c0-467.21-378.75-845.96-845.96-845.96
							S115.38,491.6,115.38,958.81c0,15.2,0.42,30.3,1.21,45.3H1806.08z"/>
					</defs>
					<clipPath id="SVGID_4_">
						<use xlink:href="#SVGID_3_"  style="overflow:visible;"/>
					</clipPath>
					<g class="st10">
						<polygon class="st5" points="298.55,941.98 81.4,987.24 12.02,1197.92 159.79,1363.34 376.93,1318.09 446.31,1107.41 						
							"/>
						<polygon class="st5" points="666.38,1060.94 449.24,1106.2 379.86,1316.88 527.63,1482.3 744.77,1437.05 814.15,1226.36 
													"/>
						<polygon class="st5" points="587.68,683.32 370.54,728.57 301.16,939.26 448.92,1104.68 666.07,1059.42 735.45,848.74 						
							"/>
						<polygon class="st5" points="219.69,563.6 2.54,608.86 -66.84,819.54 80.93,984.97 298.07,939.71 367.45,729.03 						"/>
						<polygon class="st5" points="948.78,806.46 731.64,851.72 662.26,1062.4 810.02,1227.82 1027.17,1182.57 1096.55,971.88 
													"/>
						<polygon class="st5" points="874.39,427.15 657.25,472.41 587.87,683.09 735.63,848.52 952.78,803.26 1022.16,592.58 						
							"/>
						<polygon class="st5" points="509.94,310.31 292.8,355.57 223.42,566.25 371.18,731.67 588.33,686.42 657.71,475.74 						"/>
						<polygon class="st5" points="795.75,49.82 578.6,95.08 509.22,305.76 656.99,471.18 874.14,425.93 943.52,215.25 						"/>
						<polygon class="st5" points="1156.88,175.48 939.73,220.74 870.36,431.42 1018.12,596.84 1235.27,551.58 1304.65,340.9 						
							"/>
						<polygon class="st5" points="1237.29,550.26 1020.15,595.52 950.77,806.2 1098.53,971.62 1315.68,926.36 1385.06,715.68 
													"/>
						<polygon class="st5" points="1315.53,925.65 1098.38,970.9 1029.01,1181.58 1176.77,1347.01 1393.92,1301.75 1463.3,1091.07 
													"/>
						<polygon class="st5" points="1604.84,669.73 1387.7,714.98 1318.32,925.66 1466.08,1091.09 1683.23,1045.83 1752.61,835.15 
													"/>
						<polygon class="st5" points="1972.04,789.43 1754.89,834.69 1685.51,1045.37 1833.28,1210.8 2050.42,1165.54 2119.8,954.86 
													"/>
						<polygon class="st5" points="1525.98,291.35 1308.84,336.61 1239.46,547.29 1387.22,712.71 1604.37,667.46 1673.75,456.77 
													"/>
						<polygon class="st5" points="1893.21,411.22 1676.07,456.48 1606.69,667.16 1754.45,832.59 1971.6,787.33 2040.98,576.65 
													"/>
						<polygon class="st5" points="1438.66,-84.17 1221.52,-38.92 1152.14,171.76 1299.91,337.19 1517.05,291.93 1586.43,81.25 
													"/>
					</g>
				</g>
				<g>
					<g id="XMLID_2_">
						<g>
							<path class="st6" d="M1472.27,574.96v429.13h-229.99V559.86c0,0,2.45-106.69,109.57-108.31h6.31
								C1471.52,454.07,1472.27,574.96,1472.27,574.96z"/>
							<path class="st7" d="M1252.02,451.55h99.83c-107.13,1.62-109.57,108.31-109.57,108.31v444.24h-69.77c0,0,0-389.57,0-475.52
								C1172.51,451.63,1251.71,451.55,1252.02,451.55z"/>
						</g>
						<g>
						</g>
					</g>
				</g>
				<path class="st8" d="M1357.29,502.12c-38.67,0-70.03,30.44-70.03,68v433.98h140.05V570.12
					C1427.32,532.57,1395.97,502.12,1357.29,502.12z"/>
			</g>
		</g>
		<g>
			<path class="st9" d="M1718.06,584.4c0,0,141.83,325.03-247.04,353.87v67.61h333.79C1804.8,1005.88,1819.79,759.14,1718.06,584.4z
				"/>
			<path class="st9" d="M1171.24,946.69c0,0-211.18,22.19-758.36,16.47c-325.76-3.4-285.93-150.19-285.93-150.19
				s-21.56,142.28-11.63,192.9h1055.92V946.69z"/>
			<path class="st9" d="M1471.01,974.91c0,0-25.89,12.58-44.97,14.87v16.1h44.97V974.91z"/>
			<path class="st9" d="M1285.99,992.97c0,0-25.62,3.67-44.97,4.82v8.1h44.97V992.97z"/>
			<path class="st9" d="M1277.97,480.18c0,0-36.94,20.8-36.94,108.47c0,140.96,0,417.23,0,417.23h-69.79V539.34
				c0,0-2.3-25,7.48-44.64C1178.73,494.69,1179.98,557.22,1277.97,480.18z"/>
		</g>
		<g>
			<rect x="479.38" y="775.32" class="st11" width="625.85" height="51.46"/>
			<rect x="479.38" y="921.29" class="st11" width="625.85" height="51.46"/>
			<polygon class="st12" points="1105.23,1004.11 1105.23,758.81 1071.39,716.73 1039.09,758.23 1039.09,1004.11 			"/>
			<polygon class="st12" points="959.14,1004.11 959.14,758.81 925.3,716.73 893.01,758.23 893.01,1004.11 			"/>
			<polygon class="st12" points="830.48,1004.11 830.48,758.81 796.64,716.73 764.35,758.23 764.35,1004.11 			"/>
			<polygon class="st12" points="687.39,1004.11 687.39,758.81 653.56,716.73 621.26,758.23 621.26,1004.11 			"/>
			<polygon class="st12" points="545.51,1004.11 545.51,758.81 511.67,716.73 479.38,758.23 479.38,1004.11 			"/>
			<path class="st13" d="M991.94,438.18c0,0-29.82,146.01-33.21,240.59H935.5V438.18H991.94z"/>
			<rect x="738.44" y="438.18" class="st14" width="197.06" height="240.59"/>
			<rect x="750.45" y="452.84" class="st15" width="173.05" height="211.28"/>
		</g>
		<path class="st9" d="M1105.23,940.97c0,0-30.71,13.35-66.13,20.39c-34.4,6.84-230.85,11.39-274.75,11.39v31.36h66.13v-31.36h62.53
			v31.36h66.13v-31.36h79.95v31.36h66.13V940.97z"/>
		<path class="st9" d="M687.39,975.96c0,0-49.33,3.98-66.13,4.7v23.44h66.13V975.96z"/>
		<path class="st9" d="M545.51,983.92c0,0-54.81,2.53-66.13,2.89v17.29h66.13V983.92z"/>
		<path class="st9" d="M923.5,486.87c0,0-8.78,191.91-173.05,162.77v14.48H923.5V486.87z"/>
		<path d="M1067.67,548.81"/>
	</g>
	<g class="st0">
		<polygon class="st16" points="714.53,696.02 714.53,656.65 745.18,656.65 784.51,656.65 784.51,738.24 714.53,738.24 		"/>
		<g class="st2">
			<path class="st3" d="M909.4,1014.11c0.31-5.85,0.48-11.74,0.48-17.67c0-181.46-147.1-328.55-328.55-328.55
				s-328.55,147.1-328.55,328.55c0,5.93,0.17,11.82,0.48,17.67H909.4z"/>
			<g>
				<defs>
					<path id="SVGID_5_" d="M909.4,1014.11c0.31-5.83,0.47-11.69,0.47-17.6c0-181.5-147.13-328.63-328.63-328.63
						S252.62,815.02,252.62,996.52c0,5.9,0.16,11.77,0.47,17.6H909.4z"/>
				</defs>
				<clipPath id="SVGID_6_">
					<use xlink:href="#SVGID_5_"  style="overflow:visible;"/>
				</clipPath>
				<g class="st17">
					<polygon class="st5" points="323.78,989.98 239.42,1007.56 212.47,1089.4 269.87,1153.67 354.23,1136.08 381.18,1054.24 					
						"/>
					<polygon class="st5" points="466.67,1036.19 382.32,1053.77 355.36,1135.62 412.77,1199.88 497.12,1182.3 524.07,1100.45 					
						"/>
					<polygon class="st5" points="436.1,889.5 351.74,907.08 324.79,988.92 382.19,1053.18 466.55,1035.6 493.5,953.76 					"/>
					<polygon class="st5" points="293.14,842.99 208.79,860.57 181.84,942.42 239.24,1006.68 323.59,989.1 350.54,907.26 					"/>
					<polygon class="st5" points="576.37,937.33 492.02,954.92 465.07,1036.76 522.47,1101.02 606.82,1083.44 633.77,1001.6 					
						"/>
					<polygon class="st5" points="547.47,789.99 463.12,807.57 436.17,889.41 493.57,953.67 577.92,936.09 604.88,854.25 					"/>
					<polygon class="st5" points="405.9,744.6 321.54,762.18 294.59,844.02 351.99,908.28 436.35,890.7 463.3,808.86 					"/>
					<polygon class="st5" points="516.92,643.41 432.57,660.99 405.62,742.83 463.02,807.09 547.37,789.51 574.33,707.67 					"/>
					<polygon class="st5" points="657.21,692.22 572.86,709.8 545.91,791.64 603.31,855.9 687.66,838.32 714.61,756.48 					"/>
					<polygon class="st5" points="688.45,837.81 604.09,855.39 577.14,937.23 634.55,1001.49 718.9,983.91 745.85,902.07 					"/>
					<polygon class="st5" points="718.84,983.63 634.49,1001.22 607.54,1083.06 664.94,1147.32 749.29,1129.74 776.24,1047.9 					
						"/>
					<polygon class="st5" points="831.23,884.22 746.88,901.8 719.92,983.64 777.33,1047.9 861.68,1030.32 888.63,948.48 					"/>
					<polygon class="st5" points="973.87,930.72 889.52,948.3 862.57,1030.14 919.97,1094.41 1004.32,1076.82 1031.27,994.98 					
						"/>
					<polygon class="st5" points="800.59,737.23 716.24,754.81 689.29,836.65 746.69,900.92 831.05,883.34 858,801.49 					"/>
					<polygon class="st5" points="943.25,783.8 858.9,801.38 831.95,883.22 889.35,947.48 973.7,929.9 1000.65,848.06 					"/>
					<polygon class="st5" points="766.67,591.35 682.32,608.93 655.37,690.78 712.77,755.04 797.13,737.46 824.08,655.61 					"/>
				</g>
			</g>
			<g>
				<g id="XMLID_3_">
					<g>
						<path class="st6" d="M779.74,847.4v166.7H690.4V841.54c0,0,0.93-41.45,42.55-42.07h2.45
							C779.44,800.44,779.74,847.4,779.74,847.4z"/>
						<path class="st7" d="M694.17,799.46h38.78c-41.61,0.63-42.55,42.07-42.55,42.07v172.57h-27.12c0,0,0-151.34,0-184.72
							C663.28,799.49,694.05,799.46,694.17,799.46z"/>
					</g>
					<g>
					</g>
				</g>
			</g>
			<path class="st8" d="M735.06,819.11c-15.02,0-27.2,11.83-27.2,26.42v168.59h54.4V845.53
				C762.27,830.94,750.09,819.11,735.06,819.11z"/>
		</g>
		<rect x="702.43" y="627.23" class="st18" width="93.56" height="29.42"/>
		<g class="st2">
			<path class="st9" d="M876.06,850.38c0,0,55.1,126.26-95.97,137.47v26.26h129.66C909.76,1014.11,915.58,918.26,876.06,850.38z"/>
			<path class="st9" d="M663.64,991.12c0,0-82.03,8.62-294.6,6.4c-126.55-1.32-111.07-58.34-111.07-58.34s-8.38,55.27-4.52,74.94
				h410.19V991.12z"/>
			<path class="st9" d="M780.09,1002.08c0,0-10.06,4.89-17.47,5.78v6.26h17.47V1002.08z"/>
			<path class="st9" d="M708.22,1009.1c0,0-9.95,1.43-17.47,1.87v3.14h17.47V1009.1z"/>
			<path class="st9" d="M705.1,809.9c0,0-14.35,8.08-14.35,42.14c0,54.76,0,162.08,0,162.08h-27.11V832.88c0,0-0.89-9.71,2.91-17.34
				C666.55,815.53,667.04,839.82,705.1,809.9z"/>
		</g>
		<rect x="702.43" y="627.23" class="st19" width="42.75" height="29.42"/>
		<path class="st19" d="M714.53,696.02v-39.38h30.65v54.96C745.18,711.61,728.77,701.67,714.53,696.02z"/>
		<g class="st2">
			<rect x="394.02" y="925.24" class="st11" width="243.12" height="19.99"/>
			<rect x="394.02" y="981.94" class="st11" width="243.12" height="19.99"/>
			<polygon class="st12" points="637.15,1014.11 637.15,918.83 624,902.48 611.46,918.6 611.46,1014.11 			"/>
			<polygon class="st12" points="580.4,1014.11 580.4,918.83 567.25,902.48 554.71,918.6 554.71,1014.11 			"/>
			<polygon class="st12" points="530.42,1014.11 530.42,918.83 517.27,902.48 504.73,918.6 504.73,1014.11 			"/>
			<polygon class="st12" points="474.83,1014.11 474.83,918.83 461.69,902.48 449.14,918.6 449.14,1014.11 			"/>
			<polygon class="st12" points="419.71,1014.11 419.71,918.83 406.57,902.48 394.02,918.6 394.02,1014.11 			"/>
			<path class="st13" d="M593.14,794.27c0,0-11.58,56.72-12.9,93.46h-9.02v-93.46H593.14z"/>
			<rect x="494.66" y="794.27" class="st14" width="76.55" height="93.46"/>
			<rect x="499.32" y="799.97" class="st15" width="67.23" height="82.07"/>
		</g>
		<path class="st19" d="M637.15,989.59c0,0-11.93,5.19-25.69,7.92c-13.36,2.66-89.68,4.42-106.73,4.42v12.18h25.69v-12.18h24.29
			v12.18h25.69v-12.18h31.06v12.18h25.69V989.59z"/>
		<path class="st19" d="M474.83,1003.18c0,0-19.16,1.55-25.69,1.83v9.11h25.69V1003.18z"/>
		<path class="st19" d="M419.71,1006.27c0,0-21.29,0.98-25.69,1.12v6.72h25.69V1006.27z"/>
		<path class="st19" d="M566.55,813.18c0,0-3.41,74.55-67.23,63.23v5.63h67.23V813.18z"/>
		<path class="st2" d="M622.56,837.25"/>
	</g>
	<g class="st0">
		<g class="st2">
			<polygon class="st20" points="1589.38,690.92 1589.38,651.54 1620.03,651.54 1659.35,651.54 1659.35,733.13 1589.38,733.13 			
				"/>
			<g>
				<path class="st3" d="M1784.25,1009.01c0.31-5.85,0.48-11.74,0.48-17.67c0-181.46-147.1-328.55-328.55-328.55
					s-328.55,147.1-328.55,328.55c0,5.93,0.17,11.82,0.48,17.67H1784.25z"/>
				<g>
					<defs>
						<path id="SVGID_7_" d="M1784.25,1009.01c0.31-5.83,0.47-11.69,0.47-17.6c0-181.5-147.13-328.63-328.63-328.63
							s-328.63,147.13-328.63,328.63c0,5.9,0.16,11.77,0.47,17.6H1784.25z"/>
					</defs>
					<clipPath id="SVGID_8_">
						<use xlink:href="#SVGID_7_"  style="overflow:visible;"/>
					</clipPath>
					<g class="st21">
						<polygon class="st5" points="1198.63,984.88 1114.27,1002.46 1087.32,1084.3 1144.72,1148.56 1229.08,1130.98 
							1256.03,1049.14 						"/>
						<polygon class="st5" points="1341.52,1031.09 1257.17,1048.67 1230.21,1130.51 1287.62,1194.77 1371.97,1177.19 
							1398.92,1095.35 						"/>
						<polygon class="st5" points="1310.95,884.39 1226.59,901.97 1199.64,983.82 1257.04,1048.08 1341.4,1030.5 1368.35,948.66 
													"/>
						<polygon class="st5" points="1167.99,837.89 1083.64,855.47 1056.69,937.31 1114.09,1001.58 1198.44,983.99 1225.39,902.15 
													"/>
						<polygon class="st5" points="1451.22,932.23 1366.87,949.81 1339.92,1031.65 1397.32,1095.92 1481.67,1078.34 1508.62,996.49 
													"/>
						<polygon class="st5" points="1422.32,784.88 1337.97,802.46 1311.02,884.31 1368.42,948.57 1452.77,930.99 1479.73,849.14 
													"/>
						<polygon class="st5" points="1280.75,739.49 1196.39,757.07 1169.44,838.92 1226.84,903.18 1311.2,885.6 1338.15,803.76 
													"/>
						<polygon class="st5" points="1391.77,638.3 1307.42,655.88 1280.47,737.73 1337.87,801.99 1422.22,784.41 1449.18,702.56 
													"/>
						<polygon class="st5" points="1532.06,687.12 1447.71,704.7 1420.76,786.54 1478.16,850.8 1562.51,833.22 1589.46,751.38 
													"/>
						<polygon class="st5" points="1563.3,832.71 1478.94,850.29 1451.99,932.13 1509.4,996.39 1593.75,978.81 1620.7,896.97 						
							"/>
						<polygon class="st5" points="1593.69,978.53 1509.34,996.11 1482.39,1077.95 1539.79,1142.22 1624.14,1124.64 
							1651.09,1042.79 						"/>
						<polygon class="st5" points="1706.08,879.11 1621.73,896.69 1594.77,978.54 1652.18,1042.8 1736.53,1025.22 1763.48,943.38 
													"/>
						<polygon class="st5" points="1848.72,925.62 1764.37,943.2 1737.42,1025.04 1794.82,1089.3 1879.17,1071.72 1906.12,989.88 
													"/>
						<polygon class="st5" points="1675.44,732.13 1591.09,749.71 1564.14,831.55 1621.54,895.81 1705.9,878.23 1732.85,796.39 
													"/>
						<polygon class="st5" points="1818.1,778.69 1733.75,796.27 1706.8,878.12 1764.2,942.38 1848.55,924.8 1875.5,842.96 						
							"/>
						<polygon class="st5" points="1641.52,586.25 1557.17,603.83 1530.22,685.67 1587.62,749.93 1671.98,732.35 1698.93,650.51 
													"/>
					</g>
				</g>
				<g>
					<g id="XMLID_4_">
						<g>
							<path class="st6" d="M1654.58,1009.01h-89.34V836.43c0,0,0.95-41.45,42.56-42.07h2.45c44.04,0.98,44.33,47.94,44.33,47.94
								V1009.01z"/>
							<path class="st7" d="M1565.24,836.43v172.57h-27.1c0,0,0-151.34,0-184.72c0-29.89,30.77-29.92,30.89-29.92h38.78
								C1566.19,794.99,1565.24,836.43,1565.24,836.43z"/>
						</g>
						<g>
						</g>
					</g>
				</g>
				<path class="st8" d="M1609.91,814.01c-15.02,0-27.2,11.83-27.2,26.42v168.59h54.41V840.42
					C1637.12,825.83,1624.94,814.01,1609.91,814.01z"/>
			</g>
			<rect x="1577.28" y="622.12" class="st22" width="93.56" height="29.42"/>
			<g>
				<path class="st9" d="M1750.91,845.28c0,0,55.1,126.26-95.97,137.47v26.26h129.66C1784.61,1009.01,1790.43,913.16,1750.91,845.28
					z"/>
				<path class="st9" d="M1538.49,986.02c0,0-82.03,8.62-294.6,6.4c-126.55-1.32-111.07-58.34-111.07-58.34s-8.38,55.27-4.52,74.94
					h410.19V986.02z"/>
				<path class="st9" d="M1654.94,996.98c0,0-10.06,4.89-17.47,5.78v6.26h17.47V996.98z"/>
				<path class="st9" d="M1583.07,1003.99c0,0-9.95,1.43-17.47,1.87v3.14h17.47V1003.99z"/>
				<path class="st9" d="M1579.95,804.79c0,0-14.35,8.08-14.35,42.14c0,54.76,0,162.08,0,162.08h-27.11V827.77
					c0,0-0.89-9.71,2.91-17.34C1541.4,810.43,1541.89,834.72,1579.95,804.79z"/>
			</g>
			<rect x="1577.28" y="622.12" class="st9" width="42.75" height="29.42"/>
			<path class="st9" d="M1589.38,690.92v-39.38h30.65v54.96C1620.03,706.5,1603.62,696.57,1589.38,690.92z"/>
			<g>
				<rect x="1268.87" y="920.13" class="st11" width="243.12" height="19.99"/>
				<rect x="1268.87" y="976.84" class="st11" width="243.12" height="19.99"/>
				<polygon class="st12" points="1512,1009.01 1512,913.72 1498.85,897.37 1486.3,913.49 1486.3,1009.01 				"/>
				<polygon class="st12" points="1455.25,1009.01 1455.25,913.72 1442.1,897.37 1429.55,913.49 1429.55,1009.01 				"/>
				<polygon class="st12" points="1405.27,1009.01 1405.27,913.72 1392.12,897.37 1379.58,913.49 1379.58,1009.01 				"/>
				<polygon class="st12" points="1349.68,1009.01 1349.68,913.72 1336.54,897.37 1323.99,913.49 1323.99,1009.01 				"/>
				<polygon class="st12" points="1294.56,1009.01 1294.56,913.72 1281.42,897.37 1268.87,913.49 1268.87,1009.01 				"/>
				<path class="st13" d="M1467.99,789.17c0,0-11.58,56.72-12.9,93.46h-9.02v-93.46H1467.99z"/>
				<rect x="1369.51" y="789.17" class="st14" width="76.55" height="93.46"/>
				<rect x="1374.17" y="794.86" class="st15" width="67.23" height="82.07"/>
			</g>
			<path class="st9" d="M1512,984.48c0,0-11.93,5.19-25.69,7.92c-13.36,2.66-89.68,4.42-106.73,4.42v12.18h25.69v-12.18h24.29v12.18
				h25.69v-12.18h31.06v12.18H1512V984.48z"/>
			<path class="st9" d="M1349.68,998.08c0,0-19.16,1.55-25.69,1.83v9.11h25.69V998.08z"/>
			<path class="st9" d="M1294.56,1001.17c0,0-21.29,0.98-25.69,1.12v6.72h25.69V1001.17z"/>
			<path class="st9" d="M1441.4,808.08c0,0-3.41,74.55-67.22,63.23v5.63h67.22V808.08z"/>
			<path d="M1497.41,832.14"/>
		</g>
		<g class="st2">
			<path class="st7" d="M1372.61,603.58c-3.21-1.92-6.67-3.39-10.37-4.32c-27.32-6.83-57.02,17.86-66.33,55.14
				c-9.31,37.28,5.29,73.03,32.61,79.86c18.73,6.92,69.01-8.57,82.01-51.23C1424.86,636.01,1390.72,612.46,1372.61,603.58z"/>
			
				<ellipse transform="matrix(0.2424 -0.9702 0.9702 0.2424 372.2785 1810.1104)" class="st6" cx="1345.1" cy="666.7" rx="69.58" ry="50.71"/>
		</g>
		<g class="st2">
			<path class="st23" d="M1337.47,735.32l1.81-13.91l-12.67-20.31c0,0,6.27-12.82,5.89-19.01c0,0-10.86,4.07-18.14,18.24
				l12.95,20.24l-3.35,12.26C1323.96,732.82,1331.05,735.86,1337.47,735.32z"/>
			<circle class="st23" cx="1333.9" cy="680.18" r="5.18"/>
		</g>
		<path class="st24" d="M1395.13,638.29c0,0-9.21,80.25-56.78,90.21l-0.89,6.82c0,0,18.68,0.42,35.47-16.8s22.55-41.17,23.6-51.82
			C1398.09,650.9,1395.13,638.29,1395.13,638.29z"/>
	</g>
</g>
</svg>
