<?xml version="1.0" encoding="utf-8"?>
<!-- Generator: Adobe Illustrator 23.0.3, SVG Export Plug-In . SVG Version: 6.00 Build 0)  -->
<svg version="1.1" xmlns="http://www.w3.org/2000/svg" xmlns:xlink="http://www.w3.org/1999/xlink" x="0px" y="0px"
	 viewBox="0 0 1920 1080" style="enable-background:new 0 0 1920 1080;" xml:space="preserve">
<style type="text/css">
	.st0{display:none;}
	.st1{display:inline;fill:#515151;stroke:#000000;stroke-width:4;stroke-miterlimit:10;}
	.st2{display:inline;}
	.st3{fill:#FFFFFF;}
	.st4{clip-path:url(#SVGID_2_);}
	.st5{fill:none;stroke:#B7B7B7;stroke-width:4;}
	.st6{fill:#C6C6C6;}
	.st7{fill:#A8A8A8;}
	.st8{fill:#515151;}
	.st9{opacity:0.2;}
	.st10{clip-path:url(#SVGID_4_);}
	.st11{fill:#99814B;}
	.st12{fill:#BAA05A;}
	.st13{fill:#777777;}
	.st14{fill:#999999;}
	.st15{fill:#CECECE;}
	.st16{display:inline;opacity:0.2;}
	.st17{display:inline;fill:#BFBFBF;}
	.st18{clip-path:url(#SVGID_6_);}
	.st19{display:inline;fill:#707070;}
	.st20{fill:#BFBFBF;}
	.st21{clip-path:url(#SVGID_8_);}
	.st22{fill:#707070;}
	.st23{fill:#878787;}
	.st24{opacity:0.2;fill:#020202;}
</style>
<g id="background" class="st0">
	<rect class="st1" width="1920" height="1080"/>
</g>
<g id="shadow" class="st0">
	<g class="st2">
		<g>
			<path class="st3" d="M1811.01,983.06c0.79-14.89,1.21-29.88,1.21-44.96c0-461.78-374.35-836.12-836.12-836.12
				S139.97,476.32,139.97,938.1c0,15.09,0.42,30.07,1.21,44.96H1811.01z"/>
			<g>
				<defs>
					<path id="SVGID_1_" d="M1811.02,983.06c0.78-14.83,1.2-29.75,1.2-44.78c0-461.88-374.43-836.31-836.31-836.31
						S139.61,476.4,139.61,938.28c0,15.02,0.42,29.95,1.2,44.78H1811.02z"/>
				</defs>
				<clipPath id="SVGID_2_">
					<use xlink:href="#SVGID_1_"  style="overflow:visible;"/>
				</clipPath>
				<g class="st4">
					<polygon class="st5" points="320.69,921.64 106.02,966.38 37.43,1174.66 183.51,1338.2 398.18,1293.46 466.77,1085.18 					"/>
					<polygon class="st5" points="684.33,1039.25 469.66,1083.99 401.07,1292.26 547.15,1455.8 761.82,1411.06 830.41,1202.78 					
						"/>
					<polygon class="st5" points="606.52,665.93 391.85,710.67 323.27,918.95 469.35,1082.49 684.02,1037.75 752.6,829.47 					"/>
					<polygon class="st5" points="242.73,547.58 28.06,592.32 -40.53,800.6 105.55,964.14 320.22,919.4 388.81,711.12 					"/>
					<polygon class="st5" points="963.5,787.67 748.84,832.41 680.25,1040.69 826.33,1204.23 1041,1159.49 1109.58,951.21 					"/>
					<polygon class="st5" points="889.96,412.69 675.29,457.43 606.71,665.71 752.79,829.25 967.45,784.51 1036.04,576.23 					"/>
					<polygon class="st5" points="529.67,297.18 315,341.92 246.41,550.2 392.49,713.74 607.16,669 675.75,460.72 					"/>
					<polygon class="st5" points="812.22,39.66 597.55,84.4 528.96,292.68 675.04,456.22 889.71,411.48 958.3,203.2 					"/>
					<polygon class="st5" points="1169.23,163.89 954.56,208.63 885.97,416.9 1032.05,580.44 1246.72,535.7 1315.31,327.42 					"/>
					<polygon class="st5" points="1248.72,534.39 1034.05,579.13 965.47,787.41 1111.55,950.95 1326.22,906.21 1394.8,697.93 					
						"/>
					<polygon class="st5" points="1326.07,905.5 1111.4,950.24 1042.81,1158.51 1188.89,1322.05 1403.56,1277.31 1472.15,1069.03 
											"/>
					<polygon class="st5" points="1612.08,652.49 1397.41,697.24 1328.82,905.51 1474.9,1069.05 1689.57,1024.31 1758.16,816.03 
											"/>
					<polygon class="st5" points="1975.09,770.84 1760.42,815.58 1691.83,1023.85 1837.91,1187.39 2052.58,1142.65 2121.17,934.37 
											"/>
					<polygon class="st5" points="1534.12,278.44 1319.45,323.18 1250.86,531.45 1396.94,694.99 1611.61,650.25 1680.2,441.97 					
						"/>
					<polygon class="st5" points="1897.16,396.94 1682.49,441.68 1613.9,649.96 1759.98,813.5 1974.65,768.76 2043.24,560.48 					
						"/>
					<polygon class="st5" points="1447.8,-92.81 1233.13,-48.06 1164.54,160.21 1310.62,323.75 1525.29,279.01 1593.88,70.73 					
						"/>
				</g>
			</g>
			<g>
				<g id="XMLID_1_">
					<g>
						<path class="st6" d="M1481.03,558.82v424.24h-227.36V543.89c0,0,2.42-105.47,108.32-107.07h6.24
							C1480.29,439.31,1481.03,558.82,1481.03,558.82z"/>
						<path class="st7" d="M1263.3,436.81h98.69c-105.9,1.6-108.32,107.07-108.32,107.07v439.17h-68.98c0,0,0-385.13,0-470.09
							C1184.69,436.89,1262.99,436.81,1263.3,436.81z"/>
					</g>
					<g>
					</g>
				</g>
			</g>
			<path class="st8" d="M1367.35,486.8c-38.23,0-69.23,30.1-69.23,67.22v429.03h138.45V554.03
				C1436.58,516.9,1405.59,486.8,1367.35,486.8z"/>
		</g>
		<g>
			<path class="st9" d="M1725.26,566.39c0,0,140.21,321.32-244.23,349.84v66.84h329.98
				C1811.01,983.06,1825.83,739.14,1725.26,566.39z"/>
			<path class="st9" d="M1184.68,924.55c0,0-208.77,21.94-749.71,16.29C112.93,937.47,152.3,792.36,152.3,792.36
				s-21.32,140.66-11.5,190.7h1043.88V924.55z"/>
			<path class="st9" d="M1481.03,952.44c0,0-25.6,12.44-44.45,14.7v15.92h44.45V952.44z"/>
			<path class="st9" d="M1298.13,970.3c0,0-25.32,3.63-44.45,4.76v8h44.45V970.3z"/>
			<path class="st9" d="M1290.19,463.36c0,0-36.52,20.56-36.52,107.23c0,139.35,0,412.47,0,412.47h-68.99V521.84
				c0,0-2.27-24.72,7.4-44.14C1192.08,477.7,1193.33,539.52,1290.19,463.36z"/>
		</g>
	</g>
</g>
<g id="shad_fences">
	<g class="st0">
		<g class="st2">
			<g>
				<path class="st3" d="M1806.07,1004.11c0.8-15.06,1.22-30.22,1.22-45.48c0-467.11-378.67-845.77-845.77-845.77
					S115.75,491.52,115.75,958.63c0,15.26,0.43,30.42,1.22,45.48H1806.07z"/>
				<g>
					<defs>
						<path id="SVGID_3_" d="M1806.08,1004.11c0.79-15,1.21-30.1,1.21-45.3c0-467.21-378.75-845.96-845.96-845.96
							S115.38,491.6,115.38,958.81c0,15.2,0.42,30.3,1.21,45.3H1806.08z"/>
					</defs>
					<clipPath id="SVGID_4_">
						<use xlink:href="#SVGID_3_"  style="overflow:visible;"/>
					</clipPath>
					<g class="st10">
						<polygon class="st5" points="298.55,941.98 81.4,987.24 12.02,1197.92 159.79,1363.34 376.93,1318.09 446.31,1107.41 						
							"/>
						<polygon class="st5" points="666.38,1060.94 449.24,1106.2 379.86,1316.88 527.63,1482.3 744.77,1437.05 814.15,1226.36 
													"/>
						<polygon class="st5" points="587.68,683.32 370.54,728.57 301.16,939.26 448.92,1104.68 666.07,1059.42 735.45,848.74 						
							"/>
						<polygon class="st5" points="219.69,563.6 2.54,608.86 -66.84,819.54 80.93,984.97 298.07,939.71 367.45,729.03 						"/>
						<polygon class="st5" points="948.78,806.46 731.64,851.72 662.26,1062.4 810.02,1227.82 1027.17,1182.57 1096.55,971.88 
													"/>
						<polygon class="st5" points="874.39,427.15 657.25,472.41 587.87,683.09 735.63,848.52 952.78,803.26 1022.16,592.58 						
							"/>
						<polygon class="st5" points="509.94,310.31 292.8,355.57 223.42,566.25 371.18,731.67 588.33,686.42 657.71,475.74 						"/>
						<polygon class="st5" points="795.75,49.82 578.6,95.08 509.22,305.76 656.99,471.18 874.14,425.93 943.52,215.25 						"/>
						<polygon class="st5" points="1156.88,175.48 939.73,220.74 870.36,431.42 1018.12,596.84 1235.27,551.58 1304.65,340.9 						
							"/>
						<polygon class="st5" points="1237.29,550.26 1020.15,595.52 950.77,806.2 1098.53,971.62 1315.68,926.36 1385.06,715.68 
													"/>
						<polygon class="st5" points="1315.53,925.65 1098.38,970.9 1029.01,1181.58 1176.77,1347.01 1393.92,1301.75 1463.3,1091.07 
													"/>
						<polygon class="st5" points="1604.84,669.73 1387.7,714.98 1318.32,925.66 1466.08,1091.09 1683.23,1045.83 1752.61,835.15 
													"/>
						<polygon class="st5" points="1972.04,789.43 1754.89,834.69 1685.51,1045.37 1833.28,1210.8 2050.42,1165.54 2119.8,954.86 
													"/>
						<polygon class="st5" points="1525.98,291.35 1308.84,336.61 1239.46,547.29 1387.22,712.71 1604.37,667.46 1673.75,456.77 
													"/>
						<polygon class="st5" points="1893.21,411.22 1676.07,456.48 1606.69,667.16 1754.45,832.59 1971.6,787.33 2040.98,576.65 
													"/>
						<polygon class="st5" points="1438.66,-84.17 1221.52,-38.92 1152.14,171.76 1299.91,337.19 1517.05,291.93 1586.43,81.25 
													"/>
					</g>
				</g>
				<g>
					<g id="XMLID_2_">
						<g>
							<path class="st6" d="M1472.27,574.96v429.13h-229.99V559.86c0,0,2.45-106.69,109.57-108.31h6.31
								C1471.52,454.07,1472.27,574.96,1472.27,574.96z"/>
							<path class="st7" d="M1252.02,451.55h99.83c-107.13,1.62-109.57,108.31-109.57,108.31v444.24h-69.77c0,0,0-389.57,0-475.52
								C1172.51,451.63,1251.71,451.55,1252.02,451.55z"/>
						</g>
						<g>
						</g>
					</g>
				</g>
				<path class="st8" d="M1357.29,502.12c-38.67,0-70.03,30.44-70.03,68v433.98h140.05V570.12
					C1427.32,532.57,1395.97,502.12,1357.29,502.12z"/>
			</g>
		</g>
		<g class="st2">
			<path class="st9" d="M1718.06,584.4c0,0,141.83,325.03-247.04,353.87v67.61h333.79C1804.8,1005.88,1819.79,759.14,1718.06,584.4z
				"/>
			<path class="st9" d="M1171.24,946.69c0,0-211.18,22.19-758.36,16.47c-325.76-3.4-285.93-150.19-285.93-150.19
				s-21.56,142.28-11.63,192.9h1055.92V946.69z"/>
			<path class="st9" d="M1471.01,974.91c0,0-25.89,12.58-44.97,14.87v16.1h44.97V974.91z"/>
			<path class="st9" d="M1285.99,992.97c0,0-25.62,3.67-44.97,4.82v8.1h44.97V992.97z"/>
			<path class="st9" d="M1277.97,480.18c0,0-36.94,20.8-36.94,108.47c0,140.96,0,417.23,0,417.23h-69.79V539.34
				c0,0-2.3-25,7.48-44.64C1178.73,494.69,1179.98,557.22,1277.97,480.18z"/>
		</g>
		<g class="st2">
			<rect x="479.38" y="775.32" class="st11" width="625.85" height="51.46"/>
			<rect x="479.38" y="921.29" class="st11" width="625.85" height="51.46"/>
			<polygon class="st12" points="1105.23,1004.11 1105.23,758.81 1071.39,716.73 1039.09,758.23 1039.09,1004.11 			"/>
			<polygon class="st12" points="959.14,1004.11 959.14,758.81 925.3,716.73 893.01,758.23 893.01,1004.11 			"/>
			<polygon class="st12" points="830.48,1004.11 830.48,758.81 796.64,716.73 764.35,758.23 764.35,1004.11 			"/>
			<polygon class="st12" points="687.39,1004.11 687.39,758.81 653.56,716.73 621.26,758.23 621.26,1004.11 			"/>
			<polygon class="st12" points="545.51,1004.11 545.51,758.81 511.67,716.73 479.38,758.23 479.38,1004.11 			"/>
			<path class="st13" d="M991.94,438.18c0,0-29.82,146.01-33.21,240.59H935.5V438.18H991.94z"/>
			<rect x="738.44" y="438.18" class="st14" width="197.06" height="240.59"/>
			<rect x="750.45" y="452.84" class="st15" width="173.05" height="211.28"/>
		</g>
		<path class="st16" d="M1105.23,940.97c0,0-30.71,13.35-66.13,20.39c-34.4,6.84-230.85,11.39-274.75,11.39v31.36h66.13v-31.36
			h62.53v31.36h66.13v-31.36h79.95v31.36h66.13V940.97z"/>
		<path class="st16" d="M687.39,975.96c0,0-49.33,3.98-66.13,4.7v23.44h66.13V975.96z"/>
		<path class="st16" d="M545.51,983.92c0,0-54.81,2.53-66.13,2.89v17.29h66.13V983.92z"/>
		<path class="st16" d="M923.5,486.87c0,0-8.78,191.91-173.05,162.77v14.48H923.5V486.87z"/>
		<path class="st2" d="M1067.67,548.81"/>
	</g>
	<g class="st0">
		<polygon class="st17" points="1291.78,229.72 1291.78,131.71 1368.06,131.71 1465.95,131.71 1465.95,334.8 1291.78,334.8 		"/>
		<g class="st2">
			<path class="st3" d="M1776.85,1021.53c0.77-14.56,1.18-29.22,1.18-43.98c0-451.69-366.17-817.85-817.85-817.85
				S142.33,525.86,142.33,977.55c0,14.76,0.41,29.41,1.18,43.98H1776.85z"/>
			<g>
				<defs>
					<path id="SVGID_5_" d="M1776.86,1021.53c0.77-14.5,1.17-29.1,1.17-43.8c0-451.79-366.24-818.03-818.03-818.03
						S141.97,525.94,141.97,977.73c0,14.7,0.41,29.3,1.17,43.8H1776.86z"/>
				</defs>
				<clipPath id="SVGID_6_">
					<use xlink:href="#SVGID_5_"  style="overflow:visible;"/>
				</clipPath>
				<g class="st18">
					<polygon class="st5" points="319.09,961.45 109.11,1005.22 42.02,1208.94 184.91,1368.91 394.89,1325.14 461.98,1121.42 					
						"/>
					<polygon class="st5" points="674.78,1076.48 464.81,1120.25 397.72,1323.97 540.61,1483.94 750.58,1440.18 817.67,1236.45 
											"/>
					<polygon class="st5" points="598.68,711.33 388.7,755.09 321.61,958.82 464.5,1118.78 674.48,1075.02 741.57,871.29 					"/>
					<polygon class="st5" points="242.83,595.57 32.86,639.33 -34.23,843.06 108.66,1003.02 318.63,959.26 385.72,755.53 					"/>
					<polygon class="st5" points="947.86,830.41 737.88,874.17 670.79,1077.9 813.68,1237.86 1023.66,1194.1 1090.75,990.37 					
						"/>
					<polygon class="st5" points="875.92,463.62 665.95,507.38 598.86,711.11 741.75,871.07 951.72,827.31 1018.81,623.58 					"/>
					<polygon class="st5" points="523.5,350.64 313.53,394.4 246.44,598.13 389.33,758.09 599.3,714.33 666.39,510.6 					"/>
					<polygon class="st5" points="799.88,98.74 589.9,142.51 522.81,346.23 665.7,506.2 875.68,462.44 942.77,258.71 					"/>
					<polygon class="st5" points="1149.09,220.25 939.11,264.02 872.02,467.74 1014.91,627.71 1224.89,583.95 1291.98,380.22 					
						"/>
					<polygon class="st5" points="1226.85,582.66 1016.87,626.43 949.78,830.15 1092.67,990.12 1302.65,946.35 1369.73,742.63 					
						"/>
					<polygon class="st5" points="1302.5,945.66 1092.52,989.42 1025.44,1193.15 1168.32,1353.11 1378.3,1309.35 1445.39,1105.62 
											"/>
					<polygon class="st5" points="1582.26,698.19 1372.29,741.95 1305.2,945.68 1448.08,1105.64 1658.06,1061.88 1725.15,858.15 
											"/>
					<polygon class="st5" points="1937.34,813.94 1727.36,857.7 1660.27,1061.43 1803.16,1221.39 2013.14,1177.63 2080.22,973.9 
											"/>
					<polygon class="st5" points="1506.01,332.3 1296.03,376.06 1228.94,579.79 1371.83,739.75 1581.81,695.99 1648.89,492.26 					
						"/>
					<polygon class="st5" points="1861.11,448.22 1651.14,491.98 1584.05,695.71 1726.93,855.67 1936.91,811.91 2004,608.18 					
						"/>
					<polygon class="st5" points="1421.57,-30.83 1211.59,12.94 1144.5,216.66 1287.39,376.63 1497.37,332.86 1564.46,129.14 					
						"/>
				</g>
			</g>
			<g>
				<g id="XMLID_3_">
					<g>
						<path class="st6" d="M1454.1,606.55v414.97h-222.4V591.94c0,0,2.33-103.17,105.92-104.73h6.1
							C1453.33,489.65,1454.1,606.55,1454.1,606.55z"/>
						<path class="st7" d="M1241.08,487.2h96.53c-103.59,1.56-105.92,104.73-105.92,104.73v429.57h-67.51c0,0,0-376.71,0-459.82
							C1164.19,487.28,1240.78,487.2,1241.08,487.2z"/>
					</g>
					<g>
					</g>
				</g>
			</g>
			<path class="st8" d="M1342.88,536.12c-37.4,0-67.71,29.44-67.71,65.76v419.66h135.43V601.87
				C1410.6,565.56,1380.28,536.12,1342.88,536.12z"/>
		</g>
		<rect x="1261.65" y="58.47" class="st19" width="232.9" height="73.23"/>
		<g class="st2">
			<path class="st9" d="M1693.86,613.96c0,0,137.15,314.3-238.89,342.19v65.38h322.77
				C1777.74,1021.53,1792.24,782.94,1693.86,613.96z"/>
			<path class="st9" d="M1165.1,964.29c0,0-204.2,21.46-733.33,15.93c-315-3.29-276.49-145.23-276.49-145.23
				s-20.85,137.58-11.25,186.53H1165.1V964.29z"/>
			<path class="st9" d="M1454.97,991.58c0,0-25.04,12.17-43.48,14.38v15.57h43.48V991.58z"/>
			<path class="st9" d="M1276.06,1009.04c0,0-24.77,3.55-43.48,4.66v7.83h43.48V1009.04z"/>
			<path class="st9" d="M1268.3,513.18c0,0-35.72,20.11-35.72,104.89c0,136.3,0,403.46,0,403.46h-67.48V570.39
				c0,0-2.22-24.18,7.24-43.17C1172.34,527.22,1173.55,587.68,1268.3,513.18z"/>
		</g>
		<rect x="1261.65" y="58.47" class="st16" width="106.41" height="73.23"/>
		<path class="st16" d="M1291.78,229.72v-98.02h76.28v136.8C1368.06,268.51,1327.21,243.78,1291.78,229.72z"/>
		<g class="st2">
			<rect x="493.95" y="800.3" class="st11" width="605.19" height="49.76"/>
			<rect x="493.95" y="941.44" class="st11" width="605.19" height="49.76"/>
			<polygon class="st12" points="1099.14,1021.53 1099.14,784.33 1066.42,743.64 1035.19,783.77 1035.19,1021.53 			"/>
			<polygon class="st12" points="957.88,1021.53 957.88,784.33 925.16,743.64 893.93,783.77 893.93,1021.53 			"/>
			<polygon class="st12" points="833.46,1021.53 833.46,784.33 800.74,743.64 769.51,783.77 769.51,1021.53 			"/>
			<polygon class="st12" points="695.1,1021.53 695.1,784.33 662.38,743.64 631.15,783.77 631.15,1021.53 			"/>
			<polygon class="st12" points="557.9,1021.53 557.9,784.33 525.18,743.64 493.95,783.77 493.95,1021.53 			"/>
			<path class="st13" d="M989.59,474.29c0,0-28.83,141.19-32.11,232.65h-22.46V474.29H989.59z"/>
			<rect x="744.46" y="474.29" class="st14" width="190.56" height="232.65"/>
			<rect x="756.07" y="488.46" class="st15" width="167.34" height="204.3"/>
		</g>
		<path class="st16" d="M1099.14,960.47c0,0-29.7,12.91-63.95,19.72c-33.26,6.61-223.23,11.01-265.68,11.01v30.33h63.95V991.2h60.46
			v30.33h63.95V991.2h77.31v30.33h63.95V960.47z"/>
		<path class="st16" d="M695.1,994.31c0,0-47.7,3.85-63.95,4.55v22.67h63.95V994.31z"/>
		<path class="st16" d="M557.9,1002.01c0,0-53,2.45-63.95,2.8v16.72h63.95V1002.01z"/>
		<path class="st16" d="M923.41,521.37c0,0-8.49,185.57-167.34,157.39v14h167.34V521.37z"/>
		<path class="st2" d="M1062.82,581.27"/>
	</g>
	<g>
		<g>
			<polygon class="st20" points="1267.19,277.44 1267.19,185.64 1338.63,185.64 1430.31,185.64 1430.31,375.85 1267.19,375.85 			
				"/>
			<g>
				<path class="st3" d="M1721.49,1019.02c0.72-13.64,1.11-27.37,1.11-41.19c0-423.04-342.94-765.98-765.98-765.98
					S190.65,554.79,190.65,977.83c0,13.82,0.39,27.55,1.11,41.19H1721.49z"/>
				<g>
					<defs>
						<path id="SVGID_7_" d="M1721.5,1019.02c0.72-13.58,1.1-27.26,1.1-41.02c0-423.13-343.01-766.14-766.14-766.14
							S190.31,554.87,190.31,978c0,13.76,0.38,27.44,1.1,41.02H1721.5z"/>
					</defs>
					<clipPath id="SVGID_8_">
						<use xlink:href="#SVGID_7_"  style="overflow:visible;"/>
					</clipPath>
					<g class="st21">
						<polygon class="st5" points="356.2,962.75 159.54,1003.74 96.71,1194.55 230.53,1344.36 427.19,1303.38 490.02,1112.57 						
							"/>
						<polygon class="st5" points="689.33,1070.49 492.67,1111.48 429.84,1302.28 563.66,1452.1 760.32,1411.11 823.15,1220.31 
													"/>
						<polygon class="st5" points="618.05,728.5 421.39,769.48 358.56,960.29 492.39,1110.1 689.04,1069.12 751.88,878.31 						"/>
						<polygon class="st5" points="284.78,620.08 88.12,661.07 25.29,851.87 159.11,1001.69 355.77,960.7 418.6,769.9 						"/>
						<polygon class="st5" points="945.08,840.02 748.43,881.01 685.59,1071.81 819.42,1221.63 1016.08,1180.64 1078.91,989.84 
													"/>
						<polygon class="st5" points="877.71,496.5 681.05,537.49 618.22,728.29 752.05,878.11 948.7,837.12 1011.54,646.32 						"/>
						<polygon class="st5" points="547.65,390.68 350.99,431.67 288.16,622.47 421.98,772.29 618.64,731.3 681.47,540.5 						"/>
						<polygon class="st5" points="806.49,154.77 609.83,195.76 547,386.56 680.82,536.38 877.48,495.39 940.31,304.59 						"/>
						<polygon class="st5" points="1133.55,268.57 936.89,309.56 874.06,500.36 1007.88,650.18 1204.54,609.19 1267.37,418.39 
													"/>
						<polygon class="st5" points="1206.37,607.99 1009.72,648.98 946.88,839.78 1080.71,989.6 1277.36,948.61 1340.2,757.81 						
							"/>
						<polygon class="st5" points="1277.23,947.96 1080.57,988.95 1017.74,1179.75 1151.56,1329.57 1348.22,1288.58 
							1411.05,1097.78 						"/>
						<polygon class="st5" points="1539.24,716.19 1342.59,757.17 1279.75,947.98 1413.58,1097.8 1610.24,1056.81 1673.07,866 
													"/>
						<polygon class="st5" points="1871.8,824.6 1675.14,865.59 1612.3,1056.39 1746.13,1206.21 1942.79,1165.22 2005.62,974.42 
													"/>
						<polygon class="st5" points="1467.82,373.51 1271.17,414.5 1208.33,605.3 1342.16,755.12 1538.82,714.13 1601.65,523.33 
													"/>
						<polygon class="st5" points="1800.41,482.07 1603.75,523.06 1540.92,713.86 1674.74,863.68 1871.4,822.69 1934.23,631.89 
													"/>
						<polygon class="st5" points="1388.75,33.42 1192.09,74.4 1129.25,265.21 1263.08,415.02 1459.74,374.04 1522.57,183.23 						
							"/>
					</g>
				</g>
				<g>
					<g id="XMLID_4_">
						<g>
							<path class="st6" d="M1419.19,1019.01H1210.9V616.68c0,0,2.21-96.63,99.23-98.09h5.72
								c102.66,2.29,103.34,111.77,103.34,111.77V1019.01z"/>
							<path class="st7" d="M1210.9,616.68v402.33h-63.19c0,0,0-352.82,0-430.65c0-69.69,71.73-69.76,72.01-69.76h90.41
								C1213.11,520.06,1210.9,616.68,1210.9,616.68z"/>
						</g>
						<g>
						</g>
					</g>
				</g>
				<path class="st8" d="M1315.05,564.4c-35.03,0-63.42,27.57-63.42,61.58v393.04h126.84V625.98
					C1378.47,591.97,1350.08,564.4,1315.05,564.4z"/>
			</g>
			<rect x="1238.97" y="117.05" class="st22" width="218.13" height="68.59"/>
			<g>
				<path class="st9" d="M1643.77,637.31c0,0,128.45,294.36-223.74,320.49v61.23h302.29
					C1722.32,1019.02,1735.9,795.56,1643.77,637.31z"/>
				<path class="st9" d="M1148.54,965.42c0,0-191.25,20.09-686.81,14.92c-295.02-3.08-258.95-136.02-258.95-136.02
					s-19.53,128.86-10.53,174.7h956.3V965.42z"/>
				<path class="st9" d="M1420.03,990.97c0,0-23.45,11.39-40.72,13.47v14.58h40.72V990.97z"/>
				<path class="st9" d="M1252.47,1007.33c0,0-23.2,3.33-40.72,4.36v7.33h40.72V1007.33z"/>
				<path class="st9" d="M1245.2,542.92c0,0-33.46,18.84-33.46,98.23c0,127.66,0,377.87,0,377.87h-63.2V596.49
					c0,0-2.08-22.65,6.78-40.43C1155.32,556.06,1156.46,612.69,1245.2,542.92z"/>
			</g>
			<rect x="1238.97" y="117.05" class="st9" width="99.66" height="68.59"/>
			<path class="st9" d="M1267.19,277.44v-91.8h71.45v128.13C1338.63,313.77,1300.37,290.61,1267.19,277.44z"/>
			<g>
				<rect x="519.97" y="811.82" class="st11" width="566.8" height="46.6"/>
				<rect x="519.97" y="944.01" class="st11" width="566.8" height="46.6"/>
				<polygon class="st12" points="1086.77,1019.02 1086.77,796.87 1056.12,758.76 1026.87,796.34 1026.87,1019.02 				"/>
				<polygon class="st12" points="954.46,1019.02 954.46,796.87 923.82,758.76 894.57,796.34 894.57,1019.02 				"/>
				<polygon class="st12" points="837.94,1019.02 837.94,796.87 807.3,758.76 778.05,796.34 778.05,1019.02 				"/>
				<polygon class="st12" points="708.36,1019.02 708.36,796.87 677.71,758.76 648.46,796.34 648.46,1019.02 				"/>
				<polygon class="st12" points="579.86,1019.02 579.86,796.87 549.21,758.76 519.97,796.34 519.97,1019.02 				"/>
				<path class="st13" d="M984.17,506.49c0,0-27,132.24-30.08,217.89h-21.03V506.49H984.17z"/>
				<rect x="754.59" y="506.49" class="st14" width="178.47" height="217.89"/>
				<rect x="765.46" y="519.77" class="st15" width="156.72" height="191.34"/>
			</g>
			<path class="st9" d="M1086.77,961.84c0,0-27.81,12.09-59.89,18.47c-31.15,6.19-209.07,10.31-248.82,10.31v28.4h59.89v-28.4h56.63
				v28.4h59.89v-28.4h72.41v28.4h59.89V961.84z"/>
			<path class="st9" d="M708.36,993.53c0,0-44.67,3.6-59.89,4.26v21.23h59.89V993.53z"/>
			<path class="st9" d="M579.86,1000.74c0,0-49.64,2.29-59.89,2.62v15.66h59.89V1000.74z"/>
			<path class="st9" d="M922.19,550.58c0,0-7.95,173.8-156.72,147.41v13.12h156.72V550.58z"/>
			<path d="M1052.76,606.68"/>
		</g>
		<g>
			<path class="st7" d="M761.81,73.82c-7.48-4.47-15.54-7.91-24.17-10.06c-63.7-15.91-132.93,41.65-154.64,128.56
				c-21.71,86.91,12.32,170.27,76.02,186.18c43.67,16.13,160.88-19.99,191.2-119.43C883.64,149.44,804.02,94.52,761.81,73.82z"/>
			
				<ellipse transform="matrix(0.2424 -0.9702 0.9702 0.2424 314.2154 844.2969)" class="st6" cx="697.69" cy="220.96" rx="162.21" ry="118.22"/>
		</g>
		<g>
			<path class="st23" d="M679.88,380.94l4.22-32.42l-29.55-47.36c0,0,14.61-29.89,13.74-44.32c0,0-25.32,9.49-42.29,42.52
				l30.2,47.18l-7.82,28.58C648.39,375.11,664.91,382.21,679.88,380.94z"/>
			<circle class="st23" cx="671.57" cy="252.4" r="12.07"/>
		</g>
		<path class="st24" d="M814.32,154.74c0,0-21.48,187.1-132.37,210.3l-2.07,15.9c0,0,43.54,0.98,82.69-39.18
			s52.58-95.97,55.02-120.8C821.21,184.13,814.32,154.74,814.32,154.74z"/>
	</g>
</g>
</svg>
