<svg id="Layer_1" data-name="Layer 1" xmlns="http://www.w3.org/2000/svg" viewBox="0 0 1175.21 662.78"><defs><style>.cls-1{fill:#331919;}.cls-2{fill:#7f4a26;}.cls-3{fill:#5b371e;}.cls-4{fill:#9b9b9b;}.cls-5{fill:#5e5e5e;}.cls-6{fill:#4f2525;}.cls-7{fill:#844747;}.cls-8{opacity:0.2;}</style></defs><title>Market place level 1</title><path class="cls-1" d="M420.92,582.89S582.4,788.32,958.1,804.51c430.25,18.55,500.61-154.3,569.09-221.62,0,0-165.64-140.19-255.4-180.45H683.26S583.33,424.19,420.92,582.89Z" transform="translate(-389 -219.22)"/><rect class="cls-2" x="249.85" y="451.11" width="669.03" height="210.98" rx="12" ry="12"/><rect class="cls-3" x="226.25" y="451.11" width="717.62" height="33.31" rx="12" ry="12"/><rect class="cls-3" x="302.59" y="476.1" width="18.04" height="186"/><rect class="cls-3" x="399.75" y="476.1" width="18.04" height="186"/><rect class="cls-3" x="494.14" y="476.1" width="18.04" height="186"/><rect class="cls-3" x="585.75" y="476.1" width="18.04" height="186"/><rect class="cls-3" x="677.36" y="476.1" width="18.04" height="186"/><rect class="cls-3" x="763.42" y="476.1" width="18.04" height="186"/><rect class="cls-3" x="849.48" y="476.1" width="18.04" height="186"/><path class="cls-4" d="M645.79,670.33l25-113.81L650,535.69l-11.1-133.25h44.41s-11.1,73.57-11.1,118l19.43,25-8.33,124.92" transform="translate(-389 -219.22)"/><polygon class="cls-4" points="885.57 451.11 885.57 328.96 905 283.16 882.79 183.22 918.88 183.22 924.43 297.04 903.61 334.52 924.43 451.11 885.57 451.11"/><polygon class="cls-5" points="266.5 363.67 255.4 410.86 312.31 410.86 312.31 363.67 266.5 363.67"/><polygon class="cls-5" points="874.46 198.49 867.52 229.03 931.37 248.46 931.37 216.53 874.46 198.49"/><path class="cls-6" d="M1309.27,353.86c-143.71-88.33-317.44-130.32-334.52-134.32v-.32l-.69.16-.7-.16v.32c-17.07,4-190.81,46-334.51,134.32,0,0-123.54,105.49-217.93,229,0,0,191.55-149.91,262.34-180.45h581.59c70.79,30.54,262.34,180.45,262.34,180.45C1432.8,459.35,1309.27,353.86,1309.27,353.86Z" transform="translate(-389 -219.22)"/><path class="cls-7" d="M537.52,278.91" transform="translate(-389 -219.22)"/><polygon class="cls-4" points="31.93 363.67 55.51 345.46 49.51 446.49 33.78 459.9 49.97 662.25 21.75 662.25 18.97 446.49 35.16 434.46 31.93 363.67"/><polygon class="cls-4" points="1138.06 364.19 1114.48 345.99 1120.48 447.01 1136.21 460.43 1120.02 662.78 1148.24 662.78 1151.02 447.01 1134.82 434.98 1138.06 364.19"/><polygon class="cls-5" points="27.76 417.8 24.06 387.26 61.07 371.53 61.07 417.8 27.76 417.8"/><polygon class="cls-5" points="0 551.98 50.9 586.67 50.9 542.72 9.72 522.13 0 551.98"/><polygon class="cls-5" points="1102.1 515.89 1106.73 577.89 1175.21 546.89 1169.65 515.89 1102.1 515.89"/><path class="cls-8" d="M640.77,425.49a380,380,0,0,1,42.49-23.05s-42.49,29.85-23.91,113.11c0,0,3.44,9.27,12.81,4.88,0,0-8,3.93-6.49,18,0,0,5.33,13.65,24.9,18.62l-1.48,25.8H665l5.79-26.37L650,535.69Z" transform="translate(-389 -219.22)"/><path class="cls-8" d="M686,630.08s-19,2.43-20.73,40.25H645.79l8.83-40.25Z" transform="translate(-389 -219.22)"/><polygon class="cls-8" points="300.09 363.67 296.95 410.86 255.4 410.86 266.5 363.67 300.09 363.67"/><path class="cls-8" d="M1272.59,406s33.56,16.39,36.47,20.52v5.64l-33-10.46Z" transform="translate(-389 -219.22)"/><polygon class="cls-8" points="895.8 205.26 900.6 239.09 931.37 248.46 931.37 216.53 895.8 205.26"/><path class="cls-8" d="M1283.82,456.56l27.1,8.24,2.51,52-20.82,37,20.82,116.59h-38.86s29.67,11.43,13-106.89c0,0-3-11.56.87-17.16l14.14-29.5s2.69-8-8.59-14.4c0,0,6.07-4.86,11.8-2.95C1305.8,499.43,1310.59,485,1283.82,456.56Z" transform="translate(-389 -219.22)"/><path class="cls-8" d="M653.65,703.65S634.37,699,650,682.36H1294s11.11,10.18,0,21.29h26.37s30.17-15.1,0-33.32H638.85s-22.61-4.28-23.45,18.86a16.82,16.82,0,0,0,13.73,14.46Z" transform="translate(-389 -219.22)"/><path class="cls-8" d="M677,703.65s-23.6-7.64-11.8,177.67c0,0-30.54,3.47-26.37-22.21V703.65Z" transform="translate(-389 -219.22)"/><path class="cls-8" d="M1268.63,703.65s23.59-7.64,11.79,177.67c0,0,30.54,3.47,26.38-22.21V703.65Z" transform="translate(-389 -219.22)"/><path class="cls-8" d="M709.64,703.65s-16-10.41-8.33,177.67h-9.72V703.65Z" transform="translate(-389 -219.22)"/><path class="cls-8" d="M806.8,703.65s-16-10.41-8.33,177.67h-9.72V703.65Z" transform="translate(-389 -219.22)"/><path class="cls-8" d="M901.19,703.65s-16-10.41-8.33,177.67h-9.72V703.65Z" transform="translate(-389 -219.22)"/><path class="cls-8" d="M992.8,703.65s-16-10.41-8.33,177.67h-9.72V703.65Z" transform="translate(-389 -219.22)"/><path class="cls-8" d="M1084.41,703.76s-16-10.41-8.33,177.66h-9.72V703.76Z" transform="translate(-389 -219.22)"/><path class="cls-8" d="M1170.47,703.76s-16-10.41-8.33,177.66h-9.72V703.76Z" transform="translate(-389 -219.22)"/><path class="cls-8" d="M1256.52,703.65s-16-10.41-8.32,177.67h-9.72V703.65Z" transform="translate(-389 -219.22)"/><path class="cls-8" d="M921.55,242.07" transform="translate(-389 -219.22)"/><path d="M759.52,323.08" transform="translate(-389 -219.22)"/><path d="M1527.19,582.89" transform="translate(-389 -219.22)"/><path class="cls-8" d="M429.89,599.33s-2.52-13.06,14.62-34.65l-23.59,18.21.91,19.87Z" transform="translate(-389 -219.22)"/><polygon class="cls-8" points="43.72 378.91 42.57 417.8 27.76 417.8 24.06 387.26 43.72 378.91"/><path class="cls-8" d="M423.4,637h4.93s-1.62,17.12,10.18,28.69l-15.73,13.42s-5.56-1.39-8.33-5.56c0,0-4.28,51.77,14.52,82.91l-20-10-1-80.79,16.19-12Z" transform="translate(-389 -219.22)"/><polygon class="cls-8" points="45.62 540.09 43.52 581.64 0 551.98 9.72 522.13 45.62 540.09"/><path class="cls-8" d="M432.52,800.87s-19-7.61-9.28,80.6H410.75l-1.24-96.29Z" transform="translate(-389 -219.22)"/><path class="cls-8" d="M1503.48,565.21l23.71,17.68-3.37,71.31,16.2,12-.89,68.88h-18.36s21-42.39,14.4-57l-10,1.51s8.23-5.85,4.41-9-4.16-4.86-13.53-8.85C1516.09,661.83,1530.43,616.24,1503.48,565.21Z" transform="translate(-389 -219.22)"/><polygon class="cls-8" points="1123.44 515.89 1129.39 567.63 1175.21 546.89 1169.65 515.89 1123.44 515.89"/><path class="cls-8" d="M1516.56,787.68l22-10L1537.24,882h-10S1540.47,832.32,1516.56,787.68Z" transform="translate(-389 -219.22)"/><path class="cls-1" d="M672.8,362.78s148.36-42.57,286.39-43.86,325.08,43.86,325.08,43.86-122.55-24.51-325.08-21.93C959.19,340.85,832.77,337,672.8,362.78Z" transform="translate(-389 -219.22)"/><path class="cls-1" d="M843.09,278.93s99.33-37.41,130.29-37.41,135.45,37.41,135.45,37.41-73.53-20.64-135.45-18.06S843.09,278.93,843.09,278.93Z" transform="translate(-389 -219.22)"/><path class="cls-1" d="M477-61" transform="translate(-389 -219.22)"/></svg>