<svg id="Layer_1" data-name="Layer 1" xmlns="http://www.w3.org/2000/svg" viewBox="0 0 1730.36 513.77"><defs><style>.cls-1{fill:#331919;}.cls-2{fill:#7f4a26;}.cls-3{fill:#5b371e;}.cls-4{fill:#9b9b9b;}.cls-5,.cls-8{fill:#5e5e5e;}.cls-6{fill:#4f2525;}.cls-7{fill:#844747;}.cls-8{stroke:#3a3a3a;stroke-miterlimit:10;stroke-width:6px;}.cls-9{opacity:0.2;}</style></defs><title>Market place level 1</title><path class="cls-1" d="M149.75,574.63s125.17,159.24,416.4,171.79c333.53,14.38,388.08-119.61,441.16-171.79,0,0-128.4-108.68-198-139.88H353.11S275.64,451.61,149.75,574.63Z" transform="translate(-125 -292.72)"/><rect class="cls-2" x="193.68" y="349.69" width="518.62" height="163.55" rx="12" ry="12"/><rect class="cls-3" x="175.39" y="349.69" width="556.28" height="25.82" rx="12" ry="12"/><rect class="cls-3" x="234.56" y="369.06" width="13.99" height="144.18"/><rect class="cls-3" x="309.88" y="369.06" width="13.99" height="144.18"/><rect class="cls-3" x="383.05" y="369.06" width="13.99" height="144.18"/><rect class="cls-3" x="454.07" y="369.06" width="13.99" height="144.18"/><rect class="cls-3" x="525.08" y="369.06" width="13.99" height="144.18"/><rect class="cls-3" x="591.79" y="369.06" width="13.99" height="144.18"/><rect class="cls-3" x="658.5" y="369.06" width="13.99" height="144.18"/><path class="cls-4" d="M324.06,642.41l19.36-88.23L327.29,538l-8.61-103.29h34.43s-8.61,57-8.61,91.46l15.06,19.36-6.45,96.84" transform="translate(-125 -292.72)"/><polygon class="cls-4" points="686.48 349.69 686.48 255.01 701.54 219.5 684.33 142.03 712.3 142.03 716.61 230.26 700.47 259.31 716.61 349.69 686.48 349.69"/><polygon class="cls-5" points="206.59 281.91 197.98 318.49 242.1 318.49 242.1 281.91 206.59 281.91"/><polygon class="cls-5" points="677.87 153.87 672.49 177.54 721.99 192.6 721.99 167.85 677.87 153.87"/><path class="cls-6" d="M838.38,397.09C727,328.62,592.3,296.06,579.07,293v-.25l-.54.12-.54-.12V293c-13.24,3.09-147.92,35.65-259.31,104.12,0,0-95.77,81.77-168.93,177.54,0,0,148.48-116.21,203.36-139.88H804c54.87,23.67,203.36,139.88,203.36,139.88C934.14,478.86,838.38,397.09,838.38,397.09Z" transform="translate(-125 -292.72)"/><path class="cls-7" d="M240.13,339" transform="translate(-125 -292.72)"/><polygon class="cls-8" points="1711 497.28 846 496.28 940 468.28 1620 468.28 1711 497.28"/><polygon class="cls-4" points="24.75 281.91 43.03 267.8 38.38 346.11 26.18 356.51 38.73 513.37 16.86 513.37 14.71 346.11 27.26 336.78 24.75 281.91"/><polygon class="cls-4" points="882.21 282.32 863.93 268.2 868.58 346.52 880.77 356.92 868.22 513.77 890.1 513.77 892.25 346.52 879.7 337.19 882.21 282.32"/><polygon class="cls-5" points="21.52 323.87 18.65 300.2 47.34 288 47.34 323.87 21.52 323.87"/><polygon class="cls-5" points="0 427.88 39.45 454.78 39.45 420.71 7.53 404.75 0 427.88"/><polygon class="cls-5" points="854.33 399.91 857.92 447.97 911 423.94 906.7 399.91 854.33 399.91"/><path class="cls-9" d="M320.17,452.61a293.63,293.63,0,0,1,32.94-17.86s-32.94,23.13-18.54,87.68c0,0,2.67,7.18,9.93,3.78,0,0-6.2,3-5,14,0,0,4.13,10.58,19.3,14.44l-1.14,20H338.94l4.48-20.45L327.29,538Z" transform="translate(-125 -292.72)"/><path class="cls-9" d="M355.19,611.21s-14.72,1.88-16.07,31.2H324.06l6.85-31.2Z" transform="translate(-125 -292.72)"/><polygon class="cls-9" points="232.63 281.91 230.19 318.49 197.98 318.49 206.59 281.91 232.63 281.91"/><path class="cls-9" d="M809.94,437.52s26,12.7,28.27,15.9v4.37l-25.57-8.11Z" transform="translate(-125 -292.72)"/><polygon class="cls-9" points="694.41 159.11 698.13 185.34 721.99 192.6 721.99 167.85 694.41 159.11"/><path class="cls-9" d="M818.65,476.69l21,6.4,2,40.29L825.47,552l16.14,90.38H811.48s23,8.86,10.09-82.86c0,0-2.37-9,.67-13.3l11-22.87s2.08-6.18-6.66-11.16c0,0,4.71-3.77,9.15-2.29C835.69,509.93,839.4,498.74,818.65,476.69Z" transform="translate(-125 -292.72)"/><path class="cls-9" d="M330.15,668.24s-14.95-3.58-2.86-16.5H826.54s8.61,7.89,0,16.5H847s23.38-11.71,0-25.83H318.68S301.16,639.09,300.5,657a13,13,0,0,0,10.65,11.21Z" transform="translate(-125 -292.72)"/><path class="cls-9" d="M348.27,668.24S330,662.32,339.12,806c0,0-23.67,2.69-20.44-17.21V668.24Z" transform="translate(-125 -292.72)"/><path class="cls-9" d="M806.87,668.24S825.16,662.32,816,806c0,0,23.67,2.69,20.44-17.21V668.24Z" transform="translate(-125 -292.72)"/><path class="cls-9" d="M373.55,668.24S361.18,660.17,367.1,806h-7.54V668.24Z" transform="translate(-125 -292.72)"/><path class="cls-9" d="M448.87,668.24S436.5,660.17,442.42,806h-7.54V668.24Z" transform="translate(-125 -292.72)"/><path class="cls-9" d="M522,668.24s-12.38-8.07-6.46,137.72h-7.53V668.24Z" transform="translate(-125 -292.72)"/><path class="cls-9" d="M593.05,668.24S580.68,660.17,586.6,806h-7.53V668.24Z" transform="translate(-125 -292.72)"/><path class="cls-9" d="M664.07,668.32s-12.38-8.07-6.46,137.73h-7.53V668.32Z" transform="translate(-125 -292.72)"/><path class="cls-9" d="M730.78,668.32s-12.37-8.07-6.46,137.73h-7.53V668.32Z" transform="translate(-125 -292.72)"/><path class="cls-9" d="M797.49,668.24S785.12,660.17,791,806H783.5V668.24Z" transform="translate(-125 -292.72)"/><path class="cls-9" d="M537.83,310.43" transform="translate(-125 -292.72)"/><path d="M412.22,373.23" transform="translate(-125 -292.72)"/><path d="M1007.31,574.63" transform="translate(-125 -292.72)"/><path class="cls-9" d="M156.7,587.37s-1.95-10.12,11.33-26.86l-18.28,14.12.7,15.4Z" transform="translate(-125 -292.72)"/><polygon class="cls-9" points="33.89 293.72 33 323.87 21.52 323.87 18.65 300.2 33.89 293.72"/><path class="cls-9" d="M151.67,616.59h3.82s-1.26,13.27,7.89,22.24l-12.2,10.4s-4.3-1.08-6.45-4.31c0,0-3.32,40.13,11.25,64.27l-15.47-7.73-.8-62.63,12.55-9.33Z" transform="translate(-125 -292.72)"/><polygon class="cls-9" points="35.36 418.67 33.73 450.88 0 427.88 7.53 404.75 35.36 418.67"/><path class="cls-9" d="M158.73,743.6s-14.72-5.9-7.19,62.48h-9.68l-1-74.64Z" transform="translate(-125 -292.72)"/><path class="cls-9" d="M988.93,560.92l18.38,13.71-2.61,55.28,12.55,9.32-.69,53.4h-14.23s16.27-32.87,11.16-44.16l-7.72,1.17s6.38-4.54,3.42-7-3.23-3.76-10.49-6.86C998.7,635.82,1009.82,600.48,988.93,560.92Z" transform="translate(-125 -292.72)"/><polygon class="cls-9" points="870.88 399.91 875.48 440.02 911 423.94 906.7 399.91 870.88 399.91"/><path class="cls-9" d="M999.07,733.37l17.07-7.72-1,80.84h-7.79S1017.6,768,999.07,733.37Z" transform="translate(-125 -292.72)"/><path class="cls-1" d="M345,404s115-33,222-34,252,34,252,34-95-19-252-17C567,387,469,384,345,404Z" transform="translate(-125 -292.72)"/><path class="cls-1" d="M477,339s77-29,101-29,105,29,105,29-57-16-105-14S477,339,477,339Z" transform="translate(-125 -292.72)"/><path class="cls-1" d="M477-61" transform="translate(-125 -292.72)"/></svg>